<svg width="541" height="518" viewBox="0 0 541 518" fill="none" xmlns="http://www.w3.org/2000/svg">
<path d="M451.941 53.7062C418.994 34.0844 379.501 31.9502 344.704 48.288C315.068 62.16 292.01 85.7497 262.342 99.6321C221.81 118.622 177.307 129.003 136.332 147.195C95.3567 165.387 56.1342 193.898 41.4406 234.799C24.1286 283.108 30.2094 339.912 56.686 384.076C99.7279 455.861 185.098 481.357 267.286 480.424C440.958 478.466 530.418 277.068 502.08 132.328C495.891 100.969 480.808 70.8935 451.941 53.7062Z" fill="#7860A0"/>
<path opacity="0.7" d="M451.941 53.7062C418.994 34.0844 379.501 31.9502 344.704 48.288C315.068 62.16 292.01 85.7497 262.342 99.6321C221.81 118.622 177.307 129.003 136.332 147.195C95.3567 165.387 56.1342 193.898 41.4406 234.799C24.1286 283.108 30.2094 339.912 56.686 384.076C99.7279 455.861 185.098 481.357 267.286 480.424C440.958 478.466 530.418 277.068 502.08 132.328C495.891 100.969 480.808 70.8935 451.941 53.7062Z" fill="white"/>
<path d="M130.5 321.44L121.411 323.014L119.626 313.587L108.828 315.462L110.613 324.89L101.535 326.464L103.558 337.166L112.636 335.591L114.422 345.019L125.22 343.154L123.435 333.716L132.523 332.142L130.5 321.44Z" stroke="#7860A0" stroke-linecap="round" stroke-linejoin="round"/>
<path d="M221.237 177.021L212.526 174.079L215.859 165.045L205.515 161.543L202.183 170.577L193.472 167.635L189.696 177.892L198.396 180.834L195.063 189.878L205.407 193.369L208.75 184.335L217.45 187.278L221.237 177.021Z" stroke="#7860A0" stroke-linecap="round" stroke-linejoin="round"/>
<path d="M440.926 284.993L432.768 289.127L428.082 280.652L418.377 285.563L423.062 294.038L414.904 298.171L420.216 307.785L428.375 303.652L433.06 312.116L442.765 307.205L438.08 298.731L446.238 294.597L440.926 284.993Z" stroke="#7860A0" stroke-linecap="round" stroke-linejoin="round"/>
<path d="M92.5435 298.979C96.2006 298.979 99.1653 296.141 99.1653 292.639C99.1653 289.137 96.2006 286.299 92.5435 286.299C88.8863 286.299 85.9216 289.137 85.9216 292.639C85.9216 296.141 88.8863 298.979 92.5435 298.979Z" stroke="#7860A0" stroke-linecap="round" stroke-linejoin="round"/>
<path d="M195.69 207.873C195.69 208.205 195.588 208.53 195.395 208.806C195.202 209.082 194.929 209.297 194.608 209.424C194.288 209.551 193.936 209.584 193.596 209.519C193.256 209.455 192.943 209.295 192.698 209.06C192.453 208.825 192.286 208.526 192.218 208.201C192.151 207.875 192.186 207.538 192.318 207.231C192.451 206.924 192.676 206.662 192.964 206.478C193.252 206.294 193.591 206.195 193.938 206.195C194.403 206.195 194.848 206.372 195.177 206.687C195.506 207.001 195.69 207.428 195.69 207.873Z" stroke="#7860A0" stroke-linecap="round" stroke-linejoin="round"/>
<path d="M115.482 179.083C115.482 180.255 115.119 181.401 114.439 182.375C113.759 183.35 112.792 184.109 111.661 184.558C110.53 185.006 109.286 185.124 108.085 184.895C106.885 184.666 105.782 184.102 104.916 183.273C104.051 182.444 103.461 181.389 103.223 180.239C102.984 179.09 103.106 177.898 103.575 176.815C104.043 175.732 104.837 174.807 105.854 174.156C106.872 173.505 108.069 173.157 109.293 173.157C110.933 173.16 112.506 173.785 113.666 174.896C114.826 176.006 115.479 177.512 115.482 179.083Z" stroke="#7860A0" stroke-linecap="round" stroke-linejoin="round"/>
<path d="M388.178 259.352C388.178 260.016 387.973 260.665 387.588 261.217C387.202 261.769 386.655 262.199 386.014 262.453C385.374 262.707 384.669 262.774 383.989 262.644C383.309 262.515 382.684 262.195 382.194 261.726C381.704 261.256 381.37 260.658 381.234 260.007C381.099 259.356 381.169 258.681 381.434 258.068C381.699 257.454 382.149 256.93 382.725 256.561C383.302 256.192 383.979 255.996 384.673 255.996C385.602 255.996 386.494 256.349 387.152 256.979C387.809 257.608 388.178 258.462 388.178 259.352Z" stroke="#7860A0" stroke-linecap="round" stroke-linejoin="round"/>
<path d="M352.743 157.047C357.075 157.047 360.587 153.684 360.587 149.536C360.587 145.388 357.075 142.025 352.743 142.025C348.41 142.025 344.898 145.388 344.898 149.536C344.898 153.684 348.41 157.047 352.743 157.047Z" stroke="#7860A0" stroke-linecap="round" stroke-linejoin="round"/>
<path d="M304.442 217.052C304.853 217.643 317.264 220.015 323.702 228.977C327.448 234.125 330.59 239.653 333.072 245.459C333.072 245.459 343.838 251.593 349.356 256.648C354.874 261.704 361.453 268.417 366.527 271.94C371.602 275.462 382.043 282.144 384.673 289.966C384.673 289.966 369.016 331.023 364.591 340.098C360.165 349.173 349.248 368.433 349.248 368.433L329.772 447.656H216.8L212.948 420.481C212.948 420.481 178.324 413.975 163.858 401.833C163.858 401.833 162.495 371.789 168.543 344.988C174.592 318.187 195.16 262.46 209.096 245.439C209.096 245.439 231.353 235.245 250.992 231.971C250.992 231.971 263.738 222.326 272.08 221.3C280.422 220.274 304.442 217.052 304.442 217.052Z" fill="white"/>
<path d="M214.474 432.727C224.504 434.561 233.247 436.146 243.461 436.032C253.675 435.918 264.105 433.721 272.458 428.117C274.072 426.831 275.901 425.815 277.868 425.112C282.305 423.921 286.697 426.728 291.101 428.034C296.684 429.691 302.808 428.904 308.283 426.915C313.758 424.926 318.681 421.828 323.561 418.741C322.84 428.272 322.605 437.82 322.858 447.386L329.815 447.656L347.636 372.577C347.636 372.577 317.156 406.475 302.3 416.596L273.8 409.572C273.8 409.572 271.117 411.706 265.469 412.784C265.469 412.784 262.883 422.305 248.341 422.325C233.799 422.346 212.948 420.481 212.948 420.481L214.474 432.727Z" fill="#7860A0"/>
<path opacity="0.5" d="M214.474 432.727C224.504 434.561 233.247 436.146 243.461 436.032C253.675 435.918 264.105 433.721 272.458 428.117C274.072 426.831 275.901 425.815 277.868 425.112C282.305 423.921 286.697 426.728 291.101 428.034C296.684 429.691 302.808 428.904 308.283 426.915C313.758 424.926 318.681 421.828 323.561 418.741C322.84 428.272 322.605 437.82 322.858 447.386L329.815 447.656L347.636 372.577C347.636 372.577 317.156 406.475 302.3 416.596L273.8 409.572C273.8 409.572 271.117 411.706 265.469 412.784C265.469 412.784 262.883 422.305 248.341 422.325C233.799 422.346 212.948 420.481 212.948 420.481L214.474 432.727Z" fill="white"/>
<path d="M185.271 292.639C185.271 292.639 172.038 354.146 172.709 375.27C172.709 375.27 190.692 370.443 203.243 375.27C203.243 375.27 181.884 372.991 172.687 382.367C163.49 391.743 191.795 416.379 248.427 411.375C248.427 411.375 259.723 414.763 265.458 412.773C265.458 412.773 263.921 422.574 248.33 422.315C232.803 421.725 187.381 421.362 163.847 401.844C163.858 401.854 160.893 345.309 185.271 292.639Z" fill="#7860A0"/>
<path opacity="0.6" d="M185.271 292.639C185.271 292.639 172.038 354.146 172.709 375.27C172.709 375.27 190.692 370.443 203.243 375.27C203.243 375.27 181.884 372.991 172.687 382.367C163.49 391.743 191.795 416.379 248.427 411.375C248.427 411.375 259.723 414.763 265.458 412.773C265.458 412.773 263.921 422.574 248.33 422.315C232.803 421.725 187.381 421.362 163.847 401.844C163.858 401.854 160.893 345.309 185.271 292.639Z" fill="white"/>
<path d="M212.332 304.429C212.332 304.429 216.238 331.665 222.546 337.363C228.854 343.061 258.252 341.196 269.894 347.34C269.894 347.34 280.855 329.158 300.677 317.783L273.8 358.301L250.57 353.048L222.21 348.904L219.83 354.146H215.567C215.567 354.146 215.091 325.076 212.332 304.429Z" fill="#7860A0"/>
<path opacity="0.5" d="M212.332 304.429C212.332 304.429 216.238 331.665 222.546 337.363C228.854 343.061 258.252 341.196 269.894 347.34C269.894 347.34 280.855 329.158 300.677 317.783L273.8 358.301L250.57 353.048L222.21 348.904L219.83 354.146H215.567C215.567 354.146 215.091 325.076 212.332 304.429Z" fill="white"/>
<path d="M323.442 248.951C335.593 255.799 336.956 263.517 339.456 269.028C333.137 270.23 326.602 271.515 321.386 275.131C314.894 279.647 311.378 287.127 308.651 294.39C306.072 301.262 303.904 308.27 302.159 315.379C308.032 305.221 316.38 296.57 326.493 290.163C332.325 286.475 339.532 283.501 346.186 285.584C340.603 287.853 334.284 290.919 333.104 296.617C332.873 297.563 332.914 298.551 333.224 299.477C334.219 302.16 337.703 302.885 340.343 304.19C345.493 306.728 348.177 312.478 348.404 318.052C348.631 323.626 346.846 329.013 345.082 334.286C343.531 338.907 341.98 343.527 340.43 348.148C338.45 354.053 336.437 360.041 332.856 365.221C329.274 370.401 323.897 374.742 317.502 375.757C314.829 376.251 312.061 375.951 309.571 374.897C307.683 373.915 305.928 372.714 304.345 371.323C296.673 365.391 287.454 361.579 277.684 360.3C290.257 368.257 296.208 382.709 301.424 396.249C299.029 392.236 295.578 388.892 291.415 386.552C290.348 385.841 289.08 385.458 287.78 385.454C284.36 385.713 283.278 389.888 281.223 392.499C278.756 395.607 274.244 396.715 270.197 396.218C266.15 395.721 262.428 393.908 258.793 392.074L212.797 369.365L209.551 378.689C209.551 378.689 246.187 406.661 302.322 416.555C302.322 416.555 338.785 388.966 351.704 364.506C364.623 340.046 384.694 289.914 384.694 289.914C384.694 289.914 377.347 276.591 364.753 269.64C364.753 269.64 355.35 265.382 353.37 260.119C351.39 254.856 333.721 245.77 333.721 245.77C333.721 245.77 336.015 251.385 323.442 248.951Z" fill="#7860A0"/>
<path opacity="0.6" d="M323.442 248.951C335.593 255.799 336.956 263.517 339.456 269.028C333.137 270.23 326.602 271.515 321.386 275.131C314.894 279.647 311.378 287.127 308.651 294.39C306.072 301.262 303.904 308.27 302.159 315.379C308.032 305.221 316.38 296.57 326.493 290.163C332.325 286.475 339.532 283.501 346.186 285.584C340.603 287.853 334.284 290.919 333.104 296.617C332.873 297.563 332.914 298.551 333.224 299.477C334.219 302.16 337.703 302.885 340.343 304.19C345.493 306.728 348.177 312.478 348.404 318.052C348.631 323.626 346.846 329.013 345.082 334.286C343.531 338.907 341.98 343.527 340.43 348.148C338.45 354.053 336.437 360.041 332.856 365.221C329.274 370.401 323.897 374.742 317.502 375.757C314.829 376.251 312.061 375.951 309.571 374.897C307.683 373.915 305.928 372.714 304.345 371.323C296.673 365.391 287.454 361.579 277.684 360.3C290.257 368.257 296.208 382.709 301.424 396.249C299.029 392.236 295.578 388.892 291.415 386.552C290.348 385.841 289.08 385.458 287.78 385.454C284.36 385.713 283.278 389.888 281.223 392.499C278.756 395.607 274.244 396.715 270.197 396.218C266.15 395.721 262.428 393.908 258.793 392.074L212.797 369.365L209.551 378.689C209.551 378.689 246.187 406.661 302.322 416.555C302.322 416.555 338.785 388.966 351.704 364.506C364.623 340.046 384.694 289.914 384.694 289.914C384.694 289.914 377.347 276.591 364.753 269.64C364.753 269.64 355.35 265.382 353.37 260.119C351.39 254.856 333.721 245.77 333.721 245.77C333.721 245.77 336.015 251.385 323.442 248.951Z" fill="white"/>
<path d="M319.579 153.587C319.579 153.587 322.036 126.164 309.69 123.543C297.344 120.922 290.409 110.075 290.409 110.075L246.609 121.782L239.814 146.998L244.142 159.762C244.142 159.762 245.051 171.603 245.224 177.456C245.398 183.31 245.224 187.816 249.855 194.923C254.486 202.03 258.793 209.086 268.801 215.229V231.38C268.801 231.38 262.612 248.671 266.031 259.28C266.031 259.28 268.076 261.352 273.724 258.244C279.372 255.136 303.533 239.679 311.962 223.538L314.581 182.502C314.581 182.502 321.538 183.538 324.535 177.467C328.939 171.531 328.766 164.61 327.056 158.974C325.347 153.338 317.989 156.985 317.989 156.985L319.579 153.587Z" fill="#999999"/>
<path d="M269.277 193.794C270.516 192.503 272.042 191.495 273.743 190.846C275.444 190.197 277.275 189.923 279.102 190.044C279.102 190.044 284.371 182.077 289.922 183.538C289.922 183.538 291.631 191.981 284.977 195.307C276.321 199.627 269.277 193.794 269.277 193.794Z" fill="#737373"/>
<path d="M253.004 118.29C253.004 118.29 242.519 131.479 243.125 145.226C243.731 158.974 245.82 168.723 245.214 179.332C244.608 189.94 256.293 207.708 268.271 214.866C277.219 220.223 288.44 219.311 297.15 213.83C306.888 207.614 312.244 196.446 314.202 185.724C314.397 184.688 314.548 183.652 314.656 182.533" stroke="#263238" stroke-linecap="round" stroke-linejoin="round"/>
<path d="M268.271 214.877C268.271 214.877 269.97 229.733 268.271 234.82C266.399 240.404 264.138 253.406 266.107 259.28C268.076 265.154 304.918 240.466 312.038 223.527C312.038 223.527 313.023 190.614 315.479 182.388" stroke="#263238" stroke-linecap="round" stroke-linejoin="round"/>
<path d="M267.254 193.432C267.254 193.432 284.014 197.969 290.874 181.404" stroke="#263238" stroke-linecap="round" stroke-linejoin="round"/>
<path d="M268.606 218.451C268.606 218.451 272.177 229.049 279.881 229.681C287.585 230.313 306.855 215.529 313.423 198.114V189.401C313.423 189.401 308.013 212.193 292.172 216.337C276.332 220.481 268.92 215.208 268.92 215.208L268.606 218.451Z" fill="#263238"/>
<path d="M289.911 183.538C282.467 183.04 279.091 190.044 279.091 190.044C277.256 189.829 275.395 190.061 273.678 190.716C271.961 191.371 270.444 192.43 269.266 193.794C271.101 195.369 273.355 196.426 275.779 196.847C278.204 197.267 280.702 197.036 282.997 196.177C291.458 193.359 289.911 183.538 289.911 183.538Z" stroke="#263238" stroke-linecap="round" stroke-linejoin="round"/>
<path d="M271.247 152.292C271.339 155.579 271.187 158.868 270.792 162.134C270.392 165.066 268.974 167.873 267.795 170.629C266.713 173.136 264.906 176.99 266.41 179.632C268.12 182.626 273.8 179.632 273.8 179.632" stroke="#263238" stroke-linecap="round" stroke-linejoin="round"/>
<path d="M277.295 179.01C279.21 179.259 281.926 179.01 282.467 175.83" stroke="#263238" stroke-linecap="round" stroke-linejoin="round"/>
<path d="M283.484 148.334C285.336 146.643 287.796 145.7 290.355 145.7C292.913 145.7 295.374 146.643 297.225 148.334" stroke="#263238" stroke-width="2" stroke-linecap="round" stroke-linejoin="round"/>
<path d="M261.649 150.924C261.649 150.924 256.575 144.708 249.931 150.924" stroke="#263238" stroke-width="2" stroke-linecap="round" stroke-linejoin="round"/>
<path d="M310.675 166.641C310.675 166.641 316.463 153.328 324.016 156.187C329.22 158.166 329.534 166.765 326.775 172.763C324.016 178.762 322.631 184.874 313.434 181.455" stroke="#263238" stroke-linecap="round" stroke-linejoin="round"/>
<path d="M311.702 164.6C311.702 164.6 306.141 162.714 305.113 154.064C304.085 145.413 309.625 136.752 307.569 130.536C305.513 124.32 289.316 127.428 285.626 116.591C285.626 116.591 273.465 125.273 249.92 123.408C249.92 123.408 244.954 131.51 244.088 136.462C242.929 144.205 242.958 152.068 244.175 159.803C244.175 160.072 244.272 160.331 244.326 160.601C246.014 169.034 237.607 149.122 237.834 140.616C238.062 132.111 232.706 121.305 239.685 113.256C246.663 105.206 272.253 100.492 277.295 96.7106C282.337 92.9292 292.14 102.999 303.468 106.708C314.797 110.417 324.189 114.841 322.76 130.225C321.332 145.61 322.836 147.671 322.901 155.773C322.901 155.794 317.664 153.908 311.702 164.6Z" fill="#263238"/>
<path d="M290.376 159.544C290.376 161.616 289.543 163.336 288.504 163.336C287.466 163.336 286.643 161.637 286.643 159.544C286.643 157.451 287.477 155.763 288.504 155.763C289.532 155.763 290.376 157.472 290.376 159.544Z" fill="#263238"/>
<path d="M261.649 159.544C261.649 161.616 260.816 163.336 259.788 163.336C258.76 163.336 257.927 161.637 257.927 159.544C257.927 157.451 258.76 155.763 259.788 155.763C260.816 155.763 261.649 157.472 261.649 159.544Z" fill="#263238"/>
<path d="M283.484 164.6C283.484 164.6 287.347 168.526 292.237 169.086" stroke="#263238" stroke-linecap="round" stroke-linejoin="round"/>
<path d="M257.17 169.086C257.17 169.086 264.235 168.609 265.826 164.6" stroke="#263238" stroke-linecap="round" stroke-linejoin="round"/>
<path d="M273.594 261.797C278.853 258.596 285.81 259.798 291.567 262.067C294.726 263.32 297.734 264.895 300.883 266.211C302.439 266.87 304.045 267.417 305.687 267.847C309.636 268.832 308.218 264.139 307.991 262.035C307.667 259.021 307.439 255.996 307.061 253.002C306.905 252.382 306.982 251.729 307.277 251.157C307.665 250.696 308.208 250.378 308.814 250.256C315.749 248.184 323.226 249.096 330.454 249.22C331.11 249.294 331.774 249.175 332.358 248.878C333.44 248.205 333.321 246.682 333.029 245.48C330.529 235.245 321.711 225.061 312.125 219.943" stroke="#263238" stroke-linecap="round" stroke-linejoin="round"/>
<path d="M268.877 221.6C264.105 223.507 259.204 225.485 255.092 228.407C253.601 229.448 252.226 230.636 250.991 231.95C249.997 232.856 249.371 234.072 249.228 235.379C249.254 235.987 249.423 236.582 249.72 237.12C250.018 237.658 250.438 238.125 250.948 238.487C251.674 239.059 252.474 239.54 253.329 239.917C255.319 240.818 257.657 241.699 258.501 243.615C258.705 244.017 258.781 244.468 258.717 244.91C258.609 245.299 258.401 245.656 258.111 245.946C256.466 247.863 253.567 249.344 253.783 251.821C253.924 253.737 255.947 254.929 257.743 255.778C259.539 256.628 261.638 257.508 262.255 259.342" stroke="#263238" stroke-linecap="round" stroke-linejoin="round"/>
<path d="M240.626 124.455C241.329 120.311 245.852 117.638 250.202 116.964C254.551 116.291 259.02 116.964 263.402 116.602C267.067 116.255 270.612 115.159 273.796 113.388C276.981 111.617 279.731 109.212 281.861 106.335" stroke="white" stroke-linecap="round" stroke-linejoin="round"/>
<path d="M245.549 112.81C253.404 108.366 264.441 112.986 272.101 108.241C274.269 106.73 276.156 104.881 277.684 102.771" stroke="white" stroke-linecap="round" stroke-linejoin="round"/>
<path d="M345.753 282.828C317.621 288.205 307.126 308.024 307.126 308.024L273.8 358.28" stroke="#263238" stroke-linecap="round" stroke-linejoin="round"/>
<path d="M321.971 277.399C324.305 275.329 326.949 273.604 329.815 272.281" stroke="#263238" stroke-linecap="round" stroke-linejoin="round"/>
<path d="M302.3 315.338C302.3 315.338 305.849 297.187 316.041 283.812" stroke="#263238" stroke-linecap="round" stroke-linejoin="round"/>
<path d="M215.567 354.063C215.567 354.063 214.106 298.461 209.075 289.966" stroke="#263238" stroke-linecap="round" stroke-linejoin="round"/>
<path d="M333.072 245.459C333.072 245.459 349.302 254.783 356.508 263.548C363.714 272.313 380.745 278.135 384.64 289.966C384.64 289.966 362.21 357.638 338.709 382.098C315.208 406.558 302.267 416.596 302.267 416.596C302.267 416.596 245.733 407.189 209.064 377.705L222.178 348.852C222.178 348.852 259.15 353.328 273.768 358.301C288.385 363.273 302.267 393.39 302.267 393.39" stroke="#263238" stroke-linecap="round" stroke-linejoin="round"/>
<path d="M273.8 358.301C273.8 358.301 299.681 363.118 308.089 374.4" stroke="#263238" stroke-linecap="round" stroke-linejoin="round"/>
<path d="M348.274 369.904L329.815 447.656H216.8L212.948 420.481" stroke="#263238" stroke-linecap="round" stroke-linejoin="round"/>
<path d="M265.469 412.784C259.226 425.029 250.991 422.325 250.991 422.325C187.316 424.636 163.858 401.854 163.858 401.854C163.858 401.854 160.612 369.811 173.131 326.568C185.65 283.325 209.096 245.459 209.096 245.459C219.494 238.839 242.693 233.67 249.239 232.302L250.991 231.95" stroke="#263238" stroke-linecap="round" stroke-linejoin="round"/>
<path d="M251.024 422.325C251.024 422.325 247.659 421.797 248.514 400.435" stroke="#263238" stroke-linecap="round" stroke-linejoin="round"/>
<path d="M210.817 379.072C210.817 379.072 194.911 373.706 175.208 386.76" stroke="#263238" stroke-linecap="round" stroke-linejoin="round"/>
<path d="M178.779 374.4C178.779 374.4 199.618 368.464 209.075 377.974" stroke="#263238" stroke-linecap="round" stroke-linejoin="round"/>
<path d="M206.824 377.436L209.529 378.731L219.83 354.094C219.83 354.094 209.161 352.426 192.26 372.577C197.538 372.636 202.651 374.341 206.824 377.436Z" fill="#999999" stroke="#263238" stroke-miterlimit="10"/>
<path d="M248.481 400.435V411.385C248.481 411.385 263.056 415.529 273.843 409.572L248.481 400.435Z" fill="#999999" stroke="#263238" stroke-miterlimit="10"/>
<path d="M327.478 249.106C327.489 249.308 327.467 249.511 327.413 249.707C326.959 251.416 315.847 291.582 280.281 309.453C279.972 309.612 279.626 309.694 279.275 309.691C278.791 309.691 278.322 309.536 277.941 309.25C277.561 308.965 277.291 308.565 277.175 308.116C277.059 307.666 277.104 307.193 277.302 306.77C277.501 306.348 277.841 306.001 278.269 305.786C310.729 289.489 322.166 252.349 323.161 248.93L327.478 249.106Z" fill="#263238"/>
<path d="M250.948 238.456C245.326 250.752 242.292 263.989 242.022 277.41C242.022 278.497 242.022 279.606 242.022 280.735C242.022 281.015 242.022 281.295 242.022 281.574C241.699 281.585 241.377 281.616 241.059 281.668C239.888 281.845 238.753 282.194 237.694 282.704C237.694 281.181 237.694 279.699 237.694 278.238C238.159 254.991 245.408 239.171 249.271 232.333L251.024 231.981C250.029 232.887 249.404 234.103 249.26 235.41C249.293 236.005 249.46 236.586 249.752 237.112C250.043 237.638 250.452 238.097 250.948 238.456Z" fill="#263238"/>
<path d="M293.557 300.108C296.089 303.475 294.012 309.07 288.905 312.603C283.798 316.135 277.609 316.26 275.066 312.893C272.523 309.526 274.601 303.931 279.708 300.399C284.815 296.866 291.058 296.741 293.557 300.108Z" fill="white" stroke="#263238" stroke-linecap="round" stroke-linejoin="round"/>
<path d="M287.26 298.109C289.056 300.492 287.585 304.449 284.014 306.946C280.444 309.443 276.018 309.536 274.276 307.153C272.534 304.77 273.952 300.813 277.522 298.316C281.093 295.819 285.464 295.737 287.26 298.109Z" fill="white" stroke="#263238" stroke-linecap="round" stroke-linejoin="round"/>
<path d="M258.663 340.16C258.202 340.454 257.641 340.567 257.096 340.476C256.551 340.386 256.062 340.099 255.731 339.675C255.4 339.25 255.251 338.72 255.315 338.194C255.38 337.668 255.652 337.185 256.077 336.845C256.261 336.7 263.521 330.784 260.34 310.862C260.069 309.173 259.723 307.371 259.258 305.475C257.884 299.435 255.763 291.789 251.424 286.174C250.392 284.693 248.979 283.492 247.32 282.686C245.662 281.88 243.815 281.498 241.957 281.574C241.634 281.585 241.312 281.616 240.994 281.668C239.823 281.845 238.688 282.194 237.629 282.704C234.396 284.302 231.943 287.045 230.791 290.349L230.401 291.385C227.947 297.738 225.941 304.242 224.396 310.852C222.665 318.984 222.08 327.511 225.153 333.468C225.977 335.102 227.15 336.553 228.596 337.725C230.042 338.898 231.73 339.766 233.55 340.274C234.038 340.428 234.454 340.743 234.721 341.163C234.989 341.584 235.092 342.082 235.011 342.568C234.93 343.054 234.671 343.497 234.281 343.817C233.89 344.137 233.393 344.313 232.879 344.315C232.651 344.314 232.424 344.279 232.208 344.211C229.842 343.531 227.649 342.388 225.768 340.854C223.886 339.32 222.358 337.43 221.28 335.301C217.817 328.598 218.272 319.471 220.025 310.852C221.579 303.763 223.684 296.796 226.322 290.007L226.711 288.971C227.562 286.506 228.987 284.257 230.878 282.396C232.769 280.535 235.078 279.11 237.629 278.228C238.512 277.935 239.421 277.72 240.345 277.586C240.896 277.513 241.427 277.461 241.989 277.43C244.522 277.364 247.032 277.906 249.289 279.009C251.546 280.111 253.478 281.737 254.908 283.74C259.734 289.956 262.028 298.171 263.489 304.615C263.997 306.832 264.387 308.914 264.679 310.883C268.098 333.219 259.085 339.87 258.663 340.16Z" fill="#263238" stroke="#263238" stroke-miterlimit="10"/>
<path d="M231.364 343.952C231.364 343.952 239.209 347.06 241.199 343.952C243.19 340.844 241.578 339.383 238.862 339.135C236.155 339.002 233.443 339.002 230.736 339.135L231.364 343.952Z" fill="#263238" stroke="#263238" stroke-miterlimit="10"/>
<path d="M234.967 342.916C234.826 343.331 234.551 343.693 234.181 343.95C233.812 344.207 233.368 344.345 232.911 344.346C232.683 344.345 232.457 344.31 232.24 344.242C229.874 343.562 227.681 342.419 225.8 340.885C223.919 339.352 222.391 337.461 221.312 335.332C217.85 328.63 218.304 319.502 220.057 310.883H224.385C222.654 319.015 222.07 327.542 225.143 333.499C225.966 335.133 227.139 336.584 228.585 337.756C230.032 338.929 231.719 339.797 233.539 340.305C233.813 340.386 234.067 340.517 234.287 340.692C234.508 340.867 234.689 341.082 234.822 341.325C234.955 341.568 235.036 341.834 235.061 342.107C235.086 342.38 235.054 342.655 234.967 342.916Z" fill="white" stroke="#263238" stroke-linecap="round" stroke-linejoin="round"/>
<path d="M251.435 337.912C251.109 338.283 250.868 338.715 250.728 339.181C250.589 339.647 250.553 340.136 250.624 340.616C250.84 341.326 251.309 341.94 251.949 342.353C252.59 342.766 253.361 342.95 254.129 342.875C255.666 342.679 257.071 341.94 258.068 340.803C259.15 339.642 262.904 332.048 259.431 333.354C256.91 334.265 253.123 335.809 251.435 337.912Z" fill="#263238" stroke="#263238" stroke-miterlimit="10"/>
<path d="M258.663 340.16C258.202 340.454 257.641 340.567 257.096 340.476C256.551 340.386 256.062 340.099 255.731 339.675C255.4 339.25 255.251 338.72 255.315 338.194C255.38 337.668 255.652 337.185 256.077 336.845C256.261 336.7 263.521 330.784 260.34 310.862H264.668C268.098 333.219 259.085 339.87 258.663 340.16Z" fill="white" stroke="#263238" stroke-linecap="round" stroke-linejoin="round"/>
<path opacity="0.2" d="M278.074 157.047C278.074 157.047 291.696 150.272 304.215 157.047C304.215 157.047 304.421 167.045 299.692 171.158C298.015 172.618 290.333 172.867 287.422 172.618C275.607 171.593 278.074 157.047 278.074 157.047Z" fill="white"/>
<path opacity="0.2" d="M269.526 157.047C269.526 157.047 255.904 150.272 243.396 157.047C243.396 157.047 243.19 167.045 247.908 171.158C249.585 172.618 257.278 172.867 260.178 172.618C271.993 171.593 269.526 157.047 269.526 157.047Z" fill="white"/>
<path d="M278.074 157.047C278.074 157.047 291.696 150.272 304.215 157.047C304.215 157.047 304.421 167.045 299.692 171.158C298.015 172.618 290.333 172.867 287.422 172.618C275.607 171.593 278.074 157.047 278.074 157.047Z" stroke="#263238" stroke-miterlimit="10"/>
<path d="M269.526 157.047C269.526 157.047 255.904 150.272 243.396 157.047C243.396 157.047 243.19 167.045 247.908 171.158C249.585 172.618 257.278 172.867 260.178 172.618C271.993 171.593 269.526 157.047 269.526 157.047Z" stroke="#263238" stroke-miterlimit="10"/>
<path d="M269.526 157.047C269.526 157.047 272.577 154.903 278.074 157.047" stroke="#263238" stroke-miterlimit="10"/>
<path d="M304.215 157.047L309.906 159.575" stroke="#263238" stroke-miterlimit="10"/>
<path d="M156.075 159.02C168.797 146.838 168.797 127.087 156.075 114.905C143.352 102.723 122.724 102.723 110.001 114.905C97.2779 127.087 97.2779 146.838 110.001 159.02C122.724 171.202 143.352 171.202 156.075 159.02Z" fill="white" stroke="#263238" stroke-linecap="round" stroke-linejoin="round"/>
<path d="M160.136 132.183C160.136 134.271 159.452 136.307 158.181 138.003C156.909 139.7 155.115 140.973 153.049 141.642L138.496 146.335L120.784 152.064C118.174 152.885 115.332 152.686 112.876 151.509C110.419 150.333 108.548 148.274 107.67 145.782C106.792 143.29 106.978 140.567 108.188 138.206C109.398 135.845 111.534 134.038 114.129 133.178L130.219 127.998L146.384 122.818C147.948 122.314 149.614 122.173 151.246 122.407C152.878 122.64 154.428 123.242 155.77 124.161C157.112 125.081 158.206 126.292 158.963 127.696C159.721 129.099 160.119 130.655 160.125 132.235L160.136 132.183Z" fill="white"/>
<path d="M160.136 132.183C160.136 134.271 159.452 136.307 158.181 138.003C156.909 139.7 155.115 140.973 153.049 141.642L138.496 146.335C138.108 139.47 135.173 132.964 130.219 127.987L146.384 122.807C147.948 122.304 149.614 122.163 151.246 122.396C152.878 122.63 154.428 123.231 155.77 124.151C157.112 125.07 158.206 126.282 158.963 127.685C159.72 129.089 160.119 130.645 160.125 132.225L160.136 132.183Z" fill="#7860A0"/>
<path d="M160.136 132.183C160.136 134.271 159.452 136.307 158.181 138.003C156.909 139.7 155.115 140.973 153.049 141.642L138.496 146.335L120.784 152.064C118.174 152.885 115.332 152.686 112.876 151.509C110.419 150.333 108.548 148.274 107.67 145.782C106.792 143.29 106.978 140.567 108.188 138.206C109.398 135.845 111.534 134.038 114.129 133.178L130.219 127.998L146.384 122.818C147.948 122.314 149.614 122.173 151.246 122.407C152.878 122.64 154.428 123.242 155.77 124.161C157.112 125.081 158.206 126.292 158.963 127.696C159.721 129.099 160.119 130.655 160.125 132.235L160.136 132.183Z" stroke="#263238" stroke-linecap="round" stroke-linejoin="round"/>
<path d="M138.496 146.335C138.165 139.458 135.221 132.933 130.219 127.987" stroke="#263238" stroke-linecap="round" stroke-linejoin="round"/>
<path d="M156.652 128.464C157.335 129.566 157.68 130.83 157.647 132.111" stroke="white" stroke-linecap="round" stroke-linejoin="round"/>
<path d="M134.33 129.5L147.314 125.356C148.479 124.974 149.717 124.843 150.941 124.974C152.165 125.105 153.343 125.493 154.39 126.112" stroke="white" stroke-linecap="round" stroke-linejoin="round"/>
<path d="M354.401 94.6445C370.971 87.9296 378.718 69.6246 371.705 53.7592C364.692 37.8937 345.575 30.4757 329.005 37.1906C312.435 43.9055 304.687 62.2105 311.7 78.0759C318.713 93.9414 337.831 101.359 354.401 94.6445Z" fill="white" stroke="#263238" stroke-linecap="round" stroke-linejoin="round"/>
<path d="M352.938 78.9743L324.524 69.8678C322.162 69.1073 320.211 67.4798 319.101 65.3429C317.991 63.2059 317.813 60.7345 318.606 58.4718C319.4 56.2097 321.1 54.342 323.332 53.2794C325.563 52.2168 328.145 52.0461 330.508 52.8049L358.921 61.901C361.282 62.6638 363.231 64.2917 364.34 66.4278C365.449 68.564 365.629 71.0342 364.84 73.297C364.045 75.5594 362.346 77.4276 360.115 78.492C357.883 79.5563 355.302 79.7297 352.938 78.9743Z" fill="#7860A0"/>
<path d="M332.12 69.1426L336.881 58.2543" stroke="#263238" stroke-linecap="round" stroke-linejoin="round"/>
<path d="M347.776 74.1258L352.515 63.2685" stroke="#263238" stroke-linecap="round" stroke-linejoin="round"/>
<path d="M336.047 69.7849C336.579 69.7849 337.01 69.3721 337.01 68.8629C337.01 68.3537 336.579 67.9409 336.047 67.9409C335.516 67.9409 335.084 68.3537 335.084 68.8629C335.084 69.3721 335.516 69.7849 336.047 69.7849Z" fill="#263238"/>
<path d="M345.515 71.5772C345.515 71.7596 345.458 71.9378 345.353 72.0895C345.247 72.2411 345.096 72.3593 344.92 72.4291C344.745 72.4988 344.551 72.5171 344.364 72.4815C344.177 72.4459 344.006 72.3581 343.871 72.2292C343.736 72.1002 343.645 71.9359 343.607 71.7571C343.57 71.5782 343.589 71.3928 343.662 71.2243C343.735 71.0559 343.859 70.9119 344.017 70.8105C344.175 70.7092 344.362 70.6552 344.552 70.6552C344.807 70.6552 345.052 70.7523 345.233 70.9252C345.414 71.0981 345.515 71.3327 345.515 71.5772Z" fill="#263238"/>
<path d="M339.78 61.5798C340.312 61.5798 340.743 61.167 340.743 60.6578C340.743 60.1485 340.312 59.7357 339.78 59.7357C339.249 59.7357 338.817 60.1485 338.817 60.6578C338.817 61.167 339.249 61.5798 339.78 61.5798Z" fill="#263238"/>
<path d="M349.107 63.2892C349.107 63.4716 349.051 63.6499 348.945 63.8015C348.839 63.9531 348.689 64.0713 348.513 64.1411C348.337 64.2109 348.143 64.2291 347.956 64.1935C347.77 64.158 347.598 64.0702 347.463 63.9412C347.329 63.8123 347.237 63.648 347.2 63.4691C347.163 63.2902 347.182 63.1049 347.255 62.9364C347.327 62.7679 347.451 62.6239 347.609 62.5226C347.768 62.4213 347.954 62.3672 348.144 62.3672C348.4 62.3672 348.645 62.4643 348.825 62.6372C349.006 62.8102 349.107 63.0447 349.107 63.2892Z" fill="#263238"/>
<path d="M352.938 78.9743L324.524 69.8678C322.162 69.1073 320.211 67.4798 319.101 65.3429C317.991 63.2059 317.813 60.7345 318.606 58.4718C319.4 56.2097 321.1 54.342 323.332 53.2794C325.563 52.2168 328.145 52.0461 330.508 52.8049L358.921 61.901C361.282 62.6638 363.231 64.2917 364.34 66.4278C365.449 68.564 365.629 71.0342 364.84 73.297C364.045 75.5594 362.346 77.4276 360.115 78.492C357.883 79.5563 355.302 79.7297 352.938 78.9743Z" stroke="#263238" stroke-linecap="round" stroke-linejoin="round"/>
<path d="M218.715 95.4156C236.708 95.4156 251.295 81.4496 251.295 64.2216C251.295 46.9937 236.708 33.0276 218.715 33.0276C200.723 33.0276 186.136 46.9937 186.136 64.2216C186.136 81.4496 200.723 95.4156 218.715 95.4156Z" fill="white" stroke="#263238" stroke-linecap="round" stroke-linejoin="round"/>
<path d="M237.38 65.0194V77.8036C237.38 81.0463 235.216 83.6777 232.565 83.6777H204.866C202.204 83.6777 200.051 81.0463 200.051 77.8036V65.0194C200.051 61.7767 202.215 59.1452 204.866 59.1452H209.421V51.7275H227.815V59.1452H232.533C235.216 59.1452 237.38 61.7767 237.38 65.0194Z" fill="white" stroke="#263238" stroke-linecap="round" stroke-linejoin="round"/>
<path d="M237.369 66.4905H200.051V74.4159H237.369V66.4905Z" fill="#7860A0" stroke="#263238" stroke-miterlimit="10"/>
<path d="M211.964 43.0458H225.64C227.184 43.0458 228.665 43.633 229.756 44.6783C230.848 45.7235 231.461 47.1412 231.461 48.6195V54.4107H206.132V48.6195C206.132 47.8866 206.283 47.161 206.576 46.4841C206.869 45.8072 207.299 45.1923 207.841 44.6746C208.382 44.1569 209.025 43.7466 209.733 43.4671C210.44 43.1876 211.198 43.0444 211.964 43.0458Z" fill="#7860A0" stroke="#263238" stroke-miterlimit="10"/>
<path d="M210.557 43.398V54.4107" stroke="#263238" stroke-linecap="round" stroke-linejoin="round"/>
<path d="M216.541 43.0458V54.4107" stroke="#263238" stroke-linecap="round" stroke-linejoin="round"/>
<path d="M222.524 43.0458V54.4107" stroke="#263238" stroke-linecap="round" stroke-linejoin="round"/>
<path d="M228.508 43.6881V54.4107" stroke="#263238" stroke-linecap="round" stroke-linejoin="round"/>
<path d="M135.248 234.753C138.159 217.752 126.125 201.71 108.369 198.923C90.613 196.136 73.8593 207.659 70.9485 224.66C68.0377 241.661 80.072 257.702 97.8279 260.489C115.584 263.276 132.337 251.754 135.248 234.753Z" fill="white" stroke="#263238" stroke-linecap="round" stroke-linejoin="round"/>
<path d="M119.625 237.753C123.173 230.569 118.294 221.233 108.727 216.901C99.16 212.569 88.5277 214.881 84.9792 222.066C81.4307 229.25 86.3098 238.586 95.8769 242.918C105.444 247.25 116.076 244.938 119.625 237.753Z" fill="#7860A0" stroke="#263238" stroke-linecap="round" stroke-linejoin="round"/>
<path d="M120.808 235.31C124.137 228.57 119.08 219.595 109.512 215.263C99.9453 210.931 89.4911 212.882 86.1623 219.622C82.8335 226.362 87.8907 235.337 97.4578 239.669C107.025 244.001 117.479 242.049 120.808 235.31Z" fill="#7860A0" stroke="#263238" stroke-linecap="round" stroke-linejoin="round"/>
<path d="M109.011 218.244L97.1852 234.167" stroke="#263238" stroke-linecap="round" stroke-linejoin="round"/>
<path d="M101.892 215.664C103.477 215.869 105.038 216.216 106.555 216.7" stroke="white" stroke-linecap="round" stroke-linejoin="round"/>
<path d="M91.3857 230.655C91.3857 230.655 85.3481 224.325 91.245 218.223C92.6058 216.895 94.378 216.023 96.298 215.737" stroke="white" stroke-linecap="round" stroke-linejoin="round"/>
<path d="M478.42 234.771C481.331 217.77 469.296 201.728 451.54 198.941C433.784 196.154 417.031 207.677 414.12 224.678C411.209 241.679 423.243 257.72 440.999 260.507C458.755 263.294 475.509 251.772 478.42 234.771Z" fill="white" stroke="#263238" stroke-linecap="round" stroke-linejoin="round"/>
<path d="M464.968 232.851C464.719 233.193 464.47 233.545 464.21 233.887C459.331 240.362 451.811 246.402 446.238 247.594V247.511C440.828 246.35 433.546 240.601 428.667 234.322C428.396 233.981 428.136 233.628 427.888 233.286C423.192 226.843 421.212 220.077 426.438 217.28C437.063 211.603 446.238 223.776 446.238 223.776C446.238 223.776 455.435 211.696 466.039 217.363C471.124 220.077 469.382 226.563 464.968 232.851Z" fill="#7860A0" stroke="#263238" stroke-miterlimit="10"/>
<path d="M464.968 232.851C464.719 233.193 464.47 233.545 464.21 233.887H461.527L458.454 237.772L456.366 226.252L453.12 234.084H445.449L441.521 240.352L438.491 227.661L434.585 234.281H428.667C428.396 233.939 428.137 233.587 427.888 233.245H433.958L438.924 224.822L441.975 237.617L444.864 233.007H452.438L456.766 222.398L459.082 235.203L460.975 232.81L464.968 232.851Z" fill="white"/>
<path d="M414.904 168.505C432.897 168.505 447.483 154.539 447.483 137.311C447.483 120.083 432.897 106.117 414.904 106.117C396.911 106.117 382.325 120.083 382.325 137.311C382.325 154.539 396.911 168.505 414.904 168.505Z" fill="white" stroke="#263238" stroke-linecap="round" stroke-linejoin="round"/>
<path d="M412.458 122.89C412.772 123.564 410.814 125.056 408.13 126.226C405.447 127.397 402.937 127.801 402.623 127.117C402.309 126.433 404.257 124.952 406.951 123.781C409.645 122.611 412.134 122.248 412.458 122.89Z" fill="white" stroke="#263238" stroke-linecap="round" stroke-linejoin="round"/>
<path d="M427.119 151.826L417.371 156.343L408.628 139.104L402.59 127.19L412.339 122.662L418.225 134.286L427.119 151.826Z" fill="white" stroke="#263238" stroke-linecap="round" stroke-linejoin="round"/>
<path d="M404.397 130.743L408.628 128.868Z" fill="#7860A0"/>
<path d="M404.397 130.743L408.628 128.868" stroke="#263238" stroke-linecap="round" stroke-linejoin="round"/>
<path d="M406.237 134.493L410.467 132.618Z" fill="#7860A0"/>
<path d="M406.237 134.493L410.467 132.618" stroke="#263238" stroke-linecap="round" stroke-linejoin="round"/>
<path d="M421.104 154.613L426.135 160.932L423.625 153.442L421.104 154.613Z" fill="white" stroke="#263238" stroke-linecap="round" stroke-linejoin="round"/>
<path d="M427.119 151.826C424.837 154.014 421.925 155.5 418.756 156.094L417.371 156.343L408.628 139.104L418.225 134.286L427.119 151.826Z" fill="#7860A0" stroke="#263238" stroke-miterlimit="10"/>
<path d="M410.467 142.377L414.449 140.616" stroke="#263238" stroke-linecap="round" stroke-linejoin="round"/>
<path d="M412.653 146.387L416.559 144.677Z" fill="#7860A0"/>
<path d="M412.653 146.387L416.559 144.677" stroke="#263238" stroke-linecap="round" stroke-linejoin="round"/>
<path d="M405.966 125.615L402.883 118.974L405.306 117.659L408.628 124.382L405.966 125.615Z" fill="white" stroke="#263238" stroke-linecap="round" stroke-linejoin="round"/>
<path d="M411.257 116.85L410.522 115.296L397.538 120.86L398.273 122.414C398.576 123.077 401.725 122.352 405.317 120.818C408.909 119.285 411.56 117.503 411.257 116.85Z" fill="white" stroke="#263238" stroke-linecap="round" stroke-linejoin="round"/>
<path d="M410.522 115.296C410.219 114.644 407.059 115.359 403.478 116.892C399.896 118.425 397.235 120.207 397.538 120.86C397.84 121.512 401 120.798 404.581 119.254C408.163 117.71 410.824 115.949 410.522 115.296Z" fill="white" stroke="#263238" stroke-linecap="round" stroke-linejoin="round"/>
</svg>
