<svg width="618" height="435" viewBox="0 0 618 435" fill="none" xmlns="http://www.w3.org/2000/svg">
<path d="M338.466 48.3285C338.461 48.4603 338.444 48.5913 338.417 48.72C338.376 48.9723 338.293 49.3464 338.227 49.8423C338.003 51.2813 337.871 52.7346 337.832 54.1923C337.766 56.5034 337.949 58.8149 338.376 61.0827C338.955 64.0808 339.99 66.9601 341.441 69.6087C343.288 72.7677 345.313 75.8066 347.506 78.7089C350.013 82.0901 352.063 85.8234 353.595 89.8014C355.251 94.2189 356.197 98.8969 356.396 103.643C356.818 113.953 353.348 124.019 346.747 131.631C343.726 135.152 340.088 138.023 336.035 140.087C332.187 142.088 328.356 143.567 324.977 145.307C321.799 146.891 318.92 149.072 316.482 151.745C312.975 155.668 310.541 160.521 309.437 165.787C309.214 166.709 309.132 167.527 309.008 168.275C308.885 169.024 308.868 169.624 308.843 170.12C308.819 170.616 308.843 170.99 308.786 171.259C308.795 171.39 308.795 171.521 308.786 171.651C308.776 171.521 308.776 171.39 308.786 171.259C308.786 170.981 308.786 170.598 308.786 170.12C308.786 169.641 308.868 168.997 308.918 168.258C308.967 167.518 309.099 166.683 309.305 165.752C309.749 163.471 310.452 161.253 311.398 159.149C312.643 156.354 314.294 153.783 316.292 151.528C318.738 148.808 321.637 146.587 324.846 144.977C328.249 143.15 332.08 141.679 335.895 139.687C339.879 137.65 343.456 134.827 346.434 131.37C352.953 123.829 356.381 113.87 355.968 103.669C355.778 98.97 354.851 94.3366 353.224 89.958C351.709 86.0136 349.688 82.3075 347.217 78.9438C345.028 76.0185 343.008 72.9563 341.169 69.774C339.716 67.0897 338.691 64.1709 338.137 61.1349C337.718 58.8429 337.557 56.5067 337.659 54.1749C337.713 52.7142 337.873 51.26 338.137 49.8249C338.219 49.329 338.31 48.9549 338.367 48.7113L338.466 48.3285Z" fill="#E0E0E0"/>
<path d="M373.124 54.462C372.669 56.4191 372.102 58.3453 371.426 60.2301C370.669 62.4569 369.749 64.6181 368.674 66.6942C367.293 69.487 365.455 71.9995 363.244 74.1153C362.604 74.7062 361.923 75.247 361.209 75.7335C360.467 76.212 359.692 76.6557 358.893 77.0907L353.908 79.7877C350.464 81.6495 346.764 83.5983 342.974 85.8777C339.026 88.2082 335.487 91.2362 332.509 94.83C329.297 98.6984 326.887 103.232 325.431 108.141C324 113.059 323.651 118.257 324.409 123.34C325.096 128.079 326.838 132.579 329.493 136.468C332.039 140.166 335.038 143.211 337.436 146.438C338.623 147.978 339.668 149.632 340.559 151.38C341.359 153.004 342.007 154.705 342.496 156.461C343.317 159.487 343.673 162.633 343.55 165.779C343.456 168.141 343.071 170.481 342.405 172.739C341.992 174.17 341.463 175.562 340.823 176.897C340.6 177.332 340.419 177.671 340.296 177.924C340.172 178.176 340.098 178.263 340.098 178.263C340.098 178.263 340.147 178.133 340.254 177.898C340.361 177.663 340.534 177.297 340.749 176.862C341.348 175.516 341.85 174.122 342.248 172.695C342.881 170.432 343.236 168.093 343.303 165.735C343.399 162.648 343.029 159.564 342.207 156.6C341.714 154.867 341.063 153.189 340.263 151.589C339.377 149.866 338.337 148.238 337.156 146.726C334.766 143.533 331.759 140.505 329.172 136.764C326.471 132.825 324.695 128.266 323.989 123.462C323.22 118.313 323.573 113.047 325.019 108.063C326.496 103.094 328.938 98.5044 332.187 94.5864C335.196 90.9262 338.781 87.8417 342.784 85.4688C346.591 83.2329 350.299 81.3015 353.751 79.4571L358.737 76.7775C359.561 76.3512 360.319 75.9075 361.044 75.4464C361.746 74.9724 362.415 74.4461 363.046 73.8717C365.241 71.7892 367.076 69.3192 368.468 66.5724C369.55 64.5137 370.486 62.3735 371.27 60.1692C371.929 58.3596 372.366 56.9241 372.662 55.9497C372.802 55.4799 372.918 55.0797 372.992 54.8361C373.066 54.5925 373.124 54.462 373.124 54.462Z" fill="#E0E0E0"/>
<path d="M360.088 76.2381C360.088 76.3599 356.083 75.5943 351.205 74.4981C346.327 73.4019 342.388 72.4797 342.413 72.3579C342.438 72.2361 346.41 72.993 351.296 74.0979C356.182 75.2028 360.088 76.1076 360.088 76.2381Z" fill="#E0E0E0"/>
<path d="M366.128 70.2177C366.128 70.3395 359.973 68.5473 352.449 66.2244C344.926 63.9015 338.862 61.8744 338.895 61.7874C338.928 61.7004 345.05 63.4578 352.573 65.7894C360.096 68.121 366.161 70.0959 366.128 70.2177Z" fill="#E0E0E0"/>
<path d="M370.553 62.3268C370.553 62.4399 363.178 60.2214 354.163 57.3591C345.149 54.4968 337.84 52.0782 337.889 51.9564C337.939 51.8346 345.256 54.0618 354.32 56.9241C363.384 59.7864 370.586 62.205 370.553 62.3268Z" fill="#E0E0E0"/>
<path d="M342.463 135.537C342.422 135.659 338.483 134.171 333.662 132.214C328.842 130.256 324.977 128.577 325.019 128.464C325.06 128.351 328.999 129.839 333.819 131.788C338.639 133.736 342.504 135.424 342.463 135.537Z" fill="#E0E0E0"/>
<path d="M350.2 126.15C349.841 126.095 349.488 126.005 349.145 125.88C348.469 125.689 347.497 125.376 346.311 125.01C343.937 124.219 340.674 123.053 337.107 121.643C333.539 120.234 330.341 118.868 328.043 117.833C326.897 117.311 325.974 116.876 325.34 116.563C325.004 116.418 324.681 116.24 324.376 116.032C324.73 116.117 325.075 116.24 325.406 116.397L328.158 117.528C330.473 118.494 333.679 119.816 337.222 121.226C340.765 122.635 344.028 123.836 346.377 124.706L349.162 125.75C349.519 125.849 349.866 125.983 350.2 126.15Z" fill="#E0E0E0"/>
<path d="M354.641 116.032C354.249 115.921 353.868 115.769 353.504 115.58L350.455 114.248C347.885 113.117 344.317 111.586 340.337 110.02C336.357 108.454 332.707 107.149 330.061 106.227L326.922 105.131C326.532 105.016 326.152 104.868 325.785 104.687C326.188 104.738 326.586 104.831 326.971 104.966C327.73 105.174 328.809 105.496 330.152 105.923C332.822 106.793 336.489 108.028 340.485 109.594C344.481 111.16 348.033 112.743 350.579 113.944C351.848 114.544 352.87 115.049 353.57 115.414C353.945 115.583 354.304 115.79 354.641 116.032Z" fill="#E0E0E0"/>
<path d="M354.699 103.365C354.387 103.317 354.082 103.226 353.793 103.095L351.386 102.225C349.351 101.477 346.55 100.485 343.427 99.3801C340.304 98.2752 337.469 97.3965 335.409 96.7701L332.937 95.9784C332.632 95.9001 332.337 95.7863 332.055 95.6391C332.369 95.6559 332.679 95.7144 332.978 95.8131C333.572 95.9436 334.412 96.1698 335.45 96.4569C337.535 97.0398 340.394 97.9011 343.517 98.9799C346.64 100.059 349.442 101.129 351.452 101.955C352.449 102.364 353.257 102.712 353.809 102.964C354.12 103.061 354.418 103.195 354.699 103.365Z" fill="#E0E0E0"/>
<path d="M354.814 93.525C352.217 92.8288 349.657 91.9895 347.143 91.0107C344.584 90.1715 342.07 89.1869 339.612 88.0614C342.208 88.7604 344.768 89.5996 347.283 90.5757C349.841 91.4186 352.355 92.4031 354.814 93.525Z" fill="#E0E0E0"/>
<path d="M341.96 154.643C341.678 154.597 341.401 154.518 341.136 154.408L338.961 153.633L331.808 151.023L324.64 148.483L322.464 147.691C322.191 147.612 321.929 147.498 321.681 147.352C321.962 147.37 322.24 147.428 322.505 147.526C323.033 147.665 323.791 147.883 324.722 148.17C326.584 148.744 329.139 149.588 331.94 150.597C334.742 151.606 337.255 152.581 339.06 153.329C339.966 153.703 340.708 154.016 341.185 154.199C341.464 154.303 341.726 154.453 341.96 154.643Z" fill="#E0E0E0"/>
<path d="M343.451 166.17C343.41 166.283 336.637 163.969 328.323 160.95C320.009 157.931 313.293 155.46 313.334 155.339C313.375 155.217 320.14 157.54 328.463 160.559C336.785 163.577 343.484 166.005 343.451 166.17Z" fill="#E0E0E0"/>
<path d="M343.311 174.67C343.311 174.792 335.714 172.443 326.427 169.45C317.141 166.457 309.626 163.899 309.659 163.777C309.692 163.656 317.256 166.005 326.551 168.997C335.846 171.99 343.352 174.548 343.311 174.67Z" fill="#E0E0E0"/>
<path d="M206.659 102.295C206.659 102.295 206.437 102.295 206.008 102.295L204.113 102.373C202.465 102.425 199.993 102.503 196.829 102.556C195.247 102.556 193.483 102.556 191.555 102.556C190.543 102.569 189.532 102.47 188.539 102.26C187.53 101.831 186.542 101.346 185.581 100.807C184.531 100.318 183.371 100.155 182.236 100.337C181.947 100.381 181.651 100.459 181.362 100.52C181.086 100.614 180.826 100.759 180.596 100.946C180.116 101.353 179.696 101.834 179.352 102.373C177.921 104.766 176.757 107.327 175.883 110.003C174.878 112.795 173.988 115.771 172.925 118.851C172.793 119.233 172.644 119.616 172.488 119.999L172.356 120.286C172.335 120.343 172.304 120.396 172.265 120.443C172.24 120.489 172.204 120.528 172.161 120.555C172.118 120.582 172.069 120.598 172.018 120.599C171.722 120.521 171.763 120.364 171.689 120.269C171.646 120.167 171.61 120.063 171.581 119.956C171.383 119.132 171.237 118.295 171.145 117.45C170.931 115.771 170.766 114.048 170.609 112.3C170.008 105.34 169.53 97.8054 168.887 89.9406C168.549 86.0082 168.244 81.9627 167.593 77.9085C167.503 77.4039 167.412 76.8993 167.28 76.4034C167.222 76.1694 167.142 75.9421 167.041 75.7248C166.926 75.516 166.827 75.4203 166.703 75.4812C166.346 75.7609 166.063 76.1322 165.879 76.56C165.642 77.0118 165.428 77.4764 165.237 77.952C164.446 79.9261 163.75 81.9413 163.152 83.9898C161.941 88.0875 160.87 92.307 159.856 96.6048L159.469 98.223C159.36 98.7823 159.212 99.332 159.024 99.8673C158.79 100.418 158.425 100.895 157.965 101.252C157.504 101.609 156.963 101.833 156.395 101.903C155.291 101.947 154.261 102.007 153.157 101.981C152.063 101.939 150.977 101.77 149.919 101.477C148.577 101.11 147.284 100.566 146.07 99.8586C145.514 99.4785 144.92 99.1635 144.299 98.919C144.023 98.8012 143.721 98.7698 143.429 98.8284C143.137 98.887 142.866 99.0332 142.651 99.2496C142.261 99.7958 141.98 100.42 141.827 101.085C141.621 101.755 141.44 102.434 141.258 103.112C140.912 104.47 140.583 105.835 140.261 107.193C139.602 109.907 138.976 112.587 138.16 115.231C138.128 115.332 138.081 115.426 138.02 115.51C137.969 115.59 137.892 115.647 137.804 115.669C137.715 115.692 137.622 115.678 137.542 115.632C137.379 115.501 137.255 115.323 137.188 115.118C137.057 114.793 136.947 114.459 136.858 114.118C136.685 113.448 136.545 112.787 136.413 112.117C136.15 110.786 135.927 109.455 135.721 108.132C134.897 102.851 134.221 97.6923 133.496 92.6724C133.134 90.1755 132.779 87.7047 132.301 85.3209C132.196 84.7268 132.039 84.1443 131.832 83.5809C131.683 83.0937 131.156 83.6766 130.843 84.1029C130.195 85.0663 129.619 86.0815 129.121 87.1392C127.085 91.3326 125.438 95.5434 123.6 99.4497C123.159 100.431 122.644 101.374 122.059 102.268C121.904 102.53 121.664 102.722 121.383 102.808C121.111 102.866 120.831 102.866 120.559 102.808C120.065 102.624 119.627 102.302 119.29 101.877C118.967 101.521 118.588 101.226 118.17 101.007C117.769 100.788 117.319 100.686 116.868 100.711C115.976 100.933 115.16 101.412 114.511 102.094C114.142 102.432 113.701 102.671 113.226 102.79C112.972 102.836 112.711 102.813 112.468 102.721C112.249 102.614 112.049 102.47 111.874 102.295C111.241 101.621 110.665 100.891 110.152 100.111C109.633 99.3627 109.139 98.6232 108.62 97.9272C108.141 97.2444 107.552 96.6555 106.881 96.1872C106.205 95.7174 105.455 96.309 104.854 96.7614C104.267 97.2624 103.716 97.8091 103.206 98.397C102.217 99.5012 101.287 100.663 100.421 101.877V101.929H100.363L85.3087 101.868H81.3288H80.307C80.1918 101.876 80.0762 101.876 79.9609 101.868H80.307H81.3288H85.3087L100.363 101.807L100.273 101.86C101.137 100.625 102.067 99.4424 103.058 98.3187C103.585 97.7137 104.158 97.155 104.772 96.6483C105.088 96.3769 105.437 96.1516 105.81 95.9784C106.014 95.8913 106.232 95.8441 106.453 95.8392C106.677 95.8527 106.895 95.9244 107.087 96.048C107.798 96.5397 108.418 97.1648 108.916 97.8924C109.444 98.5971 109.946 99.3366 110.465 100.076C110.951 100.839 111.503 101.552 112.113 102.208C112.267 102.359 112.443 102.486 112.633 102.582C112.821 102.649 113.022 102.664 113.218 102.625C113.642 102.513 114.034 102.295 114.363 101.99C115.043 101.271 115.899 100.765 116.835 100.528C117.343 100.521 117.847 100.63 118.311 100.85C118.775 101.069 119.188 101.393 119.521 101.799C119.813 102.191 120.2 102.491 120.642 102.669C120.865 102.717 121.095 102.717 121.317 102.669C121.466 102.669 121.639 102.451 121.779 102.251C122.348 101.376 122.85 100.453 123.279 99.4932C125.1 95.6043 126.739 91.3935 128.783 87.1653C129.286 86.0833 129.873 85.0474 130.538 84.0681C130.718 83.8056 130.935 83.5738 131.181 83.3808C131.254 83.3149 131.34 83.2654 131.432 83.2355C131.524 83.2056 131.621 83.1958 131.716 83.2068C131.815 83.2308 131.908 83.2786 131.986 83.3465C132.065 83.4144 132.128 83.5006 132.17 83.5983C132.382 84.1352 132.547 84.6914 132.664 85.26C133.15 87.6699 133.488 90.1407 133.875 92.6463C134.609 97.6488 135.284 102.825 136.117 108.097C136.323 109.42 136.545 110.707 136.809 112.065C136.941 112.726 137.081 113.378 137.245 114.031C137.328 114.35 137.43 114.664 137.55 114.97C137.592 115.086 137.653 115.192 137.732 115.284C137.69 115.284 137.732 115.414 137.732 115.336C137.766 115.286 137.791 115.23 137.806 115.171C138.63 112.561 139.24 109.89 139.89 107.184C140.212 105.827 140.533 104.461 140.887 103.095C141.069 102.416 141.25 101.729 141.464 101.05C141.563 100.711 141.679 100.372 141.794 100.033C141.918 99.6692 142.108 99.3352 142.354 99.0495C142.614 98.7458 142.967 98.5487 143.351 98.4927C143.719 98.4343 144.095 98.4701 144.447 98.5971C145.103 98.8423 145.728 99.1694 146.309 99.5715C147.491 100.261 148.751 100.79 150.059 101.146C151.089 101.425 152.144 101.588 153.206 101.633C154.245 101.633 155.349 101.633 156.379 101.555C156.869 101.496 157.338 101.305 157.739 101C158.14 100.695 158.46 100.288 158.669 99.8151C158.845 99.3043 158.985 98.781 159.09 98.2491L159.477 96.6309C160.515 92.2809 161.595 88.0962 162.814 83.9898C163.432 81.9366 164.058 79.9095 164.858 77.952C165.064 77.4648 165.278 76.9863 165.525 76.5165C165.657 76.2816 165.789 76.0554 165.945 75.8292C166.11 75.5812 166.331 75.3807 166.588 75.2463C166.677 75.2101 166.773 75.1976 166.868 75.2097C166.963 75.2219 167.054 75.2583 167.132 75.3159C167.257 75.4141 167.359 75.5423 167.429 75.69C167.548 75.9358 167.639 76.1957 167.7 76.4643C167.832 76.9776 167.931 77.4909 168.022 78.0042C168.673 82.1019 168.969 86.1387 169.307 90.0711C169.942 97.9533 170.403 105.444 170.955 112.439C171.112 114.179 171.268 115.919 171.474 117.58C171.562 118.404 171.702 119.221 171.895 120.025C171.92 120.117 171.95 120.207 171.985 120.295C171.998 120.331 172.015 120.366 172.035 120.399C172.035 120.399 171.994 120.399 172.035 120.469C172.076 120.538 172.035 120.373 171.993 120.399C172.017 120.364 172.036 120.326 172.051 120.286L172.175 120.016C172.331 119.651 172.471 119.268 172.612 118.885C173.666 115.832 174.573 112.848 175.594 110.055C176.482 107.355 177.666 104.774 179.121 102.364C179.487 101.806 179.929 101.308 180.431 100.885C180.677 100.679 180.956 100.523 181.255 100.424C181.554 100.346 181.857 100.285 182.162 100.241C183.339 100.054 184.543 100.226 185.631 100.737C186.677 101.216 187.575 101.886 188.556 102.208C189.533 102.408 190.527 102.507 191.522 102.503C193.442 102.556 195.206 102.503 196.788 102.503L204.072 102.399H205.967C206.437 102.286 206.659 102.295 206.659 102.295Z" fill="#E0E0E0"/>
<path d="M480.844 178.881L494.568 181.844L477.028 272.381C476.858 273.258 476.365 274.028 475.658 274.522C474.95 275.015 474.086 275.191 473.255 275.012L465.78 273.398C464.949 273.218 464.22 272.698 463.752 271.951C463.285 271.204 463.118 270.291 463.288 269.414L480.828 178.877L480.844 178.881Z" fill="#E0E0E0"/>
<path d="M477.81 194.719L491.534 197.68L478.943 262.734C478.773 263.611 478.28 264.381 477.573 264.874C476.865 265.368 476.001 265.544 475.17 265.365L467.694 263.752C466.864 263.573 466.134 263.053 465.667 262.306C465.2 261.559 465.032 260.646 465.202 259.769L477.794 194.715L477.81 194.719Z" fill="#F5F5F5"/>
<path d="M492.84 190.989L483.685 189.014L475.358 232.033L484.513 234.009L492.84 190.989Z" fill="white"/>
<path d="M473.297 274.972C473.903 275.065 474.522 274.993 475.094 274.763C475.781 274.469 476.349 273.931 476.701 273.241C476.903 272.793 477.039 272.315 477.104 271.823C477.203 271.292 477.302 270.727 477.417 270.135C478.332 265.35 479.642 258.433 481.282 249.838C484.578 232.621 489.209 208.687 494.392 181.76L494.557 182.021L483.96 179.742L480.829 179.063L481.084 178.889C475.481 207.66 470.446 233.551 466.804 252.274C465.89 256.946 465.057 261.165 464.332 264.88C464.151 265.802 463.97 266.698 463.805 267.56C463.723 267.986 463.632 268.43 463.558 268.83C463.459 269.223 463.398 269.625 463.376 270.031C463.374 270.788 463.615 271.525 464.06 272.119C464.47 272.655 465.03 273.041 465.659 273.223L471.328 274.502L472.803 274.842C473.133 274.92 473.297 274.972 473.297 274.972L472.795 274.885L471.312 274.589L465.618 273.389C464.912 273.196 464.287 272.762 463.839 272.155C463.392 271.547 463.148 270.8 463.146 270.031C463.162 269.608 463.22 269.188 463.319 268.778C463.393 268.369 463.475 267.908 463.558 267.516C463.723 266.646 463.887 265.776 464.069 264.828C464.777 261.113 465.585 256.885 466.483 252.204C470.092 233.482 475.077 207.582 480.631 178.794V178.576L480.837 178.62L483.976 179.298L494.573 181.586L494.779 181.63V181.847C489.538 208.774 484.891 232.69 481.529 249.899L477.541 270.161C477.417 270.761 477.31 271.318 477.203 271.849C477.133 272.355 476.985 272.846 476.766 273.302C476.406 274.004 475.822 274.549 475.118 274.842C474.685 275.016 474.221 275.088 473.759 275.05C473.603 275.041 473.448 275.014 473.297 274.972Z" fill="#E0E0E0"/>
<path d="M484.787 159.951L498.302 162.867C498.73 162.96 499.106 163.228 499.347 163.613C499.588 163.998 499.674 164.469 499.586 164.921L495.439 186.35L478.679 182.733L482.823 161.321C482.865 161.094 482.949 160.878 483.071 160.686C483.193 160.493 483.35 160.328 483.533 160.201C483.716 160.073 483.921 159.986 484.136 159.943C484.352 159.9 484.573 159.903 484.787 159.951Z" fill="#EBEBEB"/>
<path d="M495.727 184.118C495.727 184.24 491.92 183.526 487.272 182.526C482.625 181.525 478.884 180.612 478.909 180.49C478.934 180.368 482.716 181.082 487.363 182.082C492.01 183.083 495.743 183.996 495.727 184.118Z" fill="#E0E0E0"/>
<path d="M480.524 180.655C480.4 180.655 481.191 176.062 482.279 170.459C483.367 164.856 484.339 160.324 484.454 160.35C484.57 160.376 483.779 164.943 482.699 170.546C481.62 176.149 480.639 180.682 480.524 180.655Z" fill="#E0E0E0"/>
<path d="M482.773 181.143C482.658 181.143 483.441 176.549 484.528 170.946C485.616 165.344 486.588 160.811 486.704 160.837C486.819 160.863 486.036 165.431 484.949 171.033C483.861 176.636 482.864 181.169 482.773 181.143Z" fill="#E0E0E0"/>
<path d="M485.097 181.639C484.982 181.639 485.764 177.054 486.852 171.442C487.94 165.831 488.912 161.315 489.027 161.341C489.143 161.368 488.36 165.926 487.272 171.538C486.185 177.149 485.212 181.665 485.097 181.639Z" fill="#E0E0E0"/>
<path d="M487.347 182.126C487.231 182.126 488.022 177.541 489.102 171.929C490.181 166.318 491.162 161.803 491.285 161.829C491.409 161.855 490.61 166.414 489.53 172.025C488.451 177.637 487.47 182.152 487.347 182.126Z" fill="#E0E0E0"/>
<path d="M489.67 182.63C489.555 182.63 490.346 178.037 491.425 172.434C492.505 166.831 493.485 162.299 493.601 162.325C493.716 162.351 492.933 166.918 491.846 172.521C490.758 178.124 489.786 182.7 489.67 182.63Z" fill="#E0E0E0"/>
<path d="M491.928 183.118C491.813 183.118 492.595 178.524 493.683 172.921C494.771 167.318 495.743 162.786 495.859 162.812C495.974 162.838 495.191 167.405 494.103 173.008C493.016 178.611 492.043 183.144 491.928 183.118Z" fill="#E0E0E0"/>
<path d="M494.252 183.622C494.136 183.622 494.919 179.029 496.007 173.426C497.094 167.823 498.067 163.29 498.182 163.316C498.297 163.342 497.515 167.901 496.427 173.513C495.339 179.124 494.4 183.64 494.252 183.622Z" fill="#E0E0E0"/>
<path d="M510.765 221.583L521.752 220.516L528.008 292.265C528.086 293.157 527.825 294.045 527.283 294.733C526.741 295.421 525.962 295.854 525.118 295.936L520.49 296.386C519.646 296.468 518.805 296.193 518.153 295.62C517.501 295.048 517.091 294.226 517.013 293.334L510.757 221.584L510.765 221.583Z" fill="#E0E0E0"/>
<path d="M511.874 234.332L522.861 233.264L527.338 284.612C527.416 285.503 527.155 286.391 526.613 287.079C526.071 287.768 525.292 288.2 524.447 288.283L519.82 288.732C518.975 288.814 518.134 288.539 517.482 287.967C516.83 287.394 516.42 286.572 516.343 285.68L511.865 234.333L511.874 234.332Z" fill="#F5F5F5"/>
<path d="M522.39 227.903L515.062 228.615L518.064 263.043L525.392 262.331L522.39 227.903Z" fill="white"/>
<path d="M525.119 295.948C525.596 295.865 526.054 295.688 526.47 295.426C526.963 295.097 527.359 294.63 527.615 294.077C527.783 293.726 527.889 293.346 527.929 292.955C527.95 292.507 527.928 292.058 527.863 291.615C527.516 287.752 527.039 282.193 526.379 275.285C525.152 261.426 523.446 242.182 521.534 220.554L521.765 220.754L513.962 221.511L510.781 221.824L510.971 221.58C512.932 244.366 514.695 264.837 515.964 279.635C516.277 283.324 516.557 286.665 516.788 289.597C516.92 291.058 517.01 292.442 517.142 293.668C517.245 294.217 517.478 294.73 517.819 295.158C518.161 295.585 518.6 295.914 519.095 296.113C519.922 296.353 520.791 296.389 521.633 296.218L523.528 296.052L524.698 295.965H525.102L524.707 296.026L523.537 296.157L521.641 296.365L520.43 296.487C519.958 296.533 519.483 296.468 519.038 296.296C518.511 296.092 518.042 295.749 517.675 295.3C517.309 294.85 517.058 294.31 516.945 293.729C516.796 292.459 516.697 291.119 516.557 289.64C516.294 286.708 515.989 283.368 515.651 279.679C514.349 264.889 512.544 244.418 510.526 221.632V221.406H510.74L513.921 221.093L521.724 220.336H521.938V220.562C523.792 242.199 525.448 261.452 526.643 275.311C527.212 282.219 527.673 287.787 527.994 291.65C528.051 292.106 528.068 292.566 528.044 293.025C527.98 293.542 527.807 294.037 527.537 294.473C527.268 294.91 526.908 295.277 526.487 295.548C526.172 295.748 525.826 295.887 525.465 295.957C525.349 295.962 525.234 295.959 525.119 295.948Z" fill="#E0E0E0"/>
<path d="M509.978 206.423L520.095 205.439C520.531 205.397 520.964 205.539 521.3 205.834C521.636 206.129 521.847 206.553 521.887 207.012L523.348 223.767L509.941 225.071L508.481 208.324C508.46 208.095 508.482 207.864 508.546 207.645C508.61 207.425 508.715 207.221 508.854 207.044C508.993 206.867 509.164 206.721 509.357 206.614C509.55 206.508 509.761 206.443 509.978 206.423Z" fill="#EBEBEB"/>
<path d="M523.092 222.007C518.637 222.743 514.143 223.179 509.636 223.312C511.852 222.872 514.092 222.581 516.343 222.442C518.581 222.139 520.836 221.994 523.092 222.007Z" fill="#E0E0E0"/>
<path d="M510.88 223.051C510.425 220.369 510.117 217.661 509.957 214.942C509.644 212.24 509.479 209.521 509.463 206.799C509.908 209.482 510.216 212.189 510.386 214.907C510.689 217.61 510.854 220.329 510.88 223.051Z" fill="#E0E0E0"/>
<path d="M512.693 222.877C512.238 220.195 511.93 217.487 511.77 214.768C511.457 212.066 511.292 209.347 511.276 206.625C511.72 209.305 512.025 212.009 512.19 214.725C512.499 217.43 512.667 220.152 512.693 222.877Z" fill="#E0E0E0"/>
<path d="M514.547 222.72C514.102 220.037 513.794 217.33 513.624 214.612C513.32 211.909 513.155 209.19 513.13 206.468C513.584 209.15 513.893 211.858 514.052 214.577C514.361 217.279 514.526 219.998 514.547 222.72Z" fill="#E0E0E0"/>
<path d="M516.351 222.52C515.906 219.837 515.598 217.13 515.429 214.411C515.125 211.708 514.96 208.99 514.934 206.268C515.373 208.949 515.67 211.653 515.824 214.368C516.139 217.073 516.315 219.795 516.351 222.52Z" fill="#E0E0E0"/>
<path d="M518.214 222.337C517.759 219.655 517.451 216.948 517.291 214.229C516.977 211.527 516.812 208.808 516.796 206.086C517.241 208.769 517.549 211.476 517.719 214.194C518.023 216.897 518.188 219.615 518.214 222.337Z" fill="#E0E0E0"/>
<path d="M520.018 222.163C519.57 219.469 519.27 216.75 519.12 214.02C518.807 211.318 518.642 208.599 518.626 205.877C519.071 208.56 519.379 211.267 519.548 213.985C519.845 216.7 520.002 219.43 520.018 222.163Z" fill="#E0E0E0"/>
<path d="M521.872 221.98C521.427 219.3 521.119 216.596 520.949 213.881C520.646 211.175 520.481 208.454 520.455 205.729C520.91 208.411 521.218 211.118 521.378 213.837C521.691 216.539 521.856 219.258 521.872 221.98Z" fill="#E0E0E0"/>
<path d="M192.19 158.018C190.74 151.215 184.617 145.377 178.05 146.056C174.169 146.456 170.634 148.987 168.302 152.25C167.464 153.351 166.701 154.514 166.019 155.73C165.338 154.514 164.575 153.351 163.737 152.25C161.364 148.979 157.878 146.447 153.997 146.038C147.405 145.351 141.308 151.189 139.841 157.983C138.374 164.778 140.805 171.999 144.785 177.567C148.765 183.135 155.357 190.269 166.547 192.983C173.922 191.191 183.274 183.152 187.246 177.593C191.217 172.034 193.64 164.813 192.19 158.018Z" fill="#E0E0E0"/>
<path d="M190.979 170.633H190.764H190.122H187.65L178.627 170.703L178.783 170.581C177.959 173.661 177.045 177.262 176.015 181.212L175.85 181.856L175.644 181.23L170.387 165.3C169.802 163.56 169.233 161.776 168.673 160.08L169.06 160.123L163.152 170.72L163.103 170.816H162.987L147.125 170.729L142.634 170.668H141.44C141.306 170.688 141.17 170.688 141.036 170.668H141.44H142.634L147.125 170.616L162.987 170.537L162.822 170.642L168.681 160.01L168.912 159.584L169.068 160.045C169.629 161.785 170.197 163.525 170.782 165.265L176.031 181.299H175.652C176.715 177.349 177.671 173.756 178.495 170.685V170.563H178.61L187.633 170.642H190.105H190.748L190.979 170.633Z" fill="#FAFAFA"/>
<path d="M297.093 128.656L294.275 205.485L257.838 204.241C257.409 199.778 256.931 182.491 256.931 182.491C256.931 182.491 241.72 180.751 240.822 164.83C240.386 157.096 240.715 141.036 241.168 126.55C241.415 118.831 244.512 111.521 249.796 106.18C255.081 100.84 262.134 97.8936 269.448 97.9707C273.186 98.0202 276.876 98.8588 280.302 100.437C283.728 102.016 286.82 104.302 289.396 107.161C291.972 110.021 293.98 113.396 295.302 117.087C296.624 120.778 297.233 124.712 297.093 128.656Z" fill="#FFBE9D"/>
<path d="M256.915 182.491C263.893 182.279 270.654 179.881 276.337 175.601C276.337 175.601 272.217 187.302 257.072 186.624L256.915 182.491Z" fill="#EB996E"/>
<path d="M246.121 137.947C246.142 138.541 246.382 139.103 246.79 139.512C247.198 139.922 247.741 140.147 248.304 140.14C248.579 140.149 248.853 140.1 249.11 139.996C249.367 139.892 249.602 139.735 249.801 139.534C249.999 139.333 250.158 139.093 250.268 138.826C250.377 138.559 250.435 138.273 250.438 137.982C250.417 137.387 250.177 136.825 249.769 136.414C249.362 136.003 248.818 135.776 248.255 135.781C247.979 135.773 247.705 135.823 247.448 135.928C247.191 136.032 246.956 136.19 246.758 136.392C246.559 136.594 246.401 136.835 246.291 137.102C246.182 137.369 246.124 137.656 246.121 137.947Z" fill="#263238"/>
<path d="M244.778 134.667C245.058 134.954 246.632 133.597 248.955 133.484C251.279 133.371 253.034 134.519 253.273 134.206C253.388 134.067 253.092 133.545 252.325 133.006C251.286 132.321 250.071 131.993 248.848 132.066C247.646 132.124 246.491 132.584 245.552 133.38C244.86 133.98 244.638 134.546 244.778 134.667Z" fill="#263238"/>
<path d="M268.113 137.869C268.133 138.46 268.368 139.02 268.771 139.43C269.174 139.841 269.712 140.07 270.272 140.07C270.548 140.079 270.823 140.03 271.08 139.926C271.338 139.821 271.573 139.663 271.772 139.462C271.97 139.26 272.129 139.018 272.238 138.75C272.347 138.483 272.404 138.195 272.406 137.904C272.385 137.32 272.151 136.767 271.754 136.36C271.356 135.953 270.826 135.724 270.272 135.72C269.995 135.706 269.719 135.751 269.459 135.852C269.199 135.954 268.962 136.109 268.76 136.31C268.559 136.511 268.397 136.752 268.286 137.02C268.175 137.288 268.116 137.576 268.113 137.869Z" fill="#263238"/>
<path d="M267.611 133.98C267.891 134.258 269.465 132.901 271.788 132.797C274.112 132.692 275.908 133.823 276.106 133.51C276.221 133.371 275.925 132.849 275.158 132.318C274.121 131.636 272.91 131.308 271.689 131.379C270.486 131.433 269.331 131.893 268.393 132.692C267.693 133.31 267.471 133.858 267.611 133.98Z" fill="#263238"/>
<path d="M259.997 152.581C259.997 152.441 258.555 152.25 256.198 152.05C255.605 152.05 255.036 151.919 254.921 151.493C254.839 150.85 254.949 150.197 255.234 149.623C255.72 148.074 256.231 146.465 256.767 144.768C258.901 137.86 260.409 132.197 260.145 132.11C259.881 132.023 257.912 137.547 255.811 144.42C255.3 146.119 254.814 147.743 254.352 149.292C254.01 150.065 253.94 150.941 254.155 151.763C254.251 151.979 254.392 152.17 254.567 152.32C254.743 152.471 254.948 152.578 255.168 152.633C255.501 152.708 255.841 152.74 256.182 152.729C258.538 152.781 259.997 152.72 259.997 152.581Z" fill="#263238"/>
<path d="M266.902 153.929C266.531 153.929 266.638 156.539 264.57 158.584C262.502 160.628 259.807 160.419 259.799 160.793C259.799 160.959 260.425 161.281 261.554 161.255C263.031 161.202 264.443 160.601 265.542 159.558C266.601 158.56 267.246 157.164 267.339 155.669C267.388 154.555 267.075 153.903 266.902 153.929Z" fill="#263238"/>
<path d="M266.581 124.41C266.836 125.071 269.143 124.636 271.879 124.845C274.615 125.054 276.823 125.715 277.185 125.115C277.334 124.819 276.93 124.245 276.007 123.618C274.787 122.887 273.425 122.459 272.024 122.365C270.624 122.272 269.222 122.516 267.924 123.079C266.976 123.54 266.465 124.106 266.581 124.41Z" fill="#263238"/>
<path d="M245.313 127.533C245.75 128.073 247.315 127.412 249.244 127.29C251.172 127.168 252.803 127.49 253.158 126.89C253.306 126.594 253.026 126.02 252.292 125.558C251.308 124.978 250.182 124.717 249.057 124.81C247.933 124.903 246.859 125.345 245.972 126.08C245.321 126.689 245.123 127.272 245.313 127.533Z" fill="#263238"/>
<path d="M279.929 112.23L280.02 112.291C282.514 114.176 284.225 117.001 284.799 120.182C284.799 120.295 284.799 120.399 284.857 120.504C285.681 125.019 285.747 129.656 286.587 134.163C287.428 138.669 289.117 143.219 292.438 146.186C293.806 147.413 296.154 148.178 297.168 146.621C297.498 145.973 297.652 145.242 297.612 144.507C297.926 133.484 300.323 123.627 299.796 112.126C299.731 110.587 299.319 109.087 298.595 107.75C297.872 106.412 296.857 105.276 295.635 104.435C293.278 102.825 290.419 101.181 287.947 102.564C285.475 103.948 282.418 109.124 280.531 111.343" fill="#263238"/>
<path d="M292.347 136.39C292.594 136.259 302.573 132.632 302.73 143.55C302.886 154.469 292.479 152.38 292.454 152.067C292.43 151.754 292.347 136.39 292.347 136.39Z" fill="#FFBE9D"/>
<path d="M295.552 147.9C295.602 147.9 295.734 148.031 296.038 148.17C296.472 148.352 296.956 148.352 297.39 148.17C298.478 147.726 299.367 145.882 299.392 143.915C299.405 142.979 299.219 142.052 298.848 141.201C298.747 140.861 298.569 140.551 298.329 140.3C298.089 140.048 297.795 139.862 297.472 139.757C297.264 139.702 297.045 139.726 296.852 139.825C296.66 139.923 296.506 140.09 296.418 140.296C296.277 140.609 296.352 140.827 296.294 140.844C296.236 140.862 296.071 140.662 296.146 140.209C296.199 139.939 296.338 139.696 296.541 139.522C296.825 139.291 297.182 139.185 297.538 139.226C297.964 139.307 298.362 139.503 298.696 139.794C299.029 140.085 299.286 140.462 299.442 140.888C299.895 141.827 300.124 142.87 300.109 143.924C300.109 146.125 299.038 148.196 297.555 148.674C297.279 148.764 296.988 148.787 296.703 148.742C296.417 148.696 296.145 148.584 295.907 148.413C295.577 148.144 295.519 147.9 295.552 147.9Z" fill="#EB996E"/>
<path d="M289.504 105.94C292.487 101.894 286.208 94.8648 281.264 92.5854C276.32 90.306 269.423 92.1591 264.191 93.3423C260.895 94.0905 257.558 95.2824 254.221 94.7517C252.005 94.253 249.872 93.4085 247.892 92.2461C245.905 91.0856 243.716 90.3607 241.457 90.1146C239.199 90.0189 236.76 90.9846 235.689 93.1161C234.618 95.2476 235.516 98.3361 237.708 98.9538C235.038 96.9702 230.704 98.6667 229.888 102.008C229.072 105.348 232.096 109.037 235.343 108.672C234.008 107.332 231.561 109.002 231.544 110.951C231.528 112.9 233.036 114.492 234.634 115.466C238.754 117.946 243.772 117.885 248.37 116.824C252.968 115.762 257.335 113.77 261.909 112.587C266.482 111.404 274.161 109.211 278.389 111.369C281.52 112.952 283.332 117.346 285.277 116.641C286.193 116.255 287.011 115.646 287.664 114.865C288.316 114.084 288.786 113.151 289.035 112.143C289.497 110.114 289.645 108.019 289.471 105.94" fill="#263238"/>
<path d="M238.284 99.7455C238.284 99.7455 238.087 99.8412 237.765 100.085C237.294 100.443 236.928 100.935 236.711 101.503C236.355 102.394 236.277 103.381 236.488 104.322C236.624 104.94 236.878 105.522 237.233 106.033C237.589 106.545 238.039 106.975 238.556 107.297C239.831 108.078 241.277 108.494 242.751 108.506C244.448 108.517 246.137 108.256 247.76 107.732C251.229 106.671 254.666 104.504 258.291 102.303C261.917 100.102 265.617 98.2665 269.292 97.7967C271.021 97.5583 272.778 97.6735 274.466 98.136C275.946 98.5423 277.343 99.2324 278.586 100.172C280.392 101.505 281.846 103.302 282.813 105.392C283.187 106.141 283.464 106.94 283.637 107.767C283.588 107.767 283.39 106.897 282.69 105.47C281.679 103.46 280.22 101.74 278.438 100.459C277.227 99.5654 275.873 98.911 274.442 98.5275C272.794 98.0914 271.082 97.9939 269.399 98.2404C265.823 98.7189 262.172 100.546 258.571 102.73C254.97 104.913 251.477 107.08 247.942 108.158C246.275 108.688 244.54 108.941 242.8 108.907C241.267 108.882 239.768 108.426 238.458 107.584C237.893 107.2 237.401 106.707 237.007 106.131C236.571 105.451 236.306 104.663 236.238 103.844C236.17 103.025 236.302 102.201 236.62 101.451C236.867 100.868 237.271 100.374 237.782 100.033C237.936 99.9126 238.105 99.816 238.284 99.7455Z" fill="#455A64"/>
<path d="M274.812 94.2297C275.036 94.189 275.264 94.189 275.488 94.2297C276.097 94.2735 276.699 94.3873 277.284 94.569C279.247 95.1532 280.997 96.3509 282.303 98.0046C283.609 99.6584 284.41 101.691 284.601 103.835C284.661 104.477 284.661 105.124 284.601 105.766C284.593 106.002 284.546 106.235 284.461 106.453C284.379 106.453 284.519 105.453 284.305 103.843C284.045 101.786 283.24 99.8477 281.981 98.2529C280.723 96.6581 279.063 95.4715 277.194 94.83C275.76 94.3515 274.804 94.3167 274.812 94.2297Z" fill="#455A64"/>
<path d="M299.582 122.2C299.33 122.351 299.047 122.434 298.758 122.444C297.948 122.517 297.135 122.332 296.426 121.913C295.365 121.308 294.503 120.376 293.954 119.242C293.315 117.877 292.838 116.433 292.536 114.944C292.242 113.49 291.78 112.078 291.16 110.742C290.646 109.67 289.84 108.785 288.845 108.202C288.178 107.802 287.42 107.603 286.653 107.628C286.118 107.628 285.829 107.776 285.829 107.732C286.079 107.571 286.361 107.476 286.653 107.454C287.459 107.357 288.274 107.517 288.993 107.915C290.067 108.492 290.947 109.403 291.515 110.525C292.165 111.891 292.642 113.342 292.932 114.84C293.227 116.294 293.681 117.707 294.283 119.051C294.784 120.134 295.571 121.041 296.549 121.661C297.208 122.074 297.959 122.293 298.725 122.296C299.269 122.261 299.565 122.157 299.582 122.2Z" fill="#455A64"/>
<path d="M299.038 129.413C299.038 129.413 298.956 129.413 298.783 129.482C298.538 129.537 298.29 129.572 298.041 129.587C297.118 129.659 296.19 129.582 295.289 129.36C292.266 128.617 289.619 126.701 287.873 123.992C286.166 121.311 285.121 118.222 284.832 115.005C284.802 114.465 284.722 113.929 284.593 113.405C284.491 113.023 284.281 112.683 283.992 112.43C283.735 112.221 283.425 112.097 283.102 112.073C283.271 112.015 283.452 112.004 283.626 112.04C283.801 112.077 283.964 112.16 284.099 112.282C284.433 112.541 284.684 112.903 284.816 113.318C284.975 113.852 285.08 114.404 285.129 114.962C285.5 118.1 286.561 121.103 288.227 123.731C289.918 126.342 292.437 128.228 295.33 129.047C296.546 129.338 297.792 129.46 299.038 129.413Z" fill="#455A64"/>
<path d="M226.748 404.994L343.756 404.193L331.949 329.53L329.897 201.161L306.528 193.627L294.992 186.754L257.03 191.826L252.144 198.36C252.144 198.36 235.532 204.276 228.347 207.747L227.853 207.982C222.757 210.436 218.439 214.391 215.418 219.371L183.752 271.388L137.443 242.878L121.128 267.96C121.128 267.96 177.984 317.933 188.292 316.915C198.601 315.897 202.177 315.888 205.736 310.773C208.464 306.84 219.184 293.521 224.293 284.621L229.509 346.121L226.748 404.994Z" fill="#EBEBEB"/>
<path d="M263.82 405.072C263.697 405.072 262.757 377.719 261.727 343.972C260.697 310.225 259.939 282.854 260.079 282.854C260.219 282.854 261.134 310.199 262.172 343.963C263.21 377.728 263.936 405.072 263.82 405.072Z" fill="#263238"/>
<path d="M257.179 191.322L260.12 284.708L294.959 186.754L257.179 191.322Z" fill="#FFBE9D"/>
<path d="M260.384 289.971C260.335 289.88 260.297 289.784 260.269 289.684C260.186 289.475 260.088 289.197 259.964 288.814C259.676 288.048 259.28 286.97 258.769 285.586C257.706 282.802 256.149 278.774 253.99 273.911C252.886 271.483 251.65 268.847 250.183 266.081C248.666 263.16 246.836 260.434 244.728 257.955C243.575 256.702 242.199 255.389 241.712 253.466C241.503 252.513 241.526 251.519 241.778 250.577C242.001 249.638 242.314 248.733 242.602 247.82C243.748 244.139 244.942 240.338 246.154 236.449L246.228 236.205L246.45 236.501L232.442 237.841V237.406L239.916 221.746C242.215 216.978 244.292 212.776 246.08 209.313C247.868 205.851 249.376 203.119 250.422 201.283C250.958 200.361 251.386 199.656 251.683 199.187L252.021 198.665C252.103 198.543 252.144 198.482 252.152 198.491L252.054 198.682L251.74 199.23C251.46 199.743 251.057 200.448 250.546 201.362C249.516 203.223 248.074 205.964 246.31 209.444C244.547 212.924 242.503 217.135 240.229 221.92L236.653 229.489L234.733 233.543L233.736 235.631L233.217 236.683L232.945 237.205L232.805 237.475L232.723 237.606C232.665 237.702 232.578 237.776 232.475 237.815V237.38L246.483 236.022H246.805L246.706 236.353L246.632 236.588C245.412 240.477 244.217 244.279 243.072 247.959C242.528 249.777 241.737 251.604 242.182 253.361C242.627 255.119 243.929 256.406 245.083 257.659C247.216 260.186 249.06 262.969 250.579 265.95C252.045 268.717 253.265 271.37 254.353 273.78C256.478 278.67 258.003 282.724 259.016 285.534C259.511 286.943 259.89 288.04 260.129 288.788C260.255 289.159 260.346 289.449 260.401 289.658C260.402 289.762 260.396 289.867 260.384 289.971Z" fill="#263238"/>
<path d="M260.269 290.85C260.256 290.749 260.256 290.646 260.269 290.545L260.401 289.675C260.595 288.537 260.885 287.419 261.266 286.334C262.761 282.36 264.659 278.568 266.927 275.024C268.336 272.762 269.943 270.326 271.764 267.769C273.685 265.04 275.748 262.426 277.944 259.939C280.385 257.147 283.057 254.59 285.928 252.3C287.462 251.102 289.055 249.989 290.699 248.968C292.347 247.924 294.078 246.932 295.726 245.775L295.668 246.088C293.422 242.547 290.378 239.65 286.81 237.658L286.513 237.493L286.785 237.284C291.88 233.274 297.816 230.621 304.089 229.55L303.933 229.732L305.721 203.771C305.951 200.639 306.133 198.151 306.264 196.429C306.33 195.559 306.38 194.95 306.421 194.489L306.47 193.993C306.46 193.935 306.46 193.876 306.47 193.819C306.476 193.876 306.476 193.935 306.47 193.993V194.489C306.47 194.958 306.413 195.611 306.372 196.437C306.273 198.177 306.124 200.648 305.943 203.789C305.539 210.131 304.979 219.101 304.295 229.767V229.924H304.147C297.935 230.999 292.059 233.637 287.016 237.614V237.24C290.647 239.264 293.745 242.209 296.03 245.81L296.154 245.993L295.973 246.123C294.325 247.289 292.578 248.289 290.922 249.333C289.288 250.34 287.707 251.438 286.184 252.622C283.338 254.894 280.686 257.424 278.257 260.182C276.059 262.668 273.996 265.282 272.077 268.012C270.247 270.544 268.624 272.963 267.207 275.216C264.919 278.719 262.986 282.466 261.439 286.395C261.04 287.465 260.726 288.568 260.5 289.693C260.425 290.058 260.368 290.354 260.326 290.563C260.317 290.66 260.298 290.757 260.269 290.85Z" fill="#263238"/>
<path d="M304.583 262.375H279.979V267.429H304.583V262.375Z" fill="#263238"/>
<path d="M299.03 307.902C298.896 307.966 298.755 308.01 298.61 308.032L297.39 308.311C295.886 308.641 294.364 308.87 292.833 308.998C290.543 309.217 288.234 308.921 286.06 308.128C283.354 307.134 281.113 305.082 279.798 302.395C278.63 299.684 278.048 296.733 278.092 293.756C278.092 291.032 278.174 288.623 278.183 286.569C278.191 284.516 278.249 282.872 278.306 281.723C278.306 281.149 278.364 280.706 278.389 280.41C278.388 280.253 278.41 280.098 278.455 279.949C278.465 280.102 278.465 280.256 278.455 280.41C278.455 280.766 278.455 281.201 278.455 281.732C278.455 282.941 278.455 284.577 278.455 286.569V293.747C278.431 296.66 279.011 299.543 280.152 302.195C281.414 304.781 283.562 306.763 286.159 307.736C288.272 308.522 290.516 308.839 292.751 308.667C294.272 308.57 295.787 308.39 297.291 308.128L298.527 307.937C298.693 307.904 298.862 307.892 299.03 307.902Z" fill="#263238"/>
<path d="M303.479 279.348C303.479 279.47 297.876 279.714 290.971 279.879C284.066 280.044 278.454 280.088 278.454 279.957C278.454 279.827 284.049 279.601 290.963 279.427C297.876 279.253 303.479 279.27 303.479 279.348Z" fill="#263238"/>
<path d="M291.292 279.531V270.909C291.292 270.238 291.545 269.594 291.995 269.119C292.444 268.644 293.054 268.378 293.69 268.378C294.326 268.378 294.936 268.644 295.386 269.119C295.835 269.594 296.088 270.238 296.088 270.909V285.116C296.095 285.231 296.082 285.345 296.047 285.454C296.013 285.563 295.959 285.663 295.887 285.749C295.744 285.924 295.54 286.031 295.322 286.047C295.103 286.063 294.887 285.987 294.722 285.836C294.557 285.684 294.455 285.469 294.44 285.238C294.44 285.134 294.44 285.012 294.44 284.899C294.44 282.733 294.209 279.427 294.209 279.427L291.292 279.531Z" fill="#7860A0"/>
<path d="M290.872 294.425C290.66 292.404 290.588 290.368 290.658 288.335C290.587 286.303 290.659 284.267 290.872 282.245C291.086 284.267 291.158 286.303 291.087 288.335C291.157 290.368 291.085 292.404 290.872 294.425Z" fill="#263238"/>
<path d="M295.511 305.709C295.396 305.709 295.297 301.359 295.297 296.018C295.297 290.676 295.396 286.326 295.511 286.326C295.627 286.326 295.726 290.676 295.726 296.018C295.726 301.359 295.635 305.709 295.511 305.709Z" fill="#263238"/>
<path d="M257.797 210.966L269.242 225.713C277.325 217.1 283.135 208.591 288.194 204.833C288.194 204.833 260.129 286.021 260.087 284.673C260.046 283.324 257.797 210.966 257.797 210.966Z" fill="#7860A0"/>
<path d="M288.227 204.868C288.142 204.99 288.045 205.104 287.939 205.207L287.049 206.077C286.274 206.851 285.17 208 283.819 209.426C281.108 212.271 277.507 216.386 273.576 220.91C269.646 225.434 265.996 229.523 263.227 232.325C261.843 233.726 260.705 234.83 259.89 235.57L258.95 236.44C258.846 236.547 258.729 236.64 258.604 236.718C258.604 236.718 258.695 236.588 258.893 236.379L259.774 235.509C260.557 234.735 261.661 233.586 263.013 232.16C265.715 229.315 269.316 225.2 273.255 220.676C277.194 216.152 280.836 212.063 283.604 209.261C284.989 207.86 286.126 206.756 286.942 206.016L287.873 205.146C288.095 204.946 288.211 204.85 288.227 204.868Z" fill="#263238"/>
<path d="M269.168 225.652C269.077 225.73 266.457 222.511 263.317 218.457C260.178 214.403 257.706 211.045 257.797 210.966C257.887 210.888 260.508 214.107 263.647 218.17C266.786 222.233 269.258 225.574 269.168 225.652Z" fill="#263238"/>
<path d="M220.519 239.172C220.572 239.37 220.605 239.575 220.618 239.781C220.676 240.224 220.741 240.807 220.824 241.521C220.997 243.043 221.219 245.244 221.483 247.976C222.002 253.431 222.62 260.974 223.263 269.308C223.906 277.643 224.499 285.142 224.911 290.65C225.125 293.338 225.298 295.539 225.422 297.114C225.48 297.844 225.521 298.427 225.554 298.854C225.568 299.059 225.568 299.266 225.554 299.471C225.5 299.272 225.464 299.069 225.447 298.862C225.397 298.419 225.331 297.836 225.241 297.122C225.067 295.6 224.845 293.399 224.59 290.667C224.07 285.212 223.444 277.669 222.802 269.335C222.159 261 221.574 253.501 221.154 247.993C220.939 245.305 220.766 243.104 220.634 241.529C220.585 240.799 220.544 240.216 220.511 239.789C220.493 239.584 220.496 239.377 220.519 239.172Z" fill="#263238"/>
<path d="M328.207 200.97C328.207 200.97 346.55 200.97 351.148 238.223C355.746 275.477 365.856 343.798 347.473 356.752C329.089 369.707 243.904 368.793 243.904 368.793V332.705L313.796 324.562C313.796 324.562 313.532 317.846 317.092 317.898L313.12 232.742C313.12 232.742 312.296 202.588 328.207 200.97Z" fill="#EBEBEB"/>
<path d="M313.301 261.044C313.301 261.044 313.301 261.392 313.375 262.07C313.45 262.749 313.466 263.81 313.54 265.098C313.672 267.769 313.87 271.666 314.125 276.66C314.611 286.674 315.312 301.064 316.169 318.594V318.777H315.988C315.397 318.792 314.829 319.023 314.381 319.429C313.926 319.888 313.586 320.459 313.392 321.091C312.978 322.432 312.799 323.841 312.865 325.25V325.432H312.7L243.929 332.906L244.118 332.679V368.793L243.912 368.576C273.667 368.915 299.615 367.706 317.949 365.226C322.538 364.608 326.634 363.904 330.202 363.164C333.236 362.532 336.236 361.734 339.191 360.772C340.386 360.345 341.441 359.902 342.347 359.562C343.254 359.223 343.995 358.814 344.58 358.492L345.882 357.709L346.335 357.457C346.335 357.457 346.195 357.561 345.907 357.744L344.613 358.562C344.028 358.892 343.27 359.232 342.388 359.675C341.507 360.119 340.436 360.476 339.233 360.911C336.28 361.903 333.279 362.728 330.243 363.382C326.675 364.147 322.571 364.869 317.99 365.504C299.639 368.019 273.675 369.332 243.904 368.984H243.698V368.767C243.698 358.327 243.698 347.313 243.698 335.977V332.497H243.896L312.667 325.102L312.502 325.302C312.428 323.827 312.618 322.352 313.062 320.952C313.275 320.266 313.646 319.647 314.142 319.151C314.657 318.69 315.304 318.426 315.979 318.403L315.814 318.594C314.99 301.064 314.372 286.674 313.928 276.651C313.713 271.658 313.54 267.76 313.425 265.089C313.375 263.767 313.342 262.757 313.31 262.061C313.277 261.365 313.301 261.044 313.301 261.044Z" fill="#263238"/>
<path d="M326.057 327.381C325.983 327.381 325.711 326.633 325.085 325.502C324.26 324.033 323.204 322.724 321.962 321.63C320.714 320.545 319.301 319.689 317.784 319.099C316.622 318.655 315.848 318.516 315.864 318.437C316.552 318.43 317.235 318.551 317.883 318.794C319.476 319.31 320.956 320.154 322.238 321.279C323.52 322.403 324.577 323.786 325.348 325.345C325.698 325.974 325.938 326.663 326.057 327.381Z" fill="#263238"/>
<path d="M317.842 334.08C316.852 330.638 315.029 327.528 312.552 325.058C313.014 325.286 313.431 325.604 313.779 325.998C314.69 326.867 315.478 327.869 316.119 328.973C316.768 330.071 317.268 331.26 317.603 332.505C317.781 333.008 317.863 333.544 317.842 334.08Z" fill="#263238"/>
<path d="M76.3601 228.236L126.459 368.88L232.731 371.151L188.935 229.202L76.3601 228.236Z" fill="#7860A0"/>
<g opacity="0.5">
<path d="M143.277 369.132C143.277 369.132 117.832 317.55 109.93 283.133C105.423 263.671 101.41 228.41 101.41 228.41L167.742 229.028C167.742 229.028 189.742 265.994 202.407 302.934C209.992 324.972 215.555 347.729 219.019 370.89L184.98 370.098L173.782 335.629C173.782 335.629 170.288 337.621 165.484 335.046L177.02 369.915L143.277 369.132Z" fill="white"/>
</g>
<path d="M179.632 313.731C179.014 311.834 176.336 305.135 176.765 301.794C177.193 298.454 180.324 294.834 180.497 291.485C180.67 288.135 180.761 280.671 179.953 277.034C179.104 273.818 178.061 270.662 176.83 267.586C176.83 267.586 172.027 259.556 167.198 259.373L161.323 259.147C161.323 259.147 157.071 260.226 159.131 265.776C161.191 271.327 166.053 280.853 166.753 282.498C167.453 284.142 170.733 290.493 169.991 294.565C169.25 298.636 163.638 309.998 164.38 312.765L161.372 312.652C161.372 312.652 158.595 307.571 154.698 305.422C150.8 303.273 142.437 293.999 140.69 288.457C138.943 282.915 136.982 270.022 135.803 266.116C134.625 262.209 132.804 258.782 129.747 257.912C126.69 257.042 122.595 258.138 122.595 258.138C122.595 258.138 117.115 260.13 119.562 268.83C122.01 277.53 123.386 278.061 126.286 283.15C129.187 288.24 129.92 289.762 132.219 291.972C134.518 294.182 139.956 296.627 142.297 301.942C144.637 307.258 145.848 313.426 150.034 321.03C154.22 328.634 155.802 331.47 159.098 331.47C162.394 331.47 163.465 327.529 163.589 325.163C163.668 323.92 163.668 322.673 163.589 321.43L167.577 321.587C167.577 321.587 172.084 330.478 176.814 332.149C181.544 333.819 181.214 329.33 181.453 327.59C181.692 325.85 180.283 315.619 179.632 313.731ZM156.272 323.997C155.019 323.318 152.836 318.864 150.668 315.001C149.02 312.113 149.193 310.59 149.367 310.007C149.394 309.906 149.436 309.809 149.49 309.72L149.424 309.816C149.589 308.807 151.196 309.25 152.374 309.746C153.239 310.112 157.359 311.808 158.702 318.107C160.046 324.406 157.557 324.667 156.296 323.997H156.272ZM176.938 324.788C176.114 325.38 173.337 324.919 170.576 318.568C167.816 312.217 170.922 310.79 171.573 310.486C172.455 310.068 173.815 309.737 174.639 310.781L174.515 310.686C174.626 310.777 174.73 310.875 174.828 310.982C176.007 312.371 176.697 314.147 176.781 316.01C177.16 319.795 177.803 324.197 176.962 324.788H176.938Z" fill="white"/>
<path d="M162.781 310.59C163.77 310.52 163.07 306.553 163.07 306.553C163.176 305.059 163.176 303.558 163.07 302.064C162.888 300.194 163.803 298.48 164.438 296.748C165.072 295.017 164.438 290.397 163.614 288.048C162.79 285.699 163.366 285.517 163.366 285.517C165.904 284.647 163.564 279.07 161.858 273.859C160.153 268.647 158.455 269.021 158.455 269.021C158.455 269.021 157.318 268.978 156.667 273.224C156.016 277.469 154.904 278.974 152.465 278.966H151.163C148.691 278.966 146.524 277.139 143.063 272.736C139.602 268.334 138.473 268.291 138.473 268.291C138.473 268.291 136.487 267.777 138.168 272.989C139.849 278.2 141.11 283.716 144.291 284.829C144.291 284.829 144.95 285.073 145.7 287.439C146.45 289.806 148.806 294.46 150.594 296.279C152.382 298.097 154.451 299.933 155.489 301.829C156.527 303.726 158.464 306.431 158.464 306.431C158.464 306.431 160.828 310.468 161.883 310.616L162.781 310.59Z" fill="white"/>
<path d="M131.939 229.68C131.939 229.68 130.645 230.071 131.577 232.36C132.508 234.648 132.401 235.996 132.936 236.614C133.504 237.234 134.11 237.816 134.749 238.354C134.749 238.354 133.266 238.893 134.362 241.338C135.458 243.783 135.738 246.193 136.24 247.263C136.743 248.333 137.806 248.681 138.3 249.298C138.795 249.916 136.652 249.229 137.213 251.352C137.773 253.475 139.042 255.023 139.034 256.981C139.025 258.938 139.932 261.513 141.695 262.479C143.459 263.445 143.129 264.785 143.178 265.837C143.283 267.281 143.56 268.704 144.002 270.074C144.695 272.797 148.658 277.034 151.089 276.799C153.52 276.564 155.852 273.537 155.267 271.71C154.272 269.217 152.939 266.89 151.311 264.802C150.281 263.714 149.408 263.68 149.597 262.488C149.787 261.296 151.056 263.14 150.998 261.487C151.046 259.783 150.628 258.101 149.795 256.641C148.815 255.101 148.518 253.596 147.579 251.604C146.639 249.612 144.802 249.246 144.95 248.803C145.098 248.359 146.104 248.55 145.271 246.567C144.439 244.583 144.39 245.932 143.5 242.895C142.61 239.859 142.206 238.041 141.341 238.31C140.476 238.58 140.608 237.232 140.303 235.118C139.998 233.003 140.723 233.786 139.479 231.49C138.234 229.193 131.939 229.68 131.939 229.68Z" fill="white"/>
<path d="M133.603 304.413L134.699 301.646L132.928 296.087C132.928 296.087 135.894 294.182 140.022 300.507C144.151 306.832 143.879 309.833 143.879 309.833L138.984 309.65C138.302 311.462 138.241 313.469 138.811 315.323C139.808 318.176 141.283 317.828 142.593 322.831C143.278 325.12 143.766 327.47 144.052 329.852L159.312 368.88L152.498 368.619L136.018 327.268C136.018 327.268 134.147 325.989 131.074 319.716C128 313.444 125.116 305.292 127.086 303.091C129.055 300.89 133.603 304.413 133.603 304.413Z" fill="white"/>
<path d="M188.029 306.51L185.087 303.63L183.25 298.071C183.25 298.071 178.948 295.887 178.874 302.047C178.8 308.206 181.058 311.312 181.058 311.312L185.952 311.495C185.952 311.495 189.009 314.488 189.858 317.324C190.707 320.16 189.034 319.699 190.913 324.728C191.785 327.166 192.826 329.533 194.027 331.809L204.014 370.62L210.837 370.881L200.554 329.73C200.554 329.73 201.641 328.564 200.628 322.37C199.614 316.175 197.266 308.058 193.788 305.648C192.916 304.958 191.82 304.661 190.74 304.822C189.66 304.984 188.685 305.591 188.029 306.51Z" fill="white"/>
<path d="M76.3601 228.236L188.935 229.01H189.059L189.1 229.141C201.402 268.969 216.193 316.871 232.104 368.341L232.928 371.046L233.027 371.351H232.722L126.426 369.063H126.295L126.245 368.932L76.3601 228.236C76.9534 229.915 96.8365 285.482 126.624 368.81L126.451 368.68L232.747 370.925L232.541 371.22C232.261 370.35 231.981 369.428 231.717 368.515L188.787 229.262L188.951 229.393L76.3601 228.236Z" fill="#263238"/>
<path d="M244.069 335.646H233.415C233.415 335.646 227.96 330.087 226.477 329.304C224.993 328.521 217.709 326.198 217.709 326.198L220.519 334.428C220.959 334.561 221.391 334.72 221.813 334.907C223.675 335.672 223.156 337.412 221.673 337.412H210.944C210.944 337.412 199.952 331.844 198.32 332.862C196.953 333.732 196.475 335.255 197.875 337.412C199.276 339.57 208.909 344.642 210.013 345.033L213.161 346.008L210.203 346.982L196.195 341.823C195.28 341.649 194.027 341.492 193.615 342.049C193.438 342.239 193.298 342.464 193.205 342.713C193.112 342.961 193.068 343.226 193.075 343.493C193.082 343.759 193.14 344.022 193.246 344.264C193.351 344.507 193.502 344.724 193.69 344.903C195.686 346.808 197.803 348.566 200.026 350.166C200.026 350.166 197.793 353.646 199.639 355.386C201.485 357.126 206.857 362.425 206.857 362.425C206.857 362.425 207.417 365.357 209.082 366.722C210.746 368.088 229.072 368.088 230.366 368.088C231.659 368.088 239.067 363.599 239.067 363.599L243.912 363.06L244.069 335.646Z" fill="#FFBE9D"/>
<path d="M212.304 355.752C211.657 355.971 210.98 356.068 210.301 356.039C209.553 356.041 208.811 355.903 208.109 355.63C207.27 355.28 206.471 354.83 205.728 354.29C204.138 353.203 202.72 352.193 201.699 351.445C201.126 351.078 200.593 350.646 200.108 350.158C200.729 350.429 201.32 350.771 201.872 351.176C202.926 351.854 204.344 352.82 205.992 353.907C206.712 354.429 207.479 354.875 208.282 355.238C208.939 355.52 209.635 355.681 210.342 355.717C211.529 355.778 212.304 355.673 212.304 355.752Z" fill="#EB996E"/>
<path d="M213.144 362.99C213.185 362.99 212.749 363.547 211.76 363.817C210.464 364.109 209.112 363.87 207.978 363.147C206.866 362.48 205.836 361.67 204.912 360.737C204.501 360.383 204.147 359.96 203.866 359.484C203.965 359.362 205.646 361.224 208.184 362.747C209.235 363.421 210.476 363.688 211.694 363.503C212.191 363.378 212.676 363.206 213.144 362.99Z" fill="#EB996E"/>
<path d="M218.36 346.973C217.388 347.101 216.402 347.021 215.46 346.738C214.489 346.603 213.554 346.266 212.708 345.747C213.669 345.836 214.621 346.02 215.55 346.295C216.505 346.43 217.445 346.657 218.36 346.973Z" fill="#EB996E"/>
<path d="M72.2072 253.666C71.685 253.352 71.2283 252.93 70.8646 252.425C70.5008 251.92 70.2375 251.342 70.0905 250.727C69.9435 250.112 69.9158 249.472 70.0091 248.845C70.1024 248.218 70.3147 247.618 70.6334 247.08C71.0233 246.314 71.5901 245.665 72.2814 245.192C74.0695 244.192 89.8903 241.06 91.5877 240.842C93.2851 240.625 93.5983 244.035 91.3817 245.732C89.1651 247.428 72.2484 253.683 72.2484 253.683L72.2072 253.666Z" fill="#FFBE9D"/>
<path d="M75.8905 265.776C75.3714 265.461 74.9176 265.04 74.556 264.536C74.1944 264.032 73.9324 263.457 73.7856 262.844C73.6387 262.231 73.6101 261.594 73.7013 260.969C73.7926 260.344 74.0018 259.745 74.3166 259.208C74.7041 258.44 75.2715 257.79 75.9646 257.32C77.7527 256.319 93.9031 251.839 95.271 252.97C96.919 254.275 97.2815 256.154 95.065 257.859C92.8484 259.565 75.9317 265.811 75.9317 265.811L75.8905 265.776Z" fill="#FFBE9D"/>
<path d="M79.1041 263.271C78.3579 263.452 77.6588 263.806 77.0564 264.305C76.454 264.804 75.9631 265.437 75.6185 266.159C75.2407 266.936 75.1272 267.827 75.2972 268.682C75.5584 269.962 76.1441 271.144 76.9916 272.1C77.8392 273.056 78.9168 273.751 80.1094 274.111C83.0016 275.068 92.4199 272.832 92.4199 272.832L90.2445 266.42L96.8365 264.141C99.5228 263.01 98.2209 258.573 94.9908 259.434C93.9361 259.712 82.878 262.279 79.1041 263.271Z" fill="#FFBE9D"/>
<path d="M74.1601 259.382C73.6402 259.068 73.1855 258.646 72.8232 258.143C72.461 257.639 72.1986 257.064 72.0517 256.451C71.9048 255.837 71.8764 255.199 71.9683 254.574C72.0601 253.95 72.2703 253.351 72.5862 252.813C72.9761 252.047 73.543 251.398 74.2342 250.925C76.0223 249.925 90.4094 247.219 92.0821 246.845C93.7548 246.471 95.5511 249.734 93.3346 251.43C91.118 253.127 74.1601 259.382 74.1601 259.382Z" fill="#FFBE9D"/>
<path d="M90.4177 253.283C89.5957 253.58 88.7525 253.807 87.8962 253.962C86.3306 254.327 84.1635 254.832 81.7657 255.302C79.7229 255.641 77.7632 256.401 75.9977 257.537C75.3062 258.078 74.688 258.716 74.1602 259.434C74.1602 259.434 74.2261 259.173 74.465 258.764C74.8184 258.19 75.2647 257.687 75.7834 257.276C76.5371 256.676 77.37 256.195 78.2554 255.85C79.3457 255.432 80.4639 255.1 81.6009 254.858C84.007 254.353 86.1906 253.936 87.7726 253.649C88.6424 253.445 89.5275 253.322 90.4177 253.283Z" fill="#EB996E"/>
<path d="M87.6408 247.733C86.8547 248.013 86.0468 248.219 85.2265 248.35L79.3514 249.551C77.4016 249.892 75.5409 250.66 73.8882 251.804C73.2798 252.363 72.7276 252.987 72.2402 253.666C72.2402 253.666 72.3062 253.414 72.5286 253.022C72.8494 252.465 73.256 251.968 73.7317 251.552C74.9265 250.438 77.0277 249.638 79.2937 249.116C81.5597 248.594 83.6856 248.298 85.2018 248.037C86.0052 247.863 86.8211 247.761 87.6408 247.733Z" fill="#EB996E"/>
<path d="M90.6401 260.391C89.9059 260.702 89.1478 260.947 88.3741 261.122C86.9651 261.522 84.9957 262.053 82.8039 262.435C80.923 262.691 79.1069 263.329 77.4561 264.315C76.8446 264.795 76.2911 265.354 75.8081 265.976C75.8081 265.976 75.8658 265.742 76.0965 265.376C76.4384 264.865 76.859 264.418 77.3407 264.054C78.9749 262.964 80.8134 262.26 82.7297 261.992C84.9298 261.609 86.8497 261.122 88.3164 260.817C89.0767 260.599 89.8546 260.456 90.6401 260.391Z" fill="#EB996E"/>
<path d="M91.5299 265.976C90.4399 266.595 89.2873 267.083 88.0939 267.429C86.9367 267.911 85.7314 268.253 84.5012 268.447C85.5899 267.827 86.7429 267.343 87.9373 267.003C89.0943 266.519 90.2995 266.174 91.5299 265.976Z" fill="#EB996E"/>
<path d="M427.911 165.526C428.916 163.976 430.248 162.694 431.803 161.782C433.358 160.87 435.093 160.353 436.87 160.272C438.647 160.191 440.418 160.548 442.041 161.314C443.665 162.081 445.097 163.237 446.225 164.69C447.352 166.142 448.143 167.852 448.536 169.684C448.929 171.516 448.912 173.419 448.487 175.243C448.062 177.067 447.24 178.761 446.088 180.191C444.935 181.621 443.482 182.748 441.845 183.483C443.668 184.428 445.064 186.095 445.731 188.121C446.397 190.146 446.279 192.368 445.404 194.303C444.528 196.238 442.965 197.73 441.054 198.455C439.143 199.181 437.038 199.081 435.196 198.177C434.297 201.518 430.754 203.537 427.475 203.302C424.195 203.067 421.237 201.014 418.996 198.473C416.663 195.833 414.985 192.623 414.113 189.132C413.24 185.64 413.199 181.975 413.994 178.463C415.741 171.503 421.41 165.674 428.175 164.474" fill="#263238"/>
<path d="M433.119 160.08C433.119 160.08 433.177 160.158 433.259 160.324C433.379 160.566 433.484 160.815 433.572 161.072C433.918 162.032 434.132 163.04 434.207 164.065C434.332 165.629 434.166 167.204 433.721 168.702C433.164 170.616 432.151 172.348 430.779 173.73V173.443C431.914 175.081 432.663 176.981 432.963 178.985C433.367 181.437 433.061 183.96 432.087 186.226C431.112 188.492 429.514 190.395 427.499 191.687C426.303 192.481 424.979 193.038 423.594 193.331C423.221 193.411 422.844 193.464 422.465 193.488C422.331 193.501 422.195 193.501 422.061 193.488C422.061 193.436 422.605 193.392 423.561 193.157C424.9 192.798 426.175 192.21 427.335 191.417C428.672 190.497 429.818 189.299 430.703 187.897C431.589 186.495 432.196 184.918 432.487 183.261C432.778 181.604 432.748 179.902 432.397 178.257C432.047 176.613 431.384 175.061 430.449 173.696L430.342 173.539L430.474 173.408C431.809 172.088 432.802 170.429 433.358 168.589C433.815 167.138 434.008 165.609 433.927 164.082C433.837 162.715 433.565 161.367 433.119 160.08Z" fill="#455A64"/>
<path d="M466.071 157.661C465.684 157.949 465.276 158.205 464.851 158.427C464.027 158.888 462.89 159.541 461.448 160.324C458.548 161.898 454.51 163.978 449.97 166.118C445.43 168.258 441.26 170.033 438.22 171.26C436.704 171.869 435.468 172.356 434.602 172.669C434.166 172.852 433.717 173 433.259 173.113C433.672 172.874 434.101 172.67 434.545 172.504L438.113 170.964C441.12 169.659 445.265 167.832 449.797 165.744C454.329 163.656 458.383 161.576 461.333 160.08L464.802 158.34C465.208 158.08 465.632 157.853 466.071 157.661Z" fill="#7860A0"/>
<path d="M455.334 146.386C455.408 146.482 450.885 151.049 445.224 156.583C439.563 162.116 434.907 166.544 434.825 166.448C434.742 166.353 439.274 161.82 444.96 156.252C450.646 150.684 455.252 146.299 455.334 146.386Z" fill="#7860A0"/>
<path d="M406.059 127.542C406.059 118.181 395.462 117.72 390.106 120.06C387.222 115.884 385.162 113.779 378.529 113.344C373.659 113.013 366.235 115.597 362.494 120.773C360.658 123.404 359.507 126.498 359.157 129.745C358.807 132.992 359.27 136.279 360.5 139.278C361.324 141.253 362.502 143.237 362.272 145.368C361.934 148.466 358.926 150.275 356.982 152.615C355.387 154.624 354.47 157.135 354.375 159.754C354.28 162.373 355.011 164.951 356.454 167.084C358.341 169.694 361.341 171.581 362.338 174.713C363.162 177.323 362.387 180.203 362.544 182.97C362.832 188.059 366.49 192.54 370.973 194.375C375.456 196.211 380.589 195.802 385.121 194.062" fill="#263238"/>
<path d="M367.298 225.739L383.918 217.909L384.486 206.173C384.486 206.173 371.995 204.224 369.119 187.12C367.693 178.611 367.866 164.613 368.353 153.19C368.798 142.88 379.131 132.405 388.862 133.31L420.471 139.043V144.585L420.759 215.264L437.107 223.59L400.027 269.839L367.298 225.739Z" fill="#A36957"/>
<path d="M374.261 165.3C374.265 165.872 374.481 166.42 374.863 166.827C375.245 167.233 375.762 167.466 376.304 167.475C376.569 167.491 376.835 167.452 377.085 167.359C377.336 167.266 377.566 167.122 377.763 166.934C377.96 166.746 378.12 166.519 378.233 166.265C378.346 166.011 378.41 165.737 378.422 165.457C378.418 164.883 378.202 164.334 377.82 163.927C377.439 163.519 376.921 163.284 376.378 163.273C376.112 163.255 375.846 163.294 375.594 163.387C375.343 163.48 375.112 163.625 374.914 163.814C374.717 164.003 374.557 164.232 374.445 164.487C374.333 164.743 374.27 165.019 374.261 165.3Z" fill="#263238"/>
<path d="M371.352 160.358C371.616 160.637 373.173 159.375 375.414 159.341C377.656 159.306 379.32 160.463 379.534 160.167C379.658 160.037 379.386 159.523 378.661 158.984C377.686 158.299 376.536 157.944 375.365 157.966C374.197 157.984 373.066 158.395 372.135 159.14C371.451 159.706 371.22 160.228 371.352 160.358Z" fill="#263238"/>
<path d="M395.215 165.3C395.217 165.874 395.432 166.424 395.814 166.833C396.197 167.241 396.715 167.475 397.259 167.484C397.524 167.5 397.79 167.46 398.041 167.367C398.292 167.274 398.523 167.128 398.72 166.939C398.918 166.751 399.077 166.522 399.19 166.268C399.302 166.013 399.366 165.737 399.376 165.457C399.37 164.884 399.153 164.336 398.772 163.929C398.391 163.522 397.875 163.286 397.333 163.273C397.067 163.255 396.8 163.294 396.549 163.387C396.297 163.48 396.066 163.625 395.869 163.814C395.671 164.003 395.512 164.232 395.399 164.487C395.287 164.743 395.224 165.019 395.215 165.3Z" fill="#263238"/>
<path d="M393.402 160.385C393.666 160.672 395.232 159.401 397.473 159.367C399.714 159.332 401.379 160.489 401.593 160.193C401.708 160.063 401.436 159.549 400.711 159.01C399.735 158.328 398.585 157.976 397.415 158.001C396.249 158.017 395.117 158.425 394.185 159.167C393.501 159.741 393.279 160.263 393.402 160.385Z" fill="#263238"/>
<path d="M385.566 178.098C385.566 177.967 384.174 177.741 381.908 177.471C381.331 177.419 380.787 177.315 380.688 176.906C380.627 176.281 380.751 175.652 381.042 175.105C381.553 173.626 382.089 172.086 382.69 170.468C384.932 163.865 386.538 158.444 386.291 158.349C386.044 158.253 384.017 163.569 381.776 170.129C381.232 171.755 380.721 173.313 380.227 174.792C379.88 175.53 379.79 176.374 379.971 177.176C380.058 177.388 380.189 177.576 380.354 177.727C380.52 177.878 380.716 177.986 380.927 178.046C381.245 178.13 381.571 178.174 381.899 178.176C384.149 178.246 385.558 178.237 385.566 178.098Z" fill="#263238"/>
<path d="M384.487 206.19C392.138 206.17 399.635 203.908 406.141 199.656C406.141 199.656 400.571 211.749 384.281 210.453L384.487 206.19Z" fill="#7C3B29"/>
<path d="M386.604 183.788C387.023 183.213 387.573 182.76 388.203 182.471C388.833 182.182 389.522 182.066 390.205 182.135C390.7 182.175 391.182 182.319 391.623 182.558C392.064 182.797 392.456 183.126 392.776 183.527C393.083 183.917 393.268 184.398 393.308 184.903C393.348 185.409 393.24 185.915 392.999 186.354C392.65 186.792 392.184 187.109 391.663 187.264C391.141 187.419 390.587 187.405 390.073 187.224C389.008 186.85 388.023 186.259 387.173 185.484C386.918 185.298 386.698 185.065 386.522 184.797C386.442 184.667 386.4 184.516 386.4 184.362C386.4 184.207 386.442 184.056 386.522 183.927" fill="#7C3B29"/>
<path d="M392.224 179.611C391.861 179.611 391.894 182.169 389.843 184.031C387.791 185.893 385.195 185.658 385.179 186.023C385.179 186.18 385.764 186.511 386.827 186.519C388.254 186.515 389.634 185.979 390.724 185.005C391.77 184.069 392.429 182.74 392.562 181.299C392.636 180.229 392.356 179.594 392.224 179.611Z" fill="#263238"/>
<path d="M392.669 151.119C392.9 151.754 395.141 151.406 397.77 151.693C400.398 151.98 402.549 152.702 402.887 152.111C403.043 151.832 402.664 151.241 401.791 150.632C400.633 149.888 399.33 149.433 397.981 149.3C396.632 149.168 395.272 149.361 394.004 149.866C393.048 150.301 392.57 150.815 392.669 151.119Z" fill="#263238"/>
<path d="M372.061 153.494C372.464 154.016 374.005 153.433 375.859 153.372C377.713 153.311 379.295 153.668 379.65 153.103C379.806 152.824 379.542 152.285 378.826 151.789C377.89 151.199 376.811 150.914 375.722 150.971C374.634 151.029 373.586 151.425 372.712 152.111C372.094 152.676 371.888 153.233 372.061 153.494Z" fill="#263238"/>
<path d="M364.068 132.24C366.54 138.33 372.217 147.361 378.43 148.161C381.545 148.516 384.694 148.024 387.578 146.733C390.462 145.442 392.986 143.394 394.91 140.783C395.85 145.673 400.991 148.265 405.622 149.075C408.918 149.649 412.395 149.684 415.51 148.37C418.625 147.056 421.278 144.203 421.764 140.723C422.251 137.243 417.57 128.664 414.282 128.021" fill="#263238"/>
<path d="M406.792 144.42C405.705 146.987 405.623 149.904 406.563 152.536C407.503 155.167 409.389 157.3 411.81 158.471C409.52 161.472 409.108 165.726 409.981 169.476C410.855 173.226 412.857 176.575 415.008 179.699C415.008 179.699 409.421 188.233 420.668 194.489C420.668 194.489 428.562 191.879 425.036 179.342C424.755 178.444 424.808 177.468 425.184 176.61C425.675 175.883 426.353 175.318 427.137 174.983C430.102 173.239 432.3 170.334 433.254 166.895C434.208 163.455 433.843 159.758 432.237 156.6C431.742 155.798 431.372 154.916 431.141 153.99C430.919 152.581 429.897 148.901 430.317 147.552C432.732 140.514 429.625 131.77 421.806 127.429C415.535 123.949 407.682 123.366 402.854 128.873" fill="#263238"/>
<path d="M450.456 281.28L461.168 237.04L431.117 219.579L402.112 266.786L375.835 220.884L348.766 233.821C346.986 234.675 345.556 236.175 344.737 238.049L320.248 307.98L353.339 319.29L357.13 303.082L361.489 331.07L348.898 404.515L456.949 404.098L437.799 328.695L440.461 311.878L450.456 281.28Z" fill="#7860A0"/>
<g opacity="0.3">
<path d="M359.742 338.621C367.158 339.944 373.832 333.01 381.347 332.949C388.277 332.897 394.029 338.63 400.777 340.292C403.752 341.023 406.998 340.997 409.569 342.719C411.547 344.042 412.865 346.199 414.217 348.209C420.815 357.72 430.44 364.401 441.326 367.027C442.974 367.418 446.666 368.767 447.679 367.297L446.608 362.79L445.669 349.122L409.462 321.282L368.139 323.423L359.742 338.621Z" fill="black"/>
</g>
<path d="M439.11 274.598H416.754V278.504H439.11V274.598Z" fill="#263238"/>
<path d="M440.626 322.326C449.69 325.719 459.578 325.206 469.037 323.736C471.287 323.379 473.635 322.927 475.407 321.422C476 320.926 477.434 319.682 477.409 319.351C477.343 318.437 475.761 317.219 474.863 316.463C471.421 313.655 467.449 311.658 463.215 310.608C458.98 309.557 454.582 309.477 450.316 310.373C448.041 310.805 445.866 311.691 443.905 312.983C441.985 314.34 440.782 315.088 440.123 317.428" fill="#7860A0"/>
<g opacity="0.3">
<path d="M440.626 322.326C449.69 325.719 459.578 325.206 469.037 323.736C471.287 323.379 473.635 322.927 475.407 321.422C476 320.926 477.434 319.682 477.409 319.351C477.343 318.437 475.761 317.219 474.863 316.463C471.421 313.655 467.449 311.658 463.215 310.608C458.98 309.557 454.582 309.477 450.316 310.373C448.041 310.805 445.866 311.691 443.905 312.983C441.985 314.34 440.782 315.088 440.123 317.428" fill="black"/>
</g>
<path d="M477.409 319.351C477.409 319.351 467.917 259.573 467.332 254.24C465.857 241.016 461.143 236.788 461.143 236.788L439.11 307.98L440.634 322.326C440.634 322.326 447.597 311.26 477.409 319.351Z" fill="#7860A0"/>
<path d="M465.263 271.344C465.162 271.848 465.024 272.342 464.851 272.823C464.571 273.772 464.102 275.12 463.492 276.773C461.872 281.072 459.944 285.234 457.724 289.223C455.493 293.201 452.964 296.983 450.159 300.533C449.08 301.89 448.174 302.969 447.523 303.682C447.199 304.065 446.852 304.425 446.484 304.761C446.758 304.335 447.064 303.934 447.399 303.56C448.009 302.812 448.882 301.707 449.929 300.324C452.645 296.721 455.123 292.925 457.345 288.962C459.554 285.002 461.514 280.892 463.212 276.66C463.854 275.024 464.365 273.693 464.695 272.771C464.851 272.281 465.041 271.804 465.263 271.344Z" fill="#263238"/>
<path d="M361.349 329.582C361.322 329.522 361.305 329.457 361.299 329.391C361.299 329.234 361.242 329.043 361.2 328.808C361.126 328.26 361.011 327.52 360.871 326.581C360.558 324.606 360.121 321.822 359.577 318.403C358.44 311.46 356.792 301.977 354.996 291.45C353.199 280.923 351.551 271.44 350.356 264.48L348.997 256.302C348.865 255.371 348.75 254.623 348.667 254.075L348.61 253.492C348.597 253.426 348.597 253.358 348.61 253.292C348.635 253.353 348.652 253.417 348.659 253.483C348.659 253.64 348.725 253.831 348.766 254.057C348.865 254.605 348.997 255.345 349.17 256.276C349.532 258.242 350.035 261.009 350.661 264.419C351.906 271.301 353.611 280.819 355.432 291.337C357.253 301.855 358.827 311.39 359.882 318.307C360.409 321.787 360.797 324.571 361.044 326.511C361.151 327.459 361.233 328.208 361.299 328.756C361.299 328.991 361.299 329.182 361.349 329.338C361.359 329.419 361.359 329.501 361.349 329.582Z" fill="#263238"/>
<path d="M452.088 257.52C452.07 257.747 452.031 257.971 451.972 258.19C451.873 258.668 451.741 259.304 451.568 260.095C451.198 261.792 450.678 264.176 450.036 267.055C448.726 272.963 446.913 281.114 444.993 290.145C443.073 299.176 441.4 307.362 440.296 313.313C439.752 316.289 439.307 318.698 439.035 320.369C438.904 321.169 438.788 321.804 438.706 322.292C438.681 322.516 438.634 322.738 438.566 322.953C438.566 322.725 438.586 322.498 438.623 322.274C438.689 321.787 438.772 321.143 438.871 320.343C439.093 318.655 439.489 316.236 439.999 313.252C441.029 307.284 442.645 299.08 444.573 290.041C446.501 281.001 448.355 272.867 449.739 266.977C450.431 264.071 451 261.705 451.387 260.017C451.585 259.234 451.75 258.608 451.865 258.129C451.92 257.919 451.995 257.715 452.088 257.52Z" fill="#263238"/>
<path d="M368.872 223.947C368.942 224.029 369.002 224.12 369.053 224.216L369.564 225.086C370.017 225.835 370.66 226.913 371.484 228.297L378.471 240.12L401.543 279.592H401.189L402.277 277.965C403.455 276.225 404.609 274.485 405.696 272.884V273.18L384.404 235.901C381.734 231.194 379.584 227.392 378.092 224.747L376.403 221.728L375.975 220.937C375.918 220.85 375.871 220.756 375.835 220.658C375.898 220.737 375.956 220.822 376.008 220.91L376.469 221.685C376.881 222.381 377.474 223.425 378.224 224.669C379.749 227.279 381.94 231.063 384.651 235.744L406.075 272.945L406.141 273.067L406.067 273.189C404.971 274.807 403.818 276.53 402.648 278.27L401.552 279.896L401.362 280.175L401.197 279.888L378.216 240.303C375.316 235.265 372.967 231.194 371.336 228.349C370.512 226.957 369.918 225.861 369.482 225.095L369.012 224.225C368.956 224.138 368.909 224.044 368.872 223.947Z" fill="#263238"/>
<path d="M431.092 219.318C431.064 219.409 431.023 219.494 430.968 219.571L430.548 220.284L428.9 223.016L422.803 233.064L402.252 266.646V266.403C403.158 267.969 404.123 269.639 405.103 271.318L406.026 272.91H405.663C410.064 265.95 414.118 259.286 417.834 253.24C421.55 247.193 424.937 241.79 427.887 237.336C430.837 232.882 433.3 229.349 435.031 226.896L437.05 224.138L437.585 223.425C437.643 223.344 437.706 223.268 437.775 223.198C437.732 223.292 437.68 223.379 437.618 223.46L437.116 224.19C436.654 224.852 436.003 225.8 435.163 227C433.515 229.445 431.043 233.003 428.134 237.44C425.225 241.877 421.847 247.324 418.164 253.388C414.48 259.451 410.443 266.22 406.042 273.18L405.853 273.476L405.68 273.171L404.757 271.579L401.914 266.664L401.84 266.551L401.914 266.429L422.58 232.925L428.785 222.955L430.482 220.267L430.927 219.579L431.092 219.318Z" fill="#263238"/>
<path d="M372.085 303.004C370.453 302.26 368.619 302.179 366.934 302.776C365.249 303.374 363.832 304.607 362.956 306.24C362.291 307.632 362.03 309.2 362.206 310.748C362.382 312.295 362.987 313.754 363.944 314.94C365.897 317.132 370.627 318.629 372.827 315.984L372.085 303.004Z" fill="#EBEBEB"/>
<path d="M372.085 303.004C372.143 303.308 372.179 303.616 372.193 303.926C372.242 304.604 372.316 305.492 372.399 306.579C372.555 308.954 372.769 312.2 373.017 316.01V316.097L372.967 316.158C372.476 316.699 371.873 317.114 371.206 317.37C370.539 317.627 369.825 317.718 369.119 317.637C367.614 317.533 366.161 317.011 364.908 316.123C363.692 315.275 362.788 314.014 362.346 312.548C361.935 311.2 361.841 309.766 362.074 308.372C362.277 307.104 362.804 305.919 363.598 304.944C364.283 304.111 365.125 303.438 366.07 302.969C367.451 302.29 369.003 302.098 370.495 302.421C371.037 302.53 371.559 302.727 372.044 303.004C372.003 303.004 371.5 302.786 370.47 302.595C369.016 302.348 367.525 302.582 366.202 303.265C365.221 303.737 364.365 304.455 363.709 305.358C363.052 306.26 362.615 307.319 362.436 308.441C362.219 309.768 362.315 311.13 362.717 312.408C363.132 313.778 363.978 314.957 365.114 315.749C366.305 316.589 367.682 317.087 369.111 317.193C369.754 317.274 370.406 317.198 371.017 316.972C371.628 316.746 372.183 316.375 372.638 315.888L372.588 316.036C372.407 312.26 372.258 309.076 372.143 306.692C372.102 305.588 372.069 304.683 372.044 303.995C372.037 303.664 372.051 303.333 372.085 303.004Z" fill="#263238"/>
<path d="M366.194 303.004C366.194 303.004 368.542 251.9 369.754 244.574C370.965 237.249 374.08 225.434 378.982 218.24C383.671 211.393 384.132 210.914 384.132 210.914L383.819 217.291C379.372 225.545 376.196 234.493 374.409 243.8C371.797 258.277 370.001 302.96 370.001 302.96L366.194 303.004Z" fill="#263238"/>
<path d="M434.981 312.139C433.606 312.123 432.246 311.827 430.977 311.269L431.603 309.659C433.282 310.436 435.161 310.592 436.934 310.103C437.809 309.831 438.615 309.352 439.29 308.705C439.965 308.057 440.492 307.256 440.832 306.362C441.368 304.595 441.397 302.7 440.914 300.916C440.582 299.594 440.172 298.295 439.686 297.027C439.48 296.461 439.274 295.896 439.077 295.287C435.616 285.012 436.217 273.537 436.745 263.366L438.393 263.462C437.874 273.441 437.289 284.76 440.642 294.704C440.832 295.269 441.03 295.817 441.227 296.374C441.744 297.709 442.179 299.078 442.529 300.472C443.1 302.599 443.049 304.858 442.381 306.953C441.959 308.097 441.293 309.124 440.436 309.953C439.579 310.783 438.553 311.393 437.437 311.738C436.642 311.999 435.814 312.134 434.981 312.139Z" fill="#E0E0E0"/>
<path d="M434.825 312.904C432.073 312.904 429.666 311.538 427.574 308.807C424.854 305.274 424.418 296.513 424.039 288.797C423.907 286.03 423.775 283.42 423.544 281.523C422.72 274.842 419.103 265.863 419.07 265.785L420.578 265.098C420.734 265.472 424.335 274.372 425.176 281.306C425.415 283.263 425.546 285.908 425.687 288.701C426.033 295.8 426.469 304.639 428.851 307.728C432.443 312.4 436.802 312.356 442.982 307.58L443.955 308.989C440.552 311.591 437.544 312.904 434.825 312.904Z" fill="#EBEBEB"/>
<path d="M440.634 309.068C440.941 308.174 441.366 307.331 441.895 306.562C442.398 305.811 443.162 305.301 444.021 305.144C444.45 305.09 444.884 305.18 445.262 305.4C445.64 305.62 445.944 305.959 446.13 306.371C446.292 306.802 446.343 307.271 446.276 307.73C446.21 308.189 446.028 308.62 445.751 308.981C445.213 309.644 444.468 310.083 443.65 310.216C442.854 310.325 442.048 310.325 441.252 310.216" fill="#263238"/>
<path d="M424.187 233.247C430.641 241.993 434.511 252.554 435.311 263.61H438.739C438.03 250.939 433.322 238.883 425.365 229.367C426.23 226.479 426.861 223.519 427.252 220.519C428.01 213.724 420.949 209.609 420.949 209.609V214.76C421.84 215.293 422.579 216.071 423.086 217.012C423.594 217.952 423.852 219.019 423.833 220.101C423.676 223.764 421.072 231.551 418.526 238.267C416.382 243.776 415.423 249.719 415.716 255.667C415.955 263.279 418.773 266.733 418.773 266.733L422.176 265.211C422.176 265.211 420.141 262.523 419.259 255.171C418.584 249.551 420.158 245.157 421.525 241.094C422.218 239.076 423.215 236.292 424.187 233.247Z" fill="#263238"/>
<path d="M325.703 309.633L321.583 326.224C320.89 328.858 320.859 331.636 321.49 334.287C322.121 336.938 323.394 339.37 325.183 341.345C325.406 341.579 325.637 341.814 325.867 342.032C328.019 344.064 330.665 345.424 333.507 345.957C336.35 346.49 339.277 346.176 341.96 345.051L384.635 327.12L378.331 306.806L346.022 316.523L325.703 309.633Z" fill="#A36957"/>
<path d="M360.739 281.984L368.476 325.484C368.638 326.403 369.108 327.23 369.799 327.813C370.49 328.396 371.358 328.697 372.242 328.66L431.356 326.25C432.331 326.209 433.252 325.763 433.917 325.008C434.583 324.254 434.938 323.252 434.907 322.222L433.556 281.123C433.524 280.113 433.12 279.156 432.431 278.454C431.742 277.753 430.822 277.362 429.864 277.365H364.365C363.822 277.363 363.285 277.489 362.793 277.732C362.302 277.976 361.867 278.331 361.52 278.772C361.174 279.214 360.924 279.731 360.789 280.286C360.654 280.841 360.637 281.421 360.739 281.984Z" fill="#455A64"/>
<path d="M425.324 299.698C424.217 299.695 423.135 300.046 422.22 300.704C421.306 301.362 420.601 302.297 420.199 303.386C419.375 305.744 418.089 308.493 416.705 309.285C414.142 310.764 409.709 311.947 407.385 310.738C405.062 309.529 395.734 300.681 394.103 301.664C392.471 302.647 391.07 304.857 392.702 306.832C394.333 308.806 402.936 314.705 401.288 316.68C399.64 318.655 381.512 309.981 378.686 310.747C375.859 311.512 374.261 313.357 375.892 314.514C377.524 315.671 389.9 320.604 390.568 322.344C390.568 322.344 371.929 317.176 371.228 318.411C370.528 319.647 369.366 321.604 371.228 322.344C373.091 323.083 389.175 327.511 390.568 328.251C392.88 329.267 395.293 330.008 397.761 330.461C398.264 330.461 401.881 331.757 405.268 332.975C409.041 334.359 413.162 334.245 416.861 332.653L418.748 331.835C420.178 331.217 421.388 330.142 422.211 328.762C423.034 327.381 423.428 325.764 423.338 324.136L422.959 317.428L424.994 311.886L425.324 299.698Z" fill="#A36957"/>
<path d="M410.393 333.915C410.393 333.915 444.408 366.427 455.861 366.522C467.933 366.618 474.731 353.394 473.446 345.173C472.753 340.823 470.974 317.863 470.974 317.863C462.89 315.532 450.81 314.488 442.199 320.534L445.339 333.915L422.629 322.326L410.393 333.915Z" fill="#A36957"/>
<path d="M477.409 319.351C477.278 319.344 477.148 319.321 477.022 319.281L475.918 319.003C474.97 318.759 473.594 318.403 471.888 317.994C467.464 316.868 462.926 316.313 458.375 316.341C455.885 316.424 453.405 316.715 450.959 317.211C448.95 317.581 446.987 318.191 445.108 319.029C443.848 319.607 442.671 320.372 441.615 321.3C440.881 321.97 440.527 322.405 440.494 322.378C440.555 322.254 440.632 322.14 440.725 322.039C440.968 321.732 441.229 321.442 441.507 321.169C442.539 320.172 443.712 319.353 444.985 318.742C446.869 317.843 448.85 317.192 450.885 316.802C453.36 316.269 455.874 315.957 458.399 315.871C462.984 315.833 467.553 316.435 471.987 317.663C473.693 318.116 475.061 318.533 476 318.82L477.071 319.177C477.285 319.29 477.417 319.334 477.409 319.351Z" fill="#263238"/>
<path d="M576.635 404.289C576.635 404.411 456.801 404.515 309.016 404.515C161.232 404.515 41.3647 404.411 41.3647 404.289C41.3647 404.167 161.174 404.063 309.016 404.063C456.858 404.063 576.635 404.167 576.635 404.289Z" fill="#263238"/>
<path d="M505.112 365.287C506.851 367.897 510.18 366.983 511.704 365.391C513.228 363.799 513.871 361.502 514.448 359.301C515.775 354.307 517.101 349.061 516.055 343.998C515.804 342.46 515.154 341.027 514.176 339.857C513.682 339.279 513.053 338.848 512.351 338.607C511.65 338.365 510.901 338.323 510.18 338.482C508.532 338.969 507.477 340.718 506.735 342.371C504.551 347.269 503.426 352.618 503.439 358.031C503.439 360.545 503.752 363.19 505.087 365.252" fill="#7860A0"/>
<g opacity="0.2">
<path d="M505.112 365.287C506.851 367.897 510.18 366.983 511.704 365.391C513.228 363.799 513.871 361.502 514.448 359.301C515.775 354.307 517.101 349.061 516.055 343.998C515.804 342.46 515.154 341.027 514.176 339.857C513.682 339.279 513.053 338.848 512.351 338.607C511.65 338.365 510.901 338.323 510.18 338.482C508.532 338.969 507.477 340.718 506.735 342.371C504.551 347.269 503.426 352.618 503.439 358.031C503.439 360.545 503.752 363.19 505.087 365.252" fill="black"/>
</g>
<path d="M511.655 378.337C514.52 376.892 517.747 376.45 520.867 377.075C522.572 377.221 524.182 377.966 525.44 379.19C526.585 380.503 526.816 382.835 525.522 383.983C524.683 384.593 523.67 384.876 522.655 384.784C520.183 384.784 517.505 384.34 515.569 385.906C514.464 386.776 513.739 388.272 512.413 388.716C511.749 388.882 511.052 388.817 510.427 388.53C509.802 388.242 509.281 387.749 508.944 387.124C508.3 385.838 508.149 384.339 508.523 382.939C508.673 381.969 509.033 381.048 509.577 380.25C510.12 379.451 510.831 378.796 511.655 378.337Z" fill="#7860A0"/>
<path d="M500.448 369.037C501.325 367.811 501.905 366.377 502.136 364.861C502.368 363.344 502.243 361.791 501.775 360.337C500.805 357.434 499.094 354.872 496.831 352.933C494.271 350.571 491.302 348.754 488.088 347.582C486.843 347.068 485.509 346.839 484.174 346.912C483.502 346.956 482.849 347.173 482.275 347.545C481.7 347.916 481.221 348.431 480.878 349.044C479.98 350.888 480.878 353.116 481.834 354.934C483.527 358.137 485.455 361.194 487.602 364.078C489.324 366.392 491.31 368.68 493.922 369.707C496.534 370.733 499.253 370.577 500.621 368.671" fill="#7860A0"/>
<path d="M505.301 404.306C505.391 403.919 505.441 403.522 505.45 403.123C505.524 402.253 505.615 401.2 505.722 399.922C505.86 398.339 506.078 396.765 506.373 395.206C506.756 393.312 507.283 391.453 507.947 389.647C508.598 387.84 509.492 386.141 510.6 384.601C511.497 383.345 512.648 382.317 513.97 381.591C514.866 381.113 515.829 380.787 516.821 380.625C517.194 380.605 517.563 380.547 517.925 380.451C517.553 380.408 517.177 380.408 516.805 380.451C515.768 380.545 514.757 380.839 513.822 381.321C512.43 382.024 511.214 383.061 510.27 384.349C509.117 385.913 508.19 387.648 507.518 389.499C506.845 391.333 506.321 393.225 505.952 395.154C505.679 396.73 505.494 398.322 505.4 399.922C505.31 401.287 505.285 402.392 505.269 403.149C505.241 403.535 505.252 403.923 505.301 404.306Z" fill="#263238"/>
<path d="M505.491 401.836C505.512 401.654 505.512 401.47 505.491 401.288C505.491 400.879 505.491 400.365 505.491 399.73C505.491 398.373 505.491 396.416 505.491 393.997C505.573 389.16 505.92 382.478 506.628 375.135C507.337 367.793 508.276 361.215 509.199 356.439C509.413 355.247 509.619 354.177 509.825 353.237C510.031 352.298 510.18 351.497 510.336 350.836C510.493 350.175 510.583 349.714 510.674 349.314C510.737 349.302 510.793 349.265 510.832 349.212C510.871 349.158 510.889 349.091 510.883 349.024C510.877 348.957 510.848 348.895 510.801 348.849C510.754 348.804 510.693 348.779 510.629 348.779C510.565 348.779 510.503 348.804 510.456 348.849C510.409 348.895 510.38 348.957 510.374 349.024C510.369 349.091 510.387 349.158 510.426 349.212C510.464 349.265 510.521 349.302 510.583 349.314C510.468 349.705 510.336 350.184 510.163 350.81C509.99 351.437 509.792 352.263 509.57 353.203C509.347 354.142 509.117 355.204 508.878 356.396C507.66 362.581 506.755 368.831 506.167 375.118C505.458 382.478 505.161 389.168 505.17 394.023C505.17 396.45 505.227 398.373 505.293 399.765C505.293 400.391 505.367 400.913 505.392 401.322C505.409 401.496 505.442 401.668 505.491 401.836Z" fill="#263238"/>
<path d="M505.425 388.89C505.467 388.349 505.467 387.805 505.425 387.263C505.359 386.219 505.211 384.705 504.914 382.852C504.112 378.041 502.762 373.349 500.893 368.88C499.095 364.348 496.529 360.199 493.321 356.639C492.768 356.017 492.176 355.436 491.549 354.899C491.277 354.655 491.038 354.421 490.799 354.229L490.107 353.742C489.695 353.416 489.26 353.125 488.805 352.872C490.31 354.103 491.741 355.431 493.09 356.848C496.202 360.432 498.71 364.551 500.506 369.028C501.532 371.47 502.405 373.981 503.118 376.545C503.719 378.637 504.22 380.759 504.618 382.904C504.947 384.731 505.145 386.228 505.26 387.254C505.279 387.803 505.334 388.35 505.425 388.89Z" fill="#263238"/>
<path d="M469.367 68.3994H469.161C467.29 68.3994 465.774 70.0003 465.774 71.9751V106.975C465.774 108.95 467.29 110.551 469.161 110.551H469.367C471.237 110.551 472.753 108.95 472.753 106.975V71.9751C472.753 70.0003 471.237 68.3994 469.367 68.3994Z" fill="#E0E0E0"/>
<path d="M469.367 80.997H469.161C467.29 80.997 465.774 82.5979 465.774 84.5727V106.975C465.774 108.95 467.29 110.551 469.161 110.551H469.367C471.237 110.551 472.753 108.95 472.753 106.975V84.5727C472.753 82.5979 471.237 80.997 469.367 80.997Z" fill="#7860A0"/>
<path d="M480.796 68.3994H480.59C478.719 68.3994 477.203 70.0003 477.203 71.9751V106.975C477.203 108.95 478.719 110.551 480.59 110.551H480.796C482.666 110.551 484.182 108.95 484.182 106.975V71.9751C484.182 70.0003 482.666 68.3994 480.796 68.3994Z" fill="#E0E0E0"/>
<path d="M480.796 87.5307H480.59C478.719 87.5307 477.203 89.1316 477.203 91.1064V106.975C477.203 108.95 478.719 110.551 480.59 110.551H480.796C482.666 110.551 484.182 108.95 484.182 106.975V91.1064C484.182 89.1316 482.666 87.5307 480.796 87.5307Z" fill="#7860A0"/>
<path d="M493.724 68.3994H493.518C491.648 68.3994 490.132 70.0003 490.132 71.9751V106.975C490.132 108.95 491.648 110.551 493.518 110.551H493.724C495.595 110.551 497.111 108.95 497.111 106.975V71.9751C497.111 70.0003 495.595 68.3994 493.724 68.3994Z" fill="#E0E0E0"/>
<path d="M493.724 76.0206H493.518C491.648 76.0206 490.132 77.6215 490.132 79.5963V106.984C490.132 108.959 491.648 110.56 493.518 110.56H493.724C495.595 110.56 497.111 108.959 497.111 106.984V79.5963C497.111 77.6215 495.595 76.0206 493.724 76.0206Z" fill="#7860A0"/>
<path d="M469.367 110.56C469.367 110.56 469.68 110.56 470.24 110.386C471.054 110.14 471.748 109.573 472.177 108.802C472.49 108.257 472.653 107.63 472.646 106.993C472.646 106.27 472.646 105.496 472.646 104.661C472.646 102.991 472.646 101.085 472.646 98.9886C472.646 94.7778 472.646 89.7753 472.646 84.1986C472.646 81.4233 472.646 78.5088 472.646 75.4986V73.2192C472.697 72.4706 472.65 71.7183 472.506 70.9833C472.289 70.2679 471.853 69.6486 471.267 69.2221C470.681 68.7956 469.978 68.5858 469.268 68.6256C468.56 68.6302 467.874 68.8832 467.318 69.3447C466.761 69.8062 466.366 70.45 466.194 71.1747C466.09 71.9233 466.057 72.6811 466.095 73.4367V75.69C466.095 78.7089 466.095 81.6234 466.095 84.39C466.095 89.9406 466.095 94.9431 466.095 99.18C466.095 101.277 466.095 103.173 466.095 104.852C466.095 105.722 466.095 106.471 466.095 107.175C466.13 107.799 466.327 108.401 466.664 108.915C467.144 109.652 467.867 110.173 468.691 110.377C469.26 110.499 469.573 110.473 469.573 110.499C469.275 110.552 468.972 110.552 468.675 110.499C467.81 110.324 467.041 109.807 466.524 109.054C466.15 108.506 465.931 107.858 465.889 107.184C465.889 106.453 465.889 105.688 465.889 104.852C465.889 103.173 465.889 101.277 465.889 99.18C465.889 94.9692 465.889 89.9667 465.84 84.39C465.84 81.606 465.84 78.6915 465.84 75.69C465.84 74.9331 465.84 74.1675 465.84 73.4019V72.2796C465.828 71.8705 465.864 71.4613 465.947 71.0616C466.144 70.2396 466.594 69.5099 467.227 68.9872C467.859 68.4644 468.638 68.1781 469.441 68.1732C470.246 68.1409 471.04 68.3818 471.707 68.8605C472.356 69.3476 472.839 70.0434 473.083 70.8441C473.19 71.2403 473.246 71.6501 473.248 72.0621V73.2192C473.248 73.9935 473.248 74.7504 473.248 75.5073C473.248 78.5349 473.248 81.4494 473.248 84.2073C473.248 89.7579 473.248 94.7604 473.198 98.9973C473.198 101.094 473.198 102.999 473.198 104.67C473.198 105.54 473.198 106.279 473.198 107.001C473.189 107.672 473.007 108.328 472.671 108.898C472.403 109.333 472.048 109.701 471.631 109.976C471.214 110.251 470.745 110.427 470.257 110.49C469.966 110.567 469.665 110.591 469.367 110.56Z" fill="#263238"/>
<path d="M480.787 110.56C480.787 110.56 481.1 110.56 481.661 110.386C482.361 110.18 482.978 109.736 483.415 109.123C483.851 108.509 484.083 107.76 484.075 106.993C484.075 106.27 484.075 105.496 484.075 104.661C484.075 102.991 484.075 101.085 484.075 98.9886C484.075 94.7778 484.075 89.7753 484.075 84.1986C484.075 81.4233 484.075 78.5088 484.075 75.4986V73.2192C484.123 72.4702 484.073 71.7179 483.927 70.9833C483.704 70.2727 483.27 69.657 482.689 69.2275C482.108 68.798 481.412 68.5777 480.703 68.5992C479.995 68.6207 479.312 68.8829 478.755 69.3468C478.199 69.8108 477.799 70.4518 477.615 71.1747C477.514 71.9236 477.483 72.6814 477.524 73.4367C477.524 74.2023 477.524 74.9679 477.524 75.7248C477.524 78.7437 477.524 81.6582 477.524 84.4248C477.524 89.9754 477.524 94.9779 477.475 99.2148C477.475 101.311 477.475 103.208 477.475 104.887C477.475 105.757 477.475 106.505 477.475 107.21C477.517 107.833 477.713 108.433 478.043 108.95C478.526 109.688 479.252 110.209 480.079 110.412C480.639 110.533 480.96 110.507 480.952 110.533C480.655 110.587 480.351 110.587 480.054 110.533C479.309 110.383 478.632 109.976 478.13 109.376C477.627 108.777 477.327 108.018 477.277 107.219C477.277 106.488 477.277 105.722 477.277 104.887C477.277 103.208 477.277 101.311 477.277 99.2148C477.277 95.004 477.277 90.0015 477.236 84.4248C477.236 81.6408 477.236 78.7263 477.236 75.7248V72.2448C477.219 71.8355 477.255 71.4258 477.343 71.0268C477.539 70.204 477.989 69.4735 478.621 68.9505C479.254 68.4275 480.033 68.1418 480.837 68.1384C481.64 68.1049 482.432 68.3459 483.095 68.8257C483.749 69.3096 484.235 70.0063 484.479 70.8093C484.587 71.205 484.64 71.6154 484.635 72.0273V75.5073C484.635 78.5349 484.635 81.4494 484.635 84.2073C484.635 89.7579 484.635 94.7604 484.594 98.9973C484.594 101.094 484.594 102.999 484.594 104.67C484.594 105.54 484.594 106.279 484.594 107.001C484.586 107.674 484.401 108.331 484.059 108.898C483.595 109.691 482.856 110.259 481.999 110.481C481.606 110.606 481.191 110.633 480.787 110.56Z" fill="#263238"/>
<path d="M493.716 110.56C493.716 110.56 494.029 110.56 494.589 110.386C495.29 110.18 495.906 109.736 496.343 109.123C496.78 108.509 497.012 107.76 497.004 106.993C497.004 106.271 497.004 105.496 497.004 104.661C497.004 102.991 497.004 101.085 497.004 98.9886C497.004 94.7778 497.004 89.7753 496.954 84.1986C496.954 81.4233 496.954 78.5088 496.954 75.4986V73.2192C497.002 72.4703 496.952 71.7179 496.806 70.9833C496.583 70.2727 496.149 69.657 495.568 69.2275C494.988 68.7981 494.291 68.5777 493.583 68.5992C492.874 68.6207 492.191 68.8829 491.634 69.3468C491.078 69.8108 490.678 70.4518 490.494 71.1747C490.394 71.9237 490.361 72.6811 490.395 73.4367V75.69C490.395 78.7089 490.395 81.6234 490.395 84.39C490.395 89.9406 490.395 94.9431 490.346 99.18C490.346 101.277 490.346 103.173 490.346 104.852C490.346 105.722 490.346 106.471 490.346 107.175C490.384 107.799 490.58 108.4 490.914 108.915C491.395 109.651 492.118 110.171 492.941 110.377C493.51 110.499 493.823 110.473 493.823 110.499C493.526 110.553 493.222 110.553 492.925 110.499C492.18 110.348 491.503 109.941 491.001 109.342C490.498 108.742 490.198 107.983 490.148 107.184C490.148 106.453 490.148 105.688 490.148 104.852C490.148 103.173 490.148 101.277 490.148 99.18C490.148 94.9692 490.148 89.9667 490.148 84.39C490.148 81.606 490.148 78.6915 490.148 75.69V72.21C490.132 71.8008 490.168 71.391 490.255 70.992C490.451 70.1693 490.901 69.4388 491.533 68.9158C492.166 68.3928 492.945 68.107 493.749 68.1036C494.55 68.0635 495.341 68.3035 495.999 68.7864C496.658 69.2693 497.147 69.9681 497.391 70.7745C497.5 71.1702 497.552 71.5806 497.548 71.9925V75.4725C497.548 78.5001 497.548 81.4146 497.548 84.1725C497.548 89.7231 497.548 94.7256 497.548 98.9625C497.548 101.059 497.548 102.965 497.548 104.635C497.548 105.505 497.548 106.244 497.548 106.967C497.539 107.639 497.354 108.296 497.012 108.863C496.549 109.656 495.809 110.225 494.952 110.447C494.554 110.587 494.131 110.626 493.716 110.56Z" fill="#263238"/>
<path d="M481.447 41.1336C481.696 41.1125 481.947 41.1125 482.196 41.1336L484.413 41.1945C484.899 41.1945 485.451 41.1945 486.061 41.2728L488.014 41.5686L490.296 41.9079L492.843 42.5778C497.23 43.7468 501.406 45.669 505.203 48.2676C510.825 52.0385 515.555 57.1192 519.029 63.12C522.502 69.1207 524.628 75.882 525.242 82.8849C525.413 84.9824 525.452 87.0895 525.358 89.1924C525.292 90.2625 525.308 91.3413 525.16 92.4201C525.012 93.4989 524.855 94.5777 524.698 95.6739C523.928 100.144 522.54 104.471 520.578 108.515C518.464 112.754 515.774 116.643 512.594 120.06C509.227 123.566 505.366 126.501 501.148 128.76C496.786 131.121 492.064 132.653 487.198 133.284C485.965 133.482 484.721 133.592 483.474 133.615C482.224 133.716 480.969 133.739 479.716 133.684C471.681 133.357 463.885 130.705 457.18 126.02L457.633 126.072L442.356 132.545L441.458 132.927L441.713 131.935L446.204 114.692L446.278 115.11C442.133 109.309 439.341 102.558 438.129 95.4042C437.544 92.0605 437.348 88.6539 437.544 85.26C437.573 83.6357 437.716 82.016 437.972 80.4141C438.096 79.6224 438.211 78.8307 438.327 78.0477C438.442 77.2647 438.681 76.5252 438.854 75.7683C441.424 65.1896 447.462 55.9146 455.894 49.59C459.013 47.2235 462.426 45.3235 466.038 43.9437L468.32 43.0737L470.504 42.456L472.482 41.934C473.124 41.8035 473.734 41.7339 474.311 41.6469C475.464 41.4903 476.478 41.2815 477.368 41.2293L479.617 41.151H480.985C481.141 41.1375 481.299 41.1375 481.455 41.151C481.302 41.198 481.144 41.2214 480.985 41.2206L479.626 41.3337L477.393 41.4903C476.511 41.5686 475.506 41.8035 474.36 41.9775C466.073 43.4931 458.38 47.5144 452.214 53.5538C446.048 59.5932 441.673 67.3914 439.62 76.0032C439.456 76.7514 439.241 77.4909 439.11 78.2478C438.978 79.0047 438.887 79.7877 438.78 80.5707C438.532 82.144 438.397 83.7348 438.376 85.3296C438.203 88.644 438.411 91.9684 438.994 95.2302C440.209 102.23 442.963 108.831 447.036 114.501L447.168 114.701L447.111 114.927C445.671 120.501 444.185 126.254 442.653 132.188L442.01 131.579C446.987 129.462 452.077 127.298 457.279 125.089L457.518 124.984L457.732 125.132C464.291 129.705 471.911 132.296 479.766 132.623C480.991 132.674 482.218 132.65 483.441 132.553C484.658 132.533 485.872 132.426 487.075 132.231C491.833 131.622 496.452 130.132 500.72 127.829C504.847 125.627 508.629 122.769 511.935 119.355C515.038 116.001 517.666 112.192 519.738 108.045C521.686 104.09 523.074 99.8544 523.858 95.4738C524.012 94.4008 524.168 93.3394 524.328 92.2896C524.476 91.2369 524.459 90.1755 524.534 89.1315C524.629 87.0666 524.596 84.9974 524.435 82.9371C523.856 76.0408 521.796 69.3746 518.41 63.4454C515.025 57.5161 510.404 52.48 504.898 48.72C501.169 46.1221 497.068 44.1772 492.752 42.9606L490.239 42.2559L487.981 41.8644L486.036 41.5251C485.443 41.4555 484.899 41.4381 484.388 41.4033L482.18 41.2293C481.933 41.2204 481.688 41.1884 481.447 41.1336Z" fill="#263238"/>
</svg>
