<svg width="613" height="600" viewBox="0 0 613 600" fill="none" xmlns="http://www.w3.org/2000/svg">
<path d="M613 458.88H0V459.18H613V458.88Z" fill="#EBEBEB"/>
<path d="M212.368 466.536H183.949V466.836H212.368V466.536Z" fill="#EBEBEB"/>
<path d="M562.452 472.968H492.975V473.268H562.452V472.968Z" fill="#EBEBEB"/>
<path d="M121.852 472.968H52.3748V473.268H121.852V472.968Z" fill="#EBEBEB"/>
<path d="M290.562 405.36H53.8337C51.9791 405.357 50.2017 404.634 48.8915 403.349C47.5813 402.064 46.8455 400.323 46.8455 398.508V72.792C46.8616 70.9872 47.6046 69.2616 48.913 67.9899C50.2215 66.7181 51.9897 66.0031 53.8337 66H290.562C292.419 66 294.199 66.7219 295.512 68.0069C296.825 69.2919 297.562 71.0347 297.562 72.852V398.508C297.562 400.325 296.825 402.068 295.512 403.353C294.199 404.638 292.419 405.36 290.562 405.36ZM53.8337 66.24C52.0604 66.2432 50.361 66.9349 49.1082 68.1633C47.8555 69.3917 47.152 71.0564 47.152 72.792V398.508C47.152 400.244 47.8555 401.908 49.1082 403.137C50.361 404.365 52.0604 405.057 53.8337 405.06H290.562C292.335 405.054 294.034 404.361 295.288 403.134C296.542 401.907 297.25 400.244 297.256 398.508V72.792C297.25 71.0562 296.542 69.3934 295.288 68.166C294.034 66.9387 292.335 66.2463 290.562 66.24H53.8337Z" fill="#EBEBEB"/>
<path d="M555.758 405.36H319.018C317.163 405.354 315.386 404.63 314.075 403.346C312.763 402.063 312.024 400.323 312.017 398.508V72.792C312.036 70.9861 312.782 69.2605 314.093 67.9891C315.403 66.7177 317.172 66.0031 319.018 66H555.758C557.6 66.0062 559.365 66.7227 560.671 67.9941C561.977 69.2654 562.718 70.9893 562.734 72.792V398.508C562.736 399.406 562.557 400.296 562.207 401.126C561.857 401.957 561.344 402.712 560.696 403.348C560.048 403.984 559.279 404.49 558.432 404.835C557.584 405.18 556.676 405.358 555.758 405.36ZM319.018 66.24C317.244 66.2463 315.545 66.9387 314.291 68.166C313.037 69.3934 312.33 71.0562 312.324 72.792V398.508C312.33 400.244 313.037 401.907 314.291 403.134C315.545 404.361 317.244 405.054 319.018 405.06H555.758C557.532 405.054 559.23 404.361 560.484 403.134C561.738 401.907 562.446 400.244 562.452 398.508V72.792C562.446 71.0562 561.738 69.3934 560.484 68.166C559.23 66.9387 557.532 66.2463 555.758 66.24H319.018Z" fill="#EBEBEB"/>
<path d="M262.56 289.956H89.9761V458.88H262.56V289.956Z" fill="#E0E0E0"/>
<path d="M231.935 289.956H73.4375V458.88H231.935V289.956Z" fill="#EBEBEB"/>
<path d="M225.351 299.1H79.825V345.228H225.351V299.1Z" fill="#F5F5F5"/>
<path d="M225.351 352.488H79.825V398.616H225.351V352.488Z" fill="#F5F5F5"/>
<path d="M225.351 403.62H79.825V449.748H225.351V403.62Z" fill="#F5F5F5"/>
<path d="M154.133 319.608C154.133 320.605 153.831 321.579 153.265 322.408C152.699 323.237 151.895 323.883 150.954 324.264C150.013 324.646 148.978 324.746 147.979 324.551C146.98 324.357 146.063 323.877 145.342 323.172C144.622 322.467 144.132 321.569 143.933 320.591C143.734 319.614 143.836 318.6 144.226 317.679C144.616 316.758 145.276 315.971 146.123 315.417C146.969 314.864 147.965 314.568 148.983 314.568C150.349 314.568 151.659 315.099 152.624 316.044C153.59 316.989 154.133 318.271 154.133 319.608Z" fill="#FAFAFA"/>
<path d="M152.686 422.016C152.686 422.728 152.47 423.424 152.066 424.016C151.662 424.608 151.088 425.07 150.416 425.342C149.744 425.614 149.004 425.686 148.291 425.547C147.577 425.408 146.922 425.065 146.407 424.562C145.893 424.058 145.543 423.417 145.401 422.718C145.259 422.02 145.332 421.296 145.61 420.638C145.888 419.981 146.36 419.418 146.965 419.023C147.57 418.627 148.281 418.416 149.008 418.416C149.984 418.416 150.919 418.795 151.609 419.47C152.299 420.146 152.686 421.061 152.686 422.016Z" fill="#FAFAFA"/>
<path d="M152.686 374.856C152.686 375.568 152.47 376.264 152.066 376.856C151.662 377.448 151.088 377.909 150.416 378.182C149.744 378.454 149.004 378.526 148.291 378.387C147.577 378.248 146.922 377.905 146.407 377.402C145.893 376.898 145.543 376.257 145.401 375.558C145.259 374.86 145.332 374.136 145.61 373.478C145.888 372.821 146.36 372.258 146.965 371.863C147.57 371.467 148.281 371.256 149.008 371.256C149.984 371.256 150.919 371.635 151.609 372.31C152.299 372.986 152.686 373.901 152.686 374.856Z" fill="#FAFAFA"/>
<path d="M284.138 82.428H83.4907V211.872H284.138V82.428Z" fill="#E0E0E0"/>
<path d="M280.264 82.428H79.6165V211.872H280.264V82.428Z" fill="#F0F0F0"/>
<path d="M272.883 88.596H85.3787V206.724H272.883V88.596Z" fill="#FAFAFA"/>
<path d="M266.557 90.276L213.214 206.724H191.293L242.601 90.276H266.557Z" fill="white"/>
<path d="M222.85 90.276L168.673 206.724H142.976L199.617 90.276H222.85Z" fill="white"/>
<path d="M283.868 82.428H79.6165V90.276H283.868V82.428Z" fill="#E0E0E0"/>
<path d="M283.868 92.304H79.6165V100.152H283.868V92.304Z" fill="#E0E0E0"/>
<path d="M283.868 102.18H79.6165V110.028H283.868V102.18Z" fill="#E0E0E0"/>
<path d="M283.868 112.044H79.6165V119.892H283.868V112.044Z" fill="#E0E0E0"/>
<path d="M283.868 121.92H79.6165V129.768H283.868V121.92Z" fill="#E0E0E0"/>
<path d="M289.961 211.872H75.2395V221.64H289.961V211.872Z" fill="#E0E0E0"/>
<path d="M538.422 358.296V458.88H502.108L500.171 448.812H359.071V358.296H538.422Z" fill="#E0E0E0"/>
<path d="M513.547 358.296V458.88H502.108L500.171 448.812H356.263L353.983 458.88H334.195V358.296H513.547Z" fill="#EBEBEB"/>
<path d="M503.432 365.352H343.304V400.008H503.432V365.352Z" stroke="#FAFAFA" stroke-miterlimit="10"/>
<path d="M503.432 406.908H343.304V441.912H503.432V406.908Z" stroke="#FAFAFA" stroke-miterlimit="10"/>
<path d="M535.198 77.316H463.195V172.632H535.198V77.316Z" fill="#E0E0E0"/>
<path d="M531.594 77.256H459.591V172.572H531.594V77.256Z" fill="#E6E6E6"/>
<path d="M527.854 80.832H463.195V169.14H527.854V80.832Z" fill="#FAFAFA"/>
<path d="M521.258 149.976H471.838V152.04H521.258V149.976Z" fill="#E0E0E0"/>
<path d="M521.258 155.244H471.838V157.308H521.258V155.244Z" fill="#E0E0E0"/>
<path d="M521.258 160.512H471.838V162.576H521.258V160.512Z" fill="#E0E0E0"/>
<path d="M514.197 113.496C514.197 116.91 513.163 120.248 511.225 123.087C509.288 125.926 506.534 128.14 503.312 129.447C500.089 130.755 496.543 131.098 493.122 130.434C489.7 129.77 486.557 128.127 484.088 125.715C481.62 123.302 479.938 120.228 479.254 116.879C478.571 113.531 478.917 110.06 480.248 106.904C481.58 103.749 483.837 101.05 486.735 99.1498C489.633 97.2495 493.042 96.2327 496.53 96.228C498.849 96.2248 501.146 96.6691 503.289 97.5355C505.432 98.4019 507.38 99.6734 509.021 101.277C510.662 102.881 511.963 104.786 512.851 106.882C513.74 108.979 514.197 111.226 514.197 113.496Z" stroke="#E0E0E0" stroke-miterlimit="10"/>
<path d="M507.012 197.244H445.528V257.424H507.012V197.244Z" fill="#E0E0E0"/>
<path d="M501.753 197.244H440.269V257.424H501.753V197.244Z" fill="#EBEBEB"/>
<path d="M497.511 201.408H444.523V253.272H497.511V201.408Z" fill="#FAFAFA"/>
<path d="M485.067 213.576H456.967V241.08H485.067V213.576Z" fill="#E0E0E0"/>
<path d="M304.146 543.252C417.33 543.252 509.084 536.461 509.084 528.084C509.084 519.707 417.33 512.916 304.146 512.916C190.962 512.916 99.208 519.707 99.208 528.084C99.208 536.461 190.962 543.252 304.146 543.252Z" fill="#F5F5F5"/>
<path d="M196.773 447.852H121.35V531.168H196.773V447.852Z" fill="#7860A0"/>
<path d="M234.485 447.852H159.061V531.168H234.485V447.852Z" fill="#7860A0"/>
<path opacity="0.7" d="M196.773 447.852H121.35V531.168H196.773V447.852Z" fill="white"/>
<path opacity="0.2" d="M234.473 447.852H196.687V531.168H234.473V447.852Z" fill="white"/>
<path d="M214.791 506.143C220.091 506.021 224.214 498.661 224 489.703C223.786 480.745 219.316 473.582 214.015 473.703C208.715 473.825 204.592 481.185 204.806 490.143C205.02 499.101 209.49 506.264 214.791 506.143Z" fill="white"/>
<path d="M220.19 487.188L216.095 487.284L215.936 480.492L212.772 480.564L212.932 487.356L208.432 487.464L208.555 492.756L213.054 492.648L213.226 499.38L216.389 499.308L216.23 492.576L220.325 492.48L220.19 487.188Z" fill="#7860A0"/>
<path d="M168.244 447.852H152.968V462.804H168.244V447.852Z" fill="#F5F5F5"/>
<path d="M168.244 477.72H152.968V531.168H168.244V477.72Z" fill="#F5F5F5"/>
<path d="M220.938 379.512H159.061V447.876H220.938V379.512Z" fill="#7860A0"/>
<path d="M251.882 379.512H190.006V447.876H251.882V379.512Z" fill="#7860A0"/>
<path opacity="0.7" d="M211.289 379.512H159.061V447.876H211.289V379.512Z" fill="white"/>
<path opacity="0.2" d="M251.882 379.512H211.289V447.876H251.882V379.512Z" fill="white"/>
<path d="M239.45 413.868C239.634 421.212 236.25 427.26 231.898 427.356C227.546 427.452 223.88 421.572 223.708 414.228C223.537 406.884 226.921 400.8 231.261 400.8C235.601 400.8 239.279 406.512 239.45 413.868Z" fill="white"/>
<path d="M236.361 411.792L233.001 411.864L232.866 406.284L230.267 406.344L230.402 411.924L226.7 412.008L226.81 416.352L230.5 416.268L230.635 421.8L233.234 421.728L233.099 416.208L236.459 416.136L236.361 411.792Z" fill="#7860A0"/>
<path d="M185.003 379.512H172.461V447.876H185.003V379.512Z" fill="#F5F5F5"/>
<path d="M292.266 286.92C292.266 286.92 274.207 370.632 272.65 398.4C271.093 426.168 278.498 495.948 278.498 495.948L301.572 499.548L305.973 410.496L316.087 342.612C316.087 342.612 326.68 397.812 331.241 410.736C335.801 423.66 357.563 461.136 375.536 491.076L390.984 480C390.984 480 362.111 399.192 357.183 383.412C352.254 367.632 355.589 300.732 340.387 281.736L292.266 286.92Z" fill="#7860A0"/>
<path opacity="0.4" d="M292.266 286.92C292.266 286.92 274.207 370.632 272.65 398.4C271.093 426.168 278.498 495.948 278.498 495.948L301.572 499.548L305.973 410.496L316.087 342.612C316.087 342.612 326.68 397.812 331.241 410.736C335.801 423.66 357.563 461.136 375.536 491.076L390.984 480C390.984 480 362.111 399.192 357.183 383.412C352.254 367.632 355.589 300.732 340.387 281.736L292.266 286.92Z" fill="white"/>
<path d="M296.557 519.12C296.447 519.792 284.481 517.248 284.481 517.248L283.672 505.68L283.353 501.144L295.613 500.088C295.613 500.088 295.821 503.544 296.042 507.504C296.287 512.688 296.692 518.724 296.557 519.12Z" fill="#B55B52"/>
<path opacity="0.2" d="M295.993 507.504L283.672 505.68L283.353 501.144L295.613 500.088C295.613 500.088 295.772 503.544 295.993 507.504Z" fill="black"/>
<path d="M275.715 521.316L275.225 520.656C275.078 520.452 271.547 515.616 272.062 513.24C272.11 513.009 272.209 512.791 272.353 512.602C272.498 512.414 272.683 512.258 272.895 512.148C273.069 512.045 273.269 511.991 273.472 511.991C273.675 511.991 273.874 512.045 274.048 512.148C275.801 513.192 275.74 519.768 275.727 520.548L275.715 521.316ZM273.508 512.532C273.384 512.536 273.262 512.569 273.153 512.628C273.013 512.705 272.892 512.81 272.796 512.936C272.701 513.062 272.635 513.207 272.601 513.36C272.221 514.992 274.207 518.16 275.176 519.624C275.176 517.308 274.857 513.252 273.766 512.604C273.689 512.557 273.599 512.532 273.508 512.532Z" fill="#7860A0"/>
<path d="M274.477 521.388L273.766 521.1C273.006 520.8 266.336 518.076 265.919 515.736C265.881 515.498 265.908 515.254 265.996 515.028C266.084 514.803 266.231 514.604 266.422 514.452C266.623 514.269 266.866 514.135 267.13 514.062C267.395 513.989 267.673 513.979 267.942 514.032C270.639 514.488 273.974 520.464 274.072 520.716L274.477 521.388ZM267.599 514.536C267.3 514.536 267.013 514.653 266.802 514.86C266.677 514.949 266.58 515.07 266.522 515.21C266.464 515.35 266.446 515.503 266.471 515.652C266.741 517.188 270.909 519.252 273.214 520.284C272.258 518.688 269.781 514.896 267.844 514.56L267.599 514.536Z" fill="#7860A0"/>
<path d="M296.165 518.472L283.782 516.564C283.013 516.445 282.226 516.612 281.575 517.032C278.704 518.929 275.473 520.243 272.074 520.896C266.778 521.628 262.07 520.608 261.628 522.096C261.378 523.063 261.467 524.084 261.88 524.996C262.294 525.908 263.008 526.657 263.909 527.124C265.65 528.012 286.982 531.252 295.981 532.596C296.452 532.665 296.933 532.629 297.388 532.489C297.842 532.35 298.258 532.111 298.604 531.791C298.951 531.47 299.218 531.077 299.385 530.641C299.553 530.204 299.617 529.736 299.573 529.272L298.801 521.232C298.734 520.552 298.44 519.912 297.963 519.413C297.486 518.914 296.854 518.583 296.165 518.472Z" fill="#222221"/>
<path d="M275.445 493.176L277.382 503.16L302.638 505.512L303.386 495.408L275.445 493.176Z" fill="#7860A0"/>
<path d="M398.744 492.528C399.088 493.128 388.103 498.42 388.103 498.42L380.82 490.584L377.007 486.468L380.881 482.868L385.908 478.224C385.908 478.224 386.423 478.8 387.269 479.712L391.732 484.632C395.042 488.304 398.573 492.228 398.744 492.528Z" fill="#B55B52"/>
<path opacity="0.2" d="M391.732 484.644L380.82 490.584L377.007 486.468L380.881 482.868L387.269 479.712L391.732 484.644Z" fill="black"/>
<path d="M384.535 503.208L383.897 502.92C383.664 502.824 378.282 500.412 377.767 498.288C377.72 498.076 377.727 497.855 377.787 497.646C377.847 497.437 377.958 497.245 378.111 497.088C378.275 496.882 378.492 496.723 378.739 496.626C378.987 496.529 379.257 496.498 379.52 496.536C381.703 496.884 383.971 502.008 384.228 502.596L384.535 503.208ZM379.324 497.04C379.176 497.044 379.031 497.08 378.899 497.147C378.768 497.213 378.653 497.308 378.564 497.424C378.467 497.522 378.396 497.643 378.36 497.775C378.323 497.908 378.322 498.047 378.356 498.18C378.65 499.524 381.691 501.252 383.444 502.116C382.598 500.34 380.857 497.316 379.471 497.052L379.324 497.04Z" fill="#7860A0"/>
<path d="M376.468 505.728C375.364 505.841 374.255 505.564 373.341 504.948C373.109 504.72 372.948 504.432 372.877 504.117C372.805 503.803 372.826 503.475 372.937 503.172C373.023 502.801 373.198 502.455 373.447 502.163C373.696 501.87 374.013 501.641 374.371 501.492C377.571 500.076 384.719 503.64 385.025 503.796L385.638 504.108L384.976 504.3C382.205 505.091 379.35 505.571 376.468 505.728ZM376.235 501.696C375.673 501.678 375.113 501.776 374.592 501.984C374.312 502.101 374.065 502.282 373.871 502.512C373.677 502.741 373.542 503.013 373.476 503.304C373.403 503.507 373.388 503.726 373.431 503.937C373.474 504.148 373.574 504.344 373.722 504.504C375.193 505.896 381.188 504.684 384.118 503.916C382.622 503.28 378.834 501.696 376.235 501.696Z" fill="#7860A0"/>
<path d="M398.033 492.096L387.122 498.096C386.44 498.465 385.927 499.074 385.687 499.8C384.641 503.031 382.94 506.023 380.685 508.596C377.007 512.4 372.667 514.464 373.268 515.892C373.681 516.803 374.396 517.55 375.297 518.014C376.198 518.478 377.233 518.631 378.233 518.448C380.158 518.088 398.94 507.648 406.848 503.256C407.263 503.024 407.618 502.702 407.886 502.315C408.154 501.928 408.329 501.486 408.396 501.023C408.464 500.56 408.422 500.088 408.275 499.643C408.128 499.199 407.879 498.792 407.547 498.456L401.846 492.612C401.357 492.127 400.718 491.814 400.029 491.721C399.34 491.628 398.638 491.759 398.033 492.096Z" fill="#222221"/>
<path d="M366.451 485.916L374.31 492.588L395.606 479.076L389.782 470.7L366.451 485.916Z" fill="#7860A0"/>
<path d="M317.877 182.4C318.552 182.028 332.589 181.404 346.075 184.176C359.561 186.948 335.532 203.184 335.532 203.184L328.004 232.68L314.212 232.8L312.544 190.92L317.877 182.4Z" fill="#EBEBEB"/>
<path d="M346.063 184.212L316.811 229.392L320.047 182.016C320.047 182.016 309.418 182.28 306.12 183.216C302.822 184.152 299.99 191.688 297.624 202.008C295.258 212.328 291.665 237.072 291.665 237.072L274.857 375.072C274.857 375.072 332.32 387.072 359.39 377.748C359.39 377.748 349.214 253.8 350.893 246.144C352.573 238.488 358.004 210.48 358.004 210.48C358.004 210.48 365.532 196.5 362.258 192.384C358.985 188.268 346.063 184.212 346.063 184.212Z" fill="#7860A0"/>
<path d="M311.576 271.14L315.744 380.652" stroke="white" stroke-width="0.75" stroke-linecap="round" stroke-linejoin="round"/>
<path d="M308.024 185.567L206.612 219.397L232.153 292.75L333.565 258.92L308.024 185.567Z" fill="#7860A0"/>
<path d="M308.02 185.568L232.143 292.752L217.897 286.428L192.359 213.084L293.774 179.256L308.02 185.568Z" fill="#7860A0"/>
<path opacity="0.7" d="M308.02 185.568L206.606 219.396L232.143 292.752L217.897 286.428L192.359 213.084L293.774 179.256L308.02 185.568Z" fill="white"/>
<path opacity="0.46" d="M308.024 185.567L206.612 219.397L232.153 292.75L333.565 258.92L308.024 185.567Z" fill="white"/>
<path d="M286.327 260.862C298.553 251.071 300.355 233.433 290.352 221.466C280.349 209.499 262.329 207.735 250.103 217.526C237.877 227.317 236.074 244.955 246.078 256.922C256.081 268.889 274.101 270.653 286.327 260.862Z" fill="#FAFAFA"/>
<path d="M285.388 229.488L273.729 233.22L269.978 222.012L260.966 224.904L264.718 236.112L251.894 240.216L254.8 248.94L267.636 244.824L271.351 255.936L280.362 253.044L276.647 241.932L288.306 238.2L285.388 229.488Z" fill="#7860A0"/>
<path d="M319.986 123.768V106.308C319.986 106.308 339.516 97.704 358.188 115.272L349.606 132.216L319.986 123.768Z" fill="#7860A0"/>
<path d="M338.744 108.865L336.531 108.437L335.193 115.065L337.406 115.493L338.744 108.865Z" fill="white"/>
<path d="M333.828 110.22L333.391 112.386L340.163 113.695L340.6 111.529L333.828 110.22Z" fill="white"/>
<path d="M348.184 156C344.616 161.028 341.343 160.332 341.343 160.332C340.27 162.241 338.873 163.958 337.211 165.408C336.623 181.092 341.343 185.328 341.343 185.328C336.439 192.732 330.382 192.528 324.252 190.368C318.122 188.208 317.804 183.504 317.804 183.504C323.345 180.84 323.419 176.664 322.622 173.808C322.305 172.703 321.834 171.645 321.224 170.664C310.816 167.868 307.812 158.1 308.523 148.884C308.963 143.294 310.364 137.817 312.667 132.684L318.797 123.6L342.765 128.4L344.052 140.832L339.148 150.048C347.792 143.796 351.788 150.912 348.184 156Z" fill="#B55B52"/>
<path d="M319.986 155.88C319.403 155.883 318.822 155.843 318.245 155.76C318.19 155.751 318.137 155.73 318.089 155.701C318.041 155.671 318 155.633 317.968 155.588C317.935 155.543 317.912 155.492 317.9 155.438C317.887 155.384 317.886 155.328 317.896 155.274C317.905 155.22 317.926 155.168 317.956 155.121C317.986 155.074 318.026 155.034 318.072 155.002C318.118 154.971 318.17 154.948 318.225 154.936C318.28 154.924 318.337 154.923 318.392 154.932C318.392 154.932 324.522 155.976 327.158 151.536C327.186 151.488 327.224 151.446 327.269 151.412C327.314 151.378 327.365 151.353 327.419 151.339C327.474 151.324 327.531 151.32 327.587 151.328C327.643 151.335 327.698 151.352 327.747 151.38C327.796 151.408 327.839 151.444 327.873 151.488C327.908 151.532 327.933 151.582 327.948 151.636C327.963 151.689 327.967 151.745 327.96 151.8C327.952 151.855 327.934 151.908 327.906 151.956C325.883 155.34 322.144 155.88 319.986 155.88Z" fill="#263238"/>
<path d="M318.306 150.396C318.564 150.396 319.606 142.74 319.606 142.74L314.04 149.292C314.613 149.79 315.298 150.149 316.039 150.34C316.78 150.532 317.556 150.551 318.306 150.396Z" fill="#A02724"/>
<path d="M326.925 142.896C326.79 143.844 326.189 144.552 325.589 144.468C324.988 144.384 324.608 143.544 324.743 142.596C324.878 141.648 325.478 140.928 326.079 141.012C326.68 141.096 327.06 141.936 326.925 142.896Z" fill="#263238"/>
<path d="M315.082 141.84C314.947 142.788 314.346 143.496 313.746 143.412C313.145 143.328 312.765 142.5 312.9 141.54C313.035 140.58 313.635 139.884 314.236 139.968C314.837 140.052 315.278 140.88 315.082 141.84Z" fill="#263238"/>
<path d="M331.731 138.6C331.623 138.599 331.517 138.568 331.426 138.51C331.335 138.453 331.262 138.372 331.216 138.276C329.757 135.24 327.698 135.636 327.612 135.648C327.469 135.669 327.324 135.636 327.205 135.558C327.086 135.479 327.001 135.36 326.967 135.223C326.933 135.086 326.953 134.941 327.022 134.818C327.092 134.695 327.206 134.601 327.342 134.556C327.465 134.556 330.383 133.884 332.246 137.796C332.279 137.864 332.298 137.937 332.301 138.012C332.305 138.087 332.293 138.161 332.267 138.232C332.241 138.302 332.201 138.367 332.148 138.422C332.096 138.477 332.034 138.521 331.964 138.552C331.891 138.584 331.811 138.601 331.731 138.6Z" fill="#263238"/>
<path d="M311.318 136.584C311.246 136.585 311.174 136.571 311.106 136.544C311.039 136.518 310.978 136.478 310.926 136.428C310.872 136.377 310.829 136.315 310.799 136.247C310.77 136.179 310.755 136.106 310.755 136.032C310.755 135.958 310.77 135.885 310.799 135.817C310.829 135.749 310.872 135.687 310.926 135.636C311.073 135.492 314.359 132.204 318.503 133.824C318.574 133.851 318.639 133.891 318.694 133.942C318.749 133.993 318.793 134.054 318.824 134.123C318.855 134.191 318.871 134.264 318.873 134.338C318.875 134.413 318.861 134.487 318.834 134.556C318.774 134.695 318.661 134.806 318.519 134.864C318.377 134.922 318.217 134.924 318.074 134.868C314.628 133.524 311.796 136.38 311.76 136.416C311.704 136.475 311.635 136.521 311.559 136.55C311.482 136.579 311.4 136.591 311.318 136.584Z" fill="#263238"/>
<path opacity="0.2" d="M326.57 170.028C325.611 171.574 324.265 172.854 322.659 173.748C322.341 172.643 321.871 171.585 321.261 170.604C323.052 170.773 324.86 170.577 326.57 170.028Z" fill="black"/>
<path d="M341.625 129.456C341.625 129.456 320.942 134.868 312.704 132C304.465 129.132 307.346 119.22 308.462 118.284C309.982 117.012 313.292 122.268 313.292 122.268C313.292 122.268 310.583 116.64 312.704 115.404C314.824 114.168 315.156 122.604 322.879 121.716C330.603 120.828 352.009 115.128 353.272 128.304C354.03 136.198 352.726 144.15 349.484 151.416C349.484 151.416 348.343 144.216 339.234 149.94C339.234 149.94 336.206 147.828 339.234 144.924C344.506 139.896 342.667 133.284 341.625 129.456Z" fill="#263238"/>
<path d="M339.43 128.4C339.43 128.4 335.838 139.896 342.446 139.344C349.054 138.792 344.996 126.792 344.996 126.792L339.43 128.4Z" fill="#263238"/>
<path d="M322.058 122.4C322.058 122.4 317.742 119.292 318.846 117.036C319.949 114.78 321.666 120.228 330.26 119.232C338.854 118.236 349.054 117.48 350.942 123.06C352.831 128.64 333.778 124.392 333.778 124.392L322.033 126.864L322.058 122.4Z" fill="#263238"/>
<path d="M320.562 259.752L312.262 257.46C312.262 257.46 302.454 256.872 301.633 260.532C300.811 264.192 300.407 270.504 304.305 271.008C308.204 271.512 320.342 270.768 320.342 270.768L320.562 259.752Z" fill="#B55B52"/>
<path d="M348.883 204L362.259 192.312C362.259 192.312 378.822 228.312 379.754 242.148C380.685 255.984 369.762 262.2 360.505 264.528C351.249 266.856 320.575 273.06 320.575 273.06L318.919 256.356C318.919 256.356 351.592 250.896 364.171 245.244C364.122 245.28 352.806 213.06 348.883 204Z" fill="#7860A0"/>
<path opacity="0.1" d="M320.574 273.096L351.494 266.628L351.58 271.188L320.574 273.096Z" fill="black"/>
<path d="M324.277 190.308L327.795 199.404C333.385 195.376 338.53 190.787 343.145 185.712L338.045 177.396C338.045 177.396 333.374 186.492 324.277 190.308Z" fill="#FAFAFA"/>
<path d="M321.702 180.36C321.804 183.821 322.683 187.217 324.277 190.308L320.44 198.708C318.497 196.782 317.016 194.458 316.104 191.903C315.193 189.348 314.873 186.627 315.168 183.936L321.702 180.36Z" fill="#FAFAFA"/>
</svg>
