<svg width="40" height="40" viewBox="0 0 40 40" fill="none" xmlns="http://www.w3.org/2000/svg">
<rect width="40" height="40" rx="20" fill="#1D9BF0"/>
<path d="M16.3397 30.55C25.2097 30.55 30.0597 23.2 30.0597 16.83C30.0597 16.62 30.0597 16.41 30.0497 16.21C30.9897 15.53 31.8097 14.68 32.4597 13.71C31.5997 14.09 30.6697 14.35 29.6897 14.47C30.6897 13.87 31.4497 12.93 31.8097 11.8C30.8797 12.35 29.8497 12.75 28.7497 12.97C27.8697 12.03 26.6197 11.45 25.2297 11.45C22.5697 11.45 20.4097 13.61 20.4097 16.27C20.4097 16.65 20.4497 17.02 20.5397 17.37C16.5297 17.17 12.9797 15.25 10.5997 12.33C10.1897 13.04 9.94973 13.87 9.94973 14.75C9.94973 16.42 10.7997 17.9 12.0997 18.76C11.3097 18.74 10.5697 18.52 9.91973 18.16C9.91973 18.18 9.91973 18.2 9.91973 18.22C9.91973 20.56 11.5797 22.5 13.7897 22.95C13.3897 23.06 12.9597 23.12 12.5197 23.12C12.2097 23.12 11.9097 23.09 11.6097 23.03C12.2197 24.95 13.9997 26.34 16.1097 26.38C14.4597 27.67 12.3797 28.44 10.1197 28.44C9.72973 28.44 9.34973 28.42 8.96973 28.37C11.0797 29.75 13.6197 30.55 16.3397 30.55Z" fill="white"/>
</svg>
