<svg width="40" height="40" viewBox="0 0 40 40" fill="none" xmlns="http://www.w3.org/2000/svg">
<rect width="40" height="40" rx="20" fill="url(#paint0_linear_63_241)"/>
<path d="M7.86816 31.6358L9.58305 25.4085C8.52283 23.5807 7.96665 21.5107 7.97245 19.3946C7.97245 12.7637 13.3952 7.37244 20.052 7.37244C23.2848 7.37244 26.3206 8.62366 28.5975 10.8955C30.8801 13.1673 32.1373 16.1887 32.1315 19.4003C32.1315 26.0313 26.7088 31.4225 20.0462 31.4225H20.0404C18.0185 31.4225 16.0313 30.9151 14.2642 29.9579L7.86816 31.6358ZM14.5713 27.7841L14.9363 28.0032C16.4774 28.9143 18.2444 29.3928 20.0462 29.3986H20.052C25.5848 29.3986 30.0922 24.9184 30.0922 19.4061C30.0922 16.7364 29.0494 14.2282 27.1549 12.337C25.2604 10.4457 22.7344 9.40784 20.052 9.40784C14.5192 9.40207 10.0118 13.8823 10.0118 19.3946C10.0118 21.2801 10.539 23.1194 11.5471 24.7108L11.7846 25.0914L10.7707 28.7759L14.5713 27.7841Z" fill="white"/>
<path d="M8.29102 31.2149L9.94797 25.2009C8.92251 23.4423 8.38371 21.4415 8.38371 19.4003C8.38951 13 13.6211 7.79333 20.0519 7.79333C23.1746 7.79333 26.1004 9.0042 28.3019 11.1953C30.5035 13.3864 31.7143 16.304 31.7143 19.4061C31.7143 25.8064 26.477 31.0131 20.0519 31.0131H20.0461C18.0937 31.0131 16.176 30.523 14.4727 29.6004L8.29102 31.2149Z" fill="url(#paint1_linear_63_241)"/>
<path d="M7.86816 31.6358L9.58305 25.4085C8.52283 23.5807 7.96665 21.5107 7.97245 19.3946C7.97245 12.7637 13.3952 7.37244 20.052 7.37244C23.2848 7.37244 26.3206 8.62366 28.5975 10.8955C30.8801 13.1673 32.1373 16.1887 32.1315 19.4003C32.1315 26.0313 26.7088 31.4225 20.0462 31.4225H20.0404C18.0185 31.4225 16.0313 30.9151 14.2642 29.9579L7.86816 31.6358ZM14.5713 27.7841L14.9363 28.0032C16.4774 28.9143 18.2444 29.3928 20.0462 29.3986H20.052C25.5848 29.3986 30.0922 24.9184 30.0922 19.4061C30.0922 16.7364 29.0494 14.2282 27.1549 12.337C25.2604 10.4457 22.7344 9.40784 20.052 9.40784C14.5192 9.40207 10.0118 13.8823 10.0118 19.3946C10.0118 21.2801 10.539 23.1194 11.5471 24.7108L11.7846 25.0914L10.7707 28.7759L14.5713 27.7841Z" fill="url(#paint2_linear_63_241)"/>
<path fill-rule="evenodd" clip-rule="evenodd" d="M17.0334 14.3666C16.8075 13.865 16.5699 13.8535 16.3556 13.8477C16.1818 13.8419 15.979 13.8419 15.7762 13.8419C15.5735 13.8419 15.249 13.9169 14.9709 14.2167C14.6928 14.5165 13.9165 15.2431 13.9165 16.7249C13.9165 18.201 14.9999 19.631 15.1505 19.8328C15.3012 20.0346 17.242 23.1656 20.3068 24.3707C22.8559 25.3739 23.3774 25.1721 23.9278 25.1202C24.4781 25.0683 25.7122 24.3937 25.9671 23.6903C26.2162 22.9868 26.2162 22.3872 26.1409 22.2603C26.0656 22.1334 25.8628 22.0585 25.5615 21.9086C25.2603 21.7587 23.7771 21.0321 23.499 20.9284C23.2209 20.8303 23.0182 20.7784 22.8212 21.0783C22.6184 21.3781 22.0391 22.0527 21.8652 22.2545C21.6914 22.4563 21.5118 22.4794 21.2106 22.3295C20.9093 22.1796 19.936 21.8624 18.7831 20.8361C17.8851 20.0404 17.2768 19.0544 17.103 18.7546C16.9291 18.4547 17.0856 18.2933 17.2362 18.1434C17.3695 18.0107 17.5375 17.7916 17.6881 17.6187C17.8387 17.4457 17.8909 17.3188 17.9894 17.117C18.0879 16.9152 18.0415 16.7422 17.9662 16.5923C17.8909 16.4482 17.2999 14.9605 17.0334 14.3666Z" fill="white"/>
<defs>
<linearGradient id="paint0_linear_63_241" x1="19.999" y1="39.998" x2="19.999" y2="-0.0013995" gradientUnits="userSpaceOnUse">
<stop stop-color="#20B038"/>
<stop offset="1" stop-color="#60D66A"/>
</linearGradient>
<linearGradient id="paint1_linear_63_241" x1="20.0021" y1="31.2137" x2="20.0021" y2="7.79252" gradientUnits="userSpaceOnUse">
<stop stop-color="#20B038"/>
<stop offset="1" stop-color="#60D66A"/>
</linearGradient>
<linearGradient id="paint2_linear_63_241" x1="20.0022" y1="31.6335" x2="20.0022" y2="7.37244" gradientUnits="userSpaceOnUse">
<stop stop-color="#F9F9F9"/>
<stop offset="1" stop-color="white"/>
</linearGradient>
</defs>
</svg>
