<svg width="40" height="40" viewBox="0 0 40 40" fill="none" xmlns="http://www.w3.org/2000/svg">
<rect width="40" height="40" rx="20" fill="url(#paint0_linear_61_1426)"/>
<path d="M7.86829 31.6357L9.58318 25.4084C8.52296 23.5806 7.96678 21.5106 7.97257 19.3945C7.97257 12.7635 13.3953 7.37231 20.0521 7.37231C23.2849 7.37231 26.3207 8.62354 28.5976 10.8953C30.8802 13.1672 32.1374 16.1886 32.1317 19.4002C32.1317 26.0311 26.7089 31.4224 20.0463 31.4224H20.0405C18.0186 31.4224 16.0314 30.915 14.2644 29.9578L7.86829 31.6357ZM14.5714 27.784L14.9364 28.0031C16.4775 28.9141 18.2445 29.3927 20.0463 29.3985H20.0521C25.5849 29.3985 30.0923 24.9183 30.0923 19.406C30.0923 16.7363 29.0495 14.2281 27.155 12.3369C25.2605 10.4456 22.7345 9.40772 20.0521 9.40772C14.5193 9.40195 10.0119 13.8821 10.0119 19.3945C10.0119 21.2799 10.5391 23.1193 11.5472 24.7107L11.7847 25.0913L10.7709 28.7758L14.5714 27.784Z" fill="white"/>
<path d="M8.29126 31.2148L9.94821 25.2008C8.92276 23.4422 8.38396 21.4414 8.38396 19.4002C8.38975 12.9999 13.6213 7.79321 20.0522 7.79321C23.1749 7.79321 26.1006 9.00408 28.3022 11.1952C30.5037 13.3862 31.7146 16.3039 31.7146 19.406C31.7146 25.8062 26.4772 31.013 20.0522 31.013H20.0464C18.0939 31.013 16.1763 30.5228 14.473 29.6003L8.29126 31.2148Z" fill="url(#paint1_linear_61_1426)"/>
<path d="M7.86829 31.6357L9.58318 25.4084C8.52296 23.5806 7.96678 21.5106 7.97257 19.3945C7.97257 12.7635 13.3953 7.37231 20.0521 7.37231C23.2849 7.37231 26.3207 8.62354 28.5976 10.8953C30.8802 13.1672 32.1374 16.1886 32.1317 19.4002C32.1317 26.0311 26.7089 31.4224 20.0463 31.4224H20.0405C18.0186 31.4224 16.0314 30.915 14.2644 29.9578L7.86829 31.6357ZM14.5714 27.784L14.9364 28.0031C16.4775 28.9141 18.2445 29.3927 20.0463 29.3985H20.0521C25.5849 29.3985 30.0923 24.9183 30.0923 19.406C30.0923 16.7363 29.0495 14.2281 27.155 12.3369C25.2605 10.4456 22.7345 9.40772 20.0521 9.40772C14.5193 9.40195 10.0119 13.8821 10.0119 19.3945C10.0119 21.2799 10.5391 23.1193 11.5472 24.7107L11.7847 25.0913L10.7709 28.7758L14.5714 27.784Z" fill="url(#paint2_linear_61_1426)"/>
<path fill-rule="evenodd" clip-rule="evenodd" d="M17.0336 14.3665C16.8076 13.8649 16.5701 13.8533 16.3557 13.8476C16.1819 13.8418 15.9791 13.8418 15.7764 13.8418C15.5736 13.8418 15.2491 13.9168 14.9711 14.2166C14.693 14.5164 13.9166 15.2429 13.9166 16.7248C13.9166 18.2009 15 19.6309 15.1507 19.8327C15.3013 20.0345 17.2421 23.1654 20.3069 24.3705C22.8561 25.3738 23.3775 25.172 23.9279 25.1201C24.4783 25.0682 25.7123 24.3936 25.9672 23.6902C26.2163 22.9867 26.2163 22.387 26.141 22.2602C26.0657 22.1333 25.8629 22.0584 25.5617 21.9085C25.2604 21.7585 23.7772 21.032 23.4991 20.9282C23.2211 20.8302 23.0183 20.7783 22.8213 21.0781C22.6185 21.378 22.0392 22.0526 21.8654 22.2544C21.6916 22.4562 21.512 22.4793 21.2107 22.3294C20.9094 22.1795 19.9361 21.8623 18.7832 20.836C17.8852 20.0403 17.2769 19.0543 17.1031 18.7544C16.9293 18.4546 17.0857 18.2932 17.2363 18.1432C17.3696 18.0106 17.5376 17.7915 17.6882 17.6185C17.8389 17.4456 17.891 17.3187 17.9895 17.1169C18.088 16.9151 18.0416 16.7421 17.9663 16.5922C17.891 16.448 17.3001 14.9604 17.0336 14.3665Z" fill="white"/>
<defs>
<linearGradient id="paint0_linear_61_1426" x1="19.999" y1="39.998" x2="19.999" y2="-0.0013995" gradientUnits="userSpaceOnUse">
<stop stop-color="#20B038"/>
<stop offset="1" stop-color="#60D66A"/>
</linearGradient>
<linearGradient id="paint1_linear_61_1426" x1="20.0023" y1="31.2136" x2="20.0023" y2="7.79239" gradientUnits="userSpaceOnUse">
<stop stop-color="#20B038"/>
<stop offset="1" stop-color="#60D66A"/>
</linearGradient>
<linearGradient id="paint2_linear_61_1426" x1="20.0023" y1="31.6334" x2="20.0023" y2="7.37231" gradientUnits="userSpaceOnUse">
<stop stop-color="#F9F9F9"/>
<stop offset="1" stop-color="white"/>
</linearGradient>
</defs>
</svg>
